Kecal.glyphspackage
{
glyphname = exclam;
kernLeft = KO_exclam.ss01;
kernRight = KO_exclam;
layers = (
{
layerId = "522FD917-7CD6-43A0-922F-6555542696CE";
shapes = (
{
closed = 1;
nodes = (
(225,285,l),
(250,740,l),
(66,740,l),
(91,285,l)
);
},
{
alignment = -1;
pos = (10,0);
ref = period;
}
);
width = 316;
},
{
layerId = "AF447C8E-6A86-4BB0-AFAA-0E31F633710F";
shapes = (
{
closed = 1;
nodes = (
(145,193,l),
(154,740,l),
(90,740,l),
(99,193,l)
);
},
{
alignment = -1;
pos = (9,0);
ref = period;
}
);
width = 245;
},
{
layerId = "7706EA0A-ADAC-4E76-A745-8A9A965DB998";
shapes = (
{
closed = 1;
nodes = (
(162,208,l),
(174,740,l),
(90,740,l),
(102,208,l)
);
},
{
alignment = -1;
pos = (9,0);
ref = period;
}
);
width = 265;
}
);
unicode = 33;
}
{
glyphname = numbersign;
layers = (
{
layerId = "522FD917-7CD6-43A0-922F-6555542696CE";
shapes = (
{
closed = 1;
nodes = (
(241,0,l),
(341,720,l),
(198,720,l),
(98,0,l)
);
},
{
closed = 1;
nodes = (
(496,0,l),
(596,720,l),
(453,720,l),
(353,0,l)
);
},
{
closed = 1;
nodes = (
(53,418,l),
(667,418,l),
(667,551,l),
(53,551,l)
);
},
{
closed = 1;
nodes = (
(28,178,l),
(642,178,l),
(642,312,l),
(28,312,l)
);
}
);
width = 695;
},
{
layerId = "AF447C8E-6A86-4BB0-AFAA-0E31F633710F";
shapes = (
{
closed = 1;
nodes = (
(197,0,l),
(297,720,l),
(244,720,l),
(144,0,l)
);
},
{
closed = 1;
nodes = (
(410,0,l),
(510,720,l),
(457,720,l),
(357,0,l)
);
},
{
closed = 1;
nodes = (
(63,442,l),
(617,442,l),
(617,495,l),
(63,495,l)
);
},
{
closed = 1;
nodes = (
(38,236,l),
(592,236,l),
(592,288,l),
(38,288,l)
);
}
);
width = 655;
},
{
layerId = "7706EA0A-ADAC-4E76-A745-8A9A965DB998";
shapes = (
{
closed = 1;
nodes = (
(206,0,l),
(306,720,l),
(238,720,l),
(138,0,l)
);
},
{
closed = 1;
nodes = (
(426,0,l),
(526,720,l),
(458,720,l),
(358,0,l)
);
},
{
closed = 1;
nodes = (
(63,438,l),
(627,438,l),
(627,504,l),
(63,504,l)
);
},
{
closed = 1;
nodes = (
(38,226,l),
(602,226,l),
(602,292,l),
(38,292,l)
);
}
);
width = 665;
}
);
unicode = 35;
}
{
glyphname = dollar;
kernRight = KO_dollar;
layers = (
{
layerId = "522FD917-7CD6-43A0-922F-6555542696CE";
shapes = (
{
closed = 1;
nodes = (
(390,696,l),
(390,830,l),
(256,830,l),
(256,696,l)
);
},
{
closed = 1;
nodes = (
(390,-109,l),
(390,20,l),
(256,20,l),
(256,-109,l)
);
},
{
alignment = -1;
ref = S;
}
);
width = 626;
},
{
layerId = "AF447C8E-6A86-4BB0-AFAA-0E31F633710F";
shapes = (
{
closed = 1;
nodes = (
(309,696,l),
(309,830,l),
(259,830,l),
(259,696,l)
);
},
{
closed = 1;
nodes = (
(309,-109,l),
(309,20,l),
(259,20,l),
(259,-109,l)
);
},
{
alignment = -1;
ref = S;
}
);
width = 553;
},
{
layerId = "7706EA0A-ADAC-4E76-A745-8A9A965DB998";
shapes = (
{
closed = 1;
nodes = (
(323,696,l),
(323,830,l),
(259,830,l),
(259,696,l)
);
},
{
closed = 1;
nodes = (
(323,-109,l),
(323,20,l),
(259,20,l),
(259,-109,l)
);
},
{
alignment = -1;
ref = S;
}
);
width = 567;
}
);
unicode = 36;
userData = {
KernOnSpecialSpacing = {
L = symbols;
R = symbols;
};
};
}
{
glyphname = percent;
kernLeft = KO_percent;
kernRight = KO_percent;
layers = (
{
layerId = "522FD917-7CD6-43A0-922F-6555542696CE";
shapes = (
{
closed = 1;
nodes = (
(187,0,l),
(690,720,l),
(571,720,l),
(68,0,l)
);
},
{
closed = 1;
nodes = (
(644,-10,o),
(719,48,o),
(719,173,cs),
(719,296,o),
(648,355,o),
(561,355,cs),
(477,355,o),
(406,297,o),
(406,173,cs),
(406,48,o),
(479,-10,o),
(561,-10,cs)
);
},
{
closed = 1;
nodes = (
(523,82,o),
(499,113,o),
(499,174,cs),
(499,231,o),
(523,262,o),
(561,262,cs),
(598,262,o),
(625,230,o),
(625,174,cs),
(625,114,o),
(597,82,o),
(561,82,cs)
);
},
{
closed = 1;
nodes = (
(273,365,o),
(346,423,o),
(346,548,cs),
(346,672,o),
(276,730,o),
(190,730,cs),
(106,730,o),
(34,672,o),
(34,548,cs),
(34,423,o),
(107,365,o),
(190,365,cs)
);
},
{
closed = 1;
nodes = (
(152,457,o),
(128,488,o),
(128,549,cs),
(128,607,o),
(152,637,o),
(190,637,cs),
(227,637,o),
(254,605,o),
(254,549,cs),
(254,489,o),
(226,457,o),
(190,457,cs)
);
}
);
width = 753;
},
{
layerId = "AF447C8E-6A86-4BB0-AFAA-0E31F633710F";
shapes = (
{
closed = 1;
nodes = (
(151,0,l),
(678,720,l),
(606,720,l),
(80,0,l)
);
},
{
closed = 1;
nodes = (
(644,-10,o),
(719,48,o),
(719,173,cs),
(719,296,o),
(648,355,o),
(561,355,cs),
(477,355,o),
(406,297,o),
(406,173,cs),
(406,48,o),
(479,-10,o),
(561,-10,cs)
);
},
{
closed = 1;
nodes = (
(506,38,o),
(469,86,o),
(469,174,cs),
(469,262,o),
(506,308,o),
(561,308,cs),
(617,308,o),
(655,261,o),
(655,174,cs),
(655,87,o),
(616,38,o),
(561,38,cs)
);
},
{
closed = 1;
nodes = (
(273,365,o),
(346,423,o),
(346,548,cs),
(346,672,o),
(276,730,o),
(190,730,cs),
(106,730,o),
(34,672,o),
(34,548,cs),
(34,423,o),
(107,365,o),
(190,365,cs)
);
},
{
closed = 1;
nodes = (
(134,413,o),
(97,461,o),
(97,549,cs),
(97,637,o),
(134,683,o),
(190,683,cs),
(245,683,o),
(283,636,o),
(283,549,cs),
(283,461,o),
(244,413,o),
(190,413,cs)
);
}
);
width = 753;
},
{
layerId = "7706EA0A-ADAC-4E76-A745-8A9A965DB998";
shapes = (
{
closed = 1;
nodes = (
(157,0,l),
(680,720,l),
(600,720,l),
(78,0,l)
);
},
{
closed = 1;
nodes = (
(644,-10,o),
(719,48,o),
(719,173,cs),
(719,296,o),
(648,355,o),
(561,355,cs),
(477,355,o),
(406,297,o),
(406,173,cs),
(406,48,o),
(479,-10,o),
(561,-10,cs)
);
},
{
closed = 1;
nodes = (
(509,45,o),
(474,90,o),
(474,174,cs),
(474,257,o),
(509,300,o),
(561,300,cs),
(614,300,o),
(650,256,o),
(650,174,cs),
(650,91,o),
(613,45,o),
(561,45,cs)
);
},
{
closed = 1;
nodes = (
(273,365,o),
(346,423,o),
(346,548,cs),
(346,672,o),
(276,730,o),
(190,730,cs),
(106,730,o),
(34,672,o),
(34,548,cs),
(34,423,o),
(107,365,o),
(190,365,cs)
);
},
{
closed = 1;
nodes = (
(137,420,o),
(102,465,o),
(102,549,cs),
(102,632,o),
(137,675,o),
(190,675,cs),
(242,675,o),
(278,631,o),
(278,549,cs),
(278,465,o),
(241,420,o),
(190,420,cs)
);
}
);
width = 753;
}
);
unicode = 37;
userData = {
KernOnSpecialSpacing = {
L = "spaced-off";
};
};
}
{
glyphname = ampersand;
layers = (
{
layerId = "522FD917-7CD6-43A0-922F-6555542696CE";
shapes = (
{
closed = 1;
nodes = (
(749,0,l),
(362,419,ls),
(279,509,o),
(270,534,o),
(270,563,cs),
(270,589,o),
(287,619,o),
(332,619,cs),
(377,619,o),
(395,591,o),
(395,557,cs),
(395,515,o),
(369,477,o),
(292,445,c),
(362,351,l),
(475,393,o),
(537,467,o),
(537,552,cs),
(537,661,o),
(448,730,o),
(326,730,cs),
(203,730,o),
(119,654,o),
(119,561,cs),
(119,508,o),
(132,471,o),
(195,399,cs),
(545,0,l)
);
},
{
closed = 1;
nodes = (
(530,-10,o),
(705,159,o),
(705,388,c),
(553,388,l),
(553,189,o),
(428,120,o),
(316,120,cs),
(230,120,o),
(181,155,o),
(181,212,cs),
(181,259,o),
(206,295,o),
(318,340,c),
(243,435,l),
(92,380,o),
(18,309,o),
(18,197,cs),
(18,77,o),
(130,-10,o),
(299,-10,cs)
);
}
);
width = 755;
},
{
layerId = "AF447C8E-6A86-4BB0-AFAA-0E31F633710F";
shapes = (
{
closed = 1;
nodes = (
(674,0,l),
(280,427,ls),
(213,500,o),
(193,532,o),
(193,575,cs),
(193,639,o),
(240,673,o),
(300,673,cs),
(361,673,o),
(414,638,o),
(414,575,cs),
(414,513,o),
(356,465,o),
(254,437,c),
(287,394,l),
(417,441,o),
(475,503,o),
(475,581,cs),
(475,672,o),
(399,730,o),
(304,730,cs),
(202,730,o),
(129,667,o),
(129,577,cs),
(129,521,o),
(158,470,o),
(219,404,cs),
(594,0,l)
);
},
{
closed = 1;
nodes = (
(463,-10,o),
(605,117,o),
(605,388,c),
(542,388,l),
(542,168,o),
(453,46,o),
(289,46,cs),
(178,46,o),
(107,105,o),
(107,211,cs),
(107,301,o),
(170,361,o),
(274,387,c),
(240,427,l),
(121,397,o),
(45,309,o),
(45,204,cs),
(45,73,o),
(143,-10,o),
(288,-10,cs)
);
}
);
width = 697;
},
{
layerId = "7706EA0A-ADAC-4E76-A745-8A9A965DB998";
shapes = (
{
closed = 1;
nodes = (
(691,0,l),
(299,425,ls),
(229,500,o),
(210,532,o),
(210,573,cs),
(210,631,o),
(252,664,o),
(310,664,cs),
(368,664,o),
(415,630,o),
(415,572,cs),
(415,513,o),
(363,467,o),
(265,438,c),
(304,387,l),
(431,433,o),
(490,497,o),
(490,576,cs),
(490,670,o),
(412,730,o),
(312,730,cs),
(207,730,o),
(132,665,o),
(132,574,cs),
(132,519,o),
(158,470,o),
(220,403,cs),
(590,0,l)
);
},
{
closed = 1;
nodes = (
(479,-10,o),
(626,124,o),
(626,388,c),
(548,388,l),
(548,171,o),
(453,58,o),
(298,58,cs),
(191,58,o),
(124,113,o),
(124,211,cs),
(124,294,o),
(181,350,o),
(286,379,c),
(245,428,l),
(121,394,o),
(45,309,o),
(45,203,cs),
(45,74,o),
(145,-10,o),
(294,-10,cs)
);
}
);
width = 714;
}
);
unicode = 38;
userData = {
KernOnSpecialSpacing = {
L = symbols;
R = symbols;
};
};
}
{
glyphname = quotesingle;
kernLeft = KO_quotedbl;
kernRight = KO_quotedbl;
layers = (
{
layerId = "522FD917-7CD6-43A0-922F-6555542696CE";
shapes = (
{
closed = 1;
nodes = (
(161,407,l),
(202,540,ls),
(218,592,o),
(226,624,o),
(226,661,cs),
(226,697,o),
(202,750,o),
(138,750,cs),
(71,750,o),
(47,697,o),
(47,661,cs),
(47,625,o),
(55,592,o),
(72,538,cs),
(113,407,l)
);
}
);
width = 273;
},
{
layerId = "AF447C8E-6A86-4BB0-AFAA-0E31F633710F";
shapes = (
{
closed = 1;
nodes = (
(118,514,l),
(138,633,ls),
(143,663,o),
(145,687,o),
(145,703,cs),
(145,734,o),
(127,750,o),
(103,750,cs),
(82,750,o),
(64,734,o),
(64,703,cs),
(64,688,o),
(65,667,o),
(70,635,cs),
(89,514,l)
);
}
);
width = 209;
},
{
layerId = "7706EA0A-ADAC-4E76-A745-8A9A965DB998";
shapes = (
{
closed = 1;
nodes = (
(128,496,l),
(152,619,ls),
(158,652,o),
(161,677,o),
(161,696,cs),
(161,728,o),
(142,750,o),
(112,750,cs),
(83,750,o),
(64,728,o),
(64,696,cs),
(64,677,o),
(67,652,o),
(73,619,cs),
(96,496,l)
);
}
);
width = 225;
}
);
metricRight = "=|";
unicode = 39;
userData = {
KernOnSpecialSpacing = {
L = quotes;
R = quotes;
};
};
}
{
glyphname = parenleft;
kernLeft = KO_parenleft;
kernRight = KO_parenleft;
layers = (
{
layerId = "522FD917-7CD6-43A0-922F-6555542696CE";
shapes = (
{
closed = 1;
nodes = (
(419,-110,l),
(295,15,o),
(226,159,o),
(226,320,cs),
(226,478,o),
(291,623,o),
(419,750,c),
(259,750,l),
(131,624,o),
(68,471,o),
(68,320,cs),
(68,167,o),
(130,15,o),
(259,-110,c)
);
}
);
width = 457;
},
{
layerId = "AF447C8E-6A86-4BB0-AFAA-0E31F633710F";
shapes = (
{
closed = 1;
nodes = (
(327,-110,l),
(199,17,o),
(133,159,o),
(133,320,cs),
(133,480,o),
(197,623,o),
(327,750,c),
(270,750,l),
(141,624,o),
(78,471,o),
(78,320,cs),
(78,167,o),
(140,15,o),
(270,-110,c)
);
}
);
width = 375;
},
{
layerId = "7706EA0A-ADAC-4E76-A745-8A9A965DB998";
shapes = (
{
closed = 1;
nodes = (
(344,-110,l),
(217,16,o),
(150,159,o),
(150,320,cs),
(150,479,o),
(214,623,o),
(344,750,c),
(270,750,l),
(141,624,o),
(78,471,o),
(78,320,cs),
(78,167,o),
(140,15,o),
(270,-110,c)
);
}
);
width = 392;
}
);
unicode = 40;
userData = {
KernOnSpecialSpacing = {
R = parenthesis;
};
};
}
{
glyphname = asterisk;
kernLeft = KO_asterisk;
kernRight = KO_asterisk;
layers = (
{
layerId = "522FD917-7CD6-43A0-922F-6555542696CE";
shapes = (
{
closed = 1;
nodes = (
(293,400,l),
(265,502,l),
(340,425,l),
(409,544,l),
(305,570,l),
(409,596,l),
(340,715,l),
(265,639,l),
(293,740,l),
(154,740,l),
(183,639,l),
(108,715,l),
(38,596,l),
(144,570,l),
(38,544,l),
(108,425,l),
(183,502,l),
(154,400,l)
);
}
);
width = 447;
},
{
layerId = "AF447C8E-6A86-4BB0-AFAA-0E31F633710F";
shapes = (
{
closed = 1;
nodes = (
(223,446,l),
(203,575,l),
(312,495,l),
(340,543,l),
(214,592,l),
(340,643,l),
(312,691,l),
(203,610,l),
(223,740,l),
(165,740,l),
(185,610,l),
(76,691,l),
(48,643,l),
(172,592,l),
(48,543,l),
(76,495,l),
(185,575,l),
(165,446,l)
);
}
);
width = 388;
},
{
layerId = "7706EA0A-ADAC-4E76-A745-8A9A965DB998";
shapes = (
{
closed = 1;
nodes = (
(236,438,l),
(215,563,l),
(318,483,l),
(353,543,l),
(231,588,l),
(353,635,l),
(318,695,l),
(215,615,l),
(236,740,l),
(165,740,l),
(186,615,l),
(83,695,l),
(48,635,l),
(169,588,l),
(48,543,l),
(83,483,l),
(186,563,l),
(165,438,l)
);
}
);
width = 401;
}
);
unicode = 42;
userData = {
KernOnSpecialSpacing = {
L = quotes;
R = quotes;
};
};
}
{
glyphname = plus;
kernLeft = KO_plus;
kernRight = KO_plus;
layers = (
{
layerId = "522FD917-7CD6-43A0-922F-6555542696CE";
shapes = (
{
closed = 1;
nodes = (
(341,128,l),
(341,615,l),
(221,615,l),
(221,128,l)
);
},
{
closed = 1;
nodes = (
(511,313,l),
(511,429,l),
(50,429,l),
(50,313,l)
);
}
);
width = 561;
},
{
layerId = "AF447C8E-6A86-4BB0-AFAA-0E31F633710F";
shapes = (
{
closed = 1;
nodes = (
(290,158,l),
(290,585,l),
(232,585,l),
(232,158,l)
);
},
{
closed = 1;
nodes = (
(461,343,l),
(461,399,l),
(60,399,l),
(60,343,l)
);
}
);
width = 521;
},
{
layerId = "7706EA0A-ADAC-4E76-A745-8A9A965DB998";
shapes = (
{
closed = 1;
nodes = (
(300,153,l),
(300,590,l),
(232,590,l),
(232,153,l)
);
},
{
closed = 1;
nodes = (
(471,338,l),
(471,404,l),
(60,404,l),
(60,338,l)
);
}
);
width = 531;
}
);
unicode = 43;
userData = {
KernOnSpecialSpacing = {
L = math;
R = math;
};
};
}
{
glyphname = comma;
kernLeft = KO_period.ss01;
kernRight = KO_period.ss01;
layers = (
{
layerId = "522FD917-7CD6-43A0-922F-6555542696CE";
shapes = (
{
closed = 1;
nodes = (
(186,-141,o),
(236,-56,o),
(236,53,c),
(236,180,l),
(56,180,l),
(56,0,l),
(206,0,l),
(140,19,l),
(140,-36,o),
(128,-73,o),
(59,-92,c),
(59,-172,l)
);
}
);
width = 292;
},
{
layerId = "AF447C8E-6A86-4BB0-AFAA-0E31F633710F";
shapes = (
{
closed = 1;
nodes = (
(130,-116,o),
(157,-64,o),
(157,15,c),
(157,84,l),
(75,84,l),
(75,0,l),
(145,0,l),
(123,0,l),
(123,-65,o),
(107,-89,o),
(74,-103,c),
(74,-135,l)
);
}
);
width = 231;
},
{
layerId = "7706EA0A-ADAC-4E76-A745-8A9A965DB998";
shapes = (
{
closed = 1;
nodes = (
(142,-120,o),
(173,-63,o),
(173,21,c),
(173,100,l),
(74,100,l),
(74,0,l),
(158,0,l),
(128,3,l),
(128,-60,o),
(113,-86,o),
(74,-101,c),
(74,-141,l)
);
}
);
width = 247;
}
);
unicode = 44;
}
{
glyphname = hyphen;
kernLeft = KO_hyphen;
kernRight = KO_hyphen;
layers = (
{
layerId = "522FD917-7CD6-43A0-922F-6555542696CE";
shapes = (
{
closed = 1;
nodes = (
(408,206,l),
(408,338,l),
(57,338,l),
(57,206,l)
);
}
);
width = 465;
},
{
layerId = "AF447C8E-6A86-4BB0-AFAA-0E31F633710F";
shapes = (
{
closed = 1;
nodes = (
(396,241,l),
(396,303,l),
(77,303,l),
(77,241,l)
);
}
);
width = 473;
},
{
layerId = "7706EA0A-ADAC-4E76-A745-8A9A965DB998";
shapes = (
{
closed = 1;
nodes = (
(401,235,l),
(401,309,l),
(77,309,l),
(77,235,l)
);
}
);
width = 478;
}
);
metricRight = "=|";
unicode = 45;
userData = {
KernOnName = hyphen;
KernOnSpecialSpacing = {
L = hyphen;
R = hyphen;
};
};
}
{
glyphname = period;
kernLeft = KO_period.ss01;
kernRight = KO_period.ss01;
layers = (
{
layerId = "522FD917-7CD6-43A0-922F-6555542696CE";
shapes = (
{
closed = 1;
nodes = (
(236,0,l),
(236,180,l),
(56,180,l),
(56,0,l)
);
}
);
width = 292;
},
{
layerId = "AF447C8E-6A86-4BB0-AFAA-0E31F633710F";
shapes = (
{
closed = 1;
nodes = (
(158,0,l),
(158,85,l),
(73,85,l),
(73,0,l)
);
}
);
width = 231;
},
{
layerId = "7706EA0A-ADAC-4E76-A745-8A9A965DB998";
shapes = (
{
closed = 1;
nodes = (
(174,0,l),
(174,101,l),
(73,101,l),
(73,0,l)
);
}
);
width = 247;
}
);
unicode = 46;
}
{
glyphname = slash;
kernLeft = KO_slash;
kernRight = KO_slash;
layers = (
{
layerId = "522FD917-7CD6-43A0-922F-6555542696CE";
shapes = (
{
closed = 1;
nodes = (
(169,-85,l),
(407,775,l),
(266,775,l),
(27,-85,l)
);
}
);
width = 434;
},
{
layerId = "AF447C8E-6A86-4BB0-AFAA-0E31F633710F";
shapes = (
{
closed = 1;
nodes = (
(110,-55,l),
(333,745,l),
(279,745,l),
(57,-55,l)
);
}
);
width = 390;
},
{
layerId = "7706EA0A-ADAC-4E76-A745-8A9A965DB998";
shapes = (
{
closed = 1;
nodes = (
(125,-60,l),
(350,750,l),
(282,750,l),
(57,-60,l)
);
}
);
width = 407;
}
);
unicode = 47;
userData = {
KernOnSpecialSpacing = {
L = slash;
R = slash;
};
};
}
{
glyphname = zero;
kernLeft = KO_zero;
kernRight = KO_zero;
layers = (
{
layerId = "522FD917-7CD6-43A0-922F-6555542696CE";
shapes = (
{
closed = 1;
nodes = (
(503,-10,o),
(629,133,o),
(629,363,cs),
(629,591,o),
(504,730,o),
(329,730,cs),
(154,730,o),
(30,590,o),
(30,363,cs),
(30,134,o),
(155,-10,o),
(329,-10,cs)
);
},
{
closed = 1;
nodes = (
(245,127,o),
(206,229,o),
(206,364,cs),
(206,496,o),
(243,592,o),
(329,592,cs),
(414,592,o),
(453,497,o),
(453,364,cs),
(453,228,o),
(413,127,o),
(329,127,cs)
);
}
);
width = 659;
},
{
layerId = "AF447C8E-6A86-4BB0-AFAA-0E31F633710F";
shapes = (
{
closed = 1;
nodes = (
(460,-10,o),
(563,137,o),
(563,363,cs),
(563,586,o),
(461,730,o),
(305,730,cs),
(149,730,o),
(48,586,o),
(48,363,cs),
(48,138,o),
(150,-10,o),
(305,-10,cs)
);
},
{
closed = 1;
nodes = (
(189,47,o),
(116,156,o),
(116,364,cs),
(116,569,o),
(187,674,o),
(305,674,cs),
(424,674,o),
(494,569,o),
(494,364,cs),
(494,158,o),
(423,47,o),
(305,47,cs)
);
}
);
width = 611;
},
{
layerId = "7706EA0A-ADAC-4E76-A745-8A9A965DB998";
shapes = (
{
closed = 1;
nodes = (
(470,-10,o),
(577,136,o),
(577,363,cs),
(577,587,o),
(471,730,o),
(312,730,cs),
(153,730,o),
(48,587,o),
(48,363,cs),
(48,137,o),
(154,-10,o),
(312,-10,cs)
);
},
{
closed = 1;
nodes = (
(201,60,o),
(134,168,o),
(134,364,cs),
(134,556,o),
(199,660,o),
(312,660,cs),
(425,660,o),
(490,557,o),
(490,364,cs),
(490,169,o),
(424,60,o),
(312,60,cs)
);
}
);
width = 625;
}
);
unicode = 48;
}
{
glyphname = one;
kernLeft = KO_one;
kernRight = KO_one;
layers = (
{
layerId = "522FD917-7CD6-43A0-922F-6555542696CE";
shapes = (
{
closed = 1;
nodes = (
(340,0,l),
(340,720,l),
(201,720,l),
(170,665,o),
(83,607,o),
(12,597,c),
(12,431,l),
(100,448,o),
(164,496,o),
(196,563,c),
(176,590,l),
(176,0,l)
);
}
);
width = 390;
},
{
layerId = "AF447C8E-6A86-4BB0-AFAA-0E31F633710F";
shapes = (
{
closed = 1;
nodes = (
(276,0,l),
(276,720,l),
(235,720,l),
(202,653,o),
(123,601,o),
(27,584,c),
(27,526,l),
(115,539,o),
(209,598,o),
(235,647,c),
(216,650,l),
(216,0,l)
);
}
);
width = 359;
},
{
layerId = "7706EA0A-ADAC-4E76-A745-8A9A965DB998";
shapes = (
{
closed = 1;
nodes = (
(289,0,l),
(289,720,l),
(232,720,l),
(199,655,o),
(119,602,o),
(27,586,c),
(27,510,l),
(115,524,o),
(204,581,o),
(231,633,c),
(212,640,l),
(212,0,l)
);
}
);
width = 372;
}
);
metricRight = H;
unicode = 49;
userData = {
KernOnName = one;
};
}
{
glyphname = two;
kernLeft = KO_two.ss11;
kernRight = KO_two.ss11;
layers = (
{
layerId = "522FD917-7CD6-43A0-922F-6555542696CE";
shapes = (
{
closed = 1;
nodes = (
(532,0,l),
(532,127,l),
(171,127,l),
(210,78,l),
(445,274,o),
(518,380,o),
(518,508,cs),
(518,648,o),
(428,730,o),
(278,730,cs),
(129,730,o),
(29,648,o),
(17,510,c),
(183,510,l),
(189,567,o),
(222,602,o),
(271,602,cs),
(315,602,o),
(341,573,o),
(341,521,cs),
(341,422,o),
(263,334,o),
(26,125,c),
(26,0,l)
);
}
);
width = 548;
},
{
layerId = "AF447C8E-6A86-4BB0-AFAA-0E31F633710F";
shapes = (
{
closed = 1;
nodes = (
(477,0,l),
(477,59,l),
(87,59,l),
(102,36,l),
(362,265,o),
(467,400,o),
(467,538,cs),
(467,656,o),
(388,730,o),
(264,730,cs),
(130,730,o),
(44,642,o),
(34,514,c),
(99,514,l),
(110,617,o),
(167,672,o),
(259,672,cs),
(348,672,o),
(400,621,o),
(400,534,cs),
(400,423,o),
(311,298,o),
(42,57,c),
(42,0,l)
);
}
);
width = 505;
},
{
layerId = "7706EA0A-ADAC-4E76-A745-8A9A965DB998";
shapes = (
{
closed = 1;
nodes = (
(489,0,l),
(489,70,l),
(104,70,l),
(123,43,l),
(379,267,o),
(478,397,o),
(478,533,cs),
(478,655,o),
(397,730,o),
(269,730,cs),
(133,730,o),
(44,643,o),
(34,513,c),
(116,513,l),
(126,608,o),
(179,660,o),
(264,660,cs),
(345,660,o),
(393,613,o),
(393,532,cs),
(393,423,o),
(306,304,o),
(42,68,c),
(42,0,l)
);
}
);
width = 517;
}
);
unicode = 50;
}
{
glyphname = three;
kernLeft = KO_three;
kernRight = KO_three;
layers = (
{
layerId = "522FD917-7CD6-43A0-922F-6555542696CE";
shapes = (
{
closed = 1;
nodes = (
(434,-10,o),
(544,70,o),
(544,202,cs),
(544,305,o),
(483,390,o),
(385,390,c),
(385,369,l),
(447,369,o),
(525,440,o),
(525,538,cs),
(525,656,o),
(434,730,o),
(286,730,cs),
(136,730,o),
(41,644,o),
(27,508,c),
(193,508,l),
(200,572,o),
(234,602,o),
(279,602,cs),
(334,602,o),
(350,569,o),
(350,526,cs),
(350,474,o),
(325,437,o),
(251,437,cs),
(198,437,l),
(198,312,l),
(254,312,ls),
(340,312,o),
(367,271,o),
(367,211,cs),
(367,148,o),
(330,117,o),
(282,117,cs),
(223,117,o),
(192,150,o),
(184,232,c),
(20,232,l),
(29,75,o),
(138,-10,o),
(289,-10,cs)
);
}
);
width = 567;
},
{
layerId = "AF447C8E-6A86-4BB0-AFAA-0E31F633710F";
shapes = (
{
closed = 1;
nodes = (
(402,-10,o),
(490,71,o),
(490,191,cs),
(490,309,o),
(410,390,o),
(289,390,c),
(296,369,l),
(405,369,o),
(475,437,o),
(475,544,cs),
(475,657,o),
(391,730,o),
(273,730,cs),
(148,730,o),
(56,649,o),
(49,524,c),
(115,524,l),
(123,619,o),
(186,672,o),
(271,672,cs),
(352,672,o),
(409,626,o),
(409,538,cs),
(409,456,o),
(356,406,o),
(281,406,cs),
(196,406,l),
(196,349,l),
(284,349,ls),
(364,349,o),
(422,286,o),
(422,192,cs),
(422,104,o),
(366,49,o),
(275,49,cs),
(178,49,o),
(117,109,o),
(104,214,c),
(38,214,l),
(52,71,o),
(138,-10,o),
(272,-10,cs)
);
}
);
width = 529;
},
{
layerId = "7706EA0A-ADAC-4E76-A745-8A9A965DB998";
shapes = (
{
closed = 1;
nodes = (
(411,-10,o),
(502,71,o),
(502,193,cs),
(502,309,o),
(425,390,o),
(308,390,c),
(314,369,l),
(415,369,o),
(486,438,o),
(486,543,cs),
(486,657,o),
(401,730,o),
(278,730,cs),
(149,730,o),
(56,648,o),
(48,521,c),
(131,521,l),
(139,611,o),
(197,660,o),
(275,660,cs),
(352,660,o),
(402,616,o),
(402,536,cs),
(402,459,o),
(354,411,o),
(279,411,cs),
(199,411,l),
(199,343,l),
(282,343,ls),
(363,343,o),
(416,284,o),
(416,195,cs),
(416,111,o),
(363,60,o),
(279,60,cs),
(188,60,o),
(132,116,o),
(120,217,c),
(38,217,l),
(51,72,o),
(141,-10,o),
(278,-10,cs)
);
}
);
width = 541;
}
);
unicode = 51;
}
{
glyphname = four;
kernLeft = KO_four;
kernRight = KO_four;
layers = (
{
layerId = "522FD917-7CD6-43A0-922F-6555542696CE";
shapes = (
{
closed = 1;
nodes = (
(515,0,l),
(515,720,l),
(348,720,l),
(21,256,l),
(21,127,l),
(580,127,l),
(580,254,l),
(91,254,l),
(157,205,l),
(423,579,l),
(355,612,l),
(355,208,l),
(345,188,l),
(345,0,l)
);
}
);
width = 598;
},
{
layerId = "AF447C8E-6A86-4BB0-AFAA-0E31F633710F";
shapes = (
{
closed = 1;
nodes = (
(429,0,l),
(429,720,l),
(369,720,l),
(31,218,l),
(31,173,l),
(524,173,l),
(524,230,l),
(82,230,l),
(99,203,l),
(379,619,l),
(365,612,l),
(365,208,l),
(365,188,l),
(365,0,l)
);
}
);
width = 552;
},
{
layerId = "7706EA0A-ADAC-4E76-A745-8A9A965DB998";
shapes = (
{
closed = 1;
nodes = (
(445,0,l),
(445,720,l),
(367,720,l),
(31,224,l),
(31,165,l),
(535,165,l),
(535,234,l),
(85,234,l),
(110,203,l),
(388,612,l),
(365,612,l),
(365,208,l),
(363,188,l),
(363,0,l)
);
}
);
width = 563;
}
);
unicode = 52;
}
{
glyphname = five;
kernLeft = KO_five;
kernRight = KO_five;
layers = (
{
layerId = "522FD917-7CD6-43A0-922F-6555542696CE";
shapes = (
{
closed = 1;
nodes = (
(442,-10,o),
(543,81,o),
(543,239,cs),
(543,384,o),
(457,480,o),
(324,480,cs),
(252,480,o),
(207,452,o),
(175,400,c),
(228,395,l),
(245,613,l),
(151,592,l),
(502,592,l),
(502,720,l),
(95,720,l),
(60,311,l),
(212,311,l),
(232,350,o),
(259,361,o),
(287,361,cs),
(339,361,o),
(367,318,o),
(367,240,cs),
(367,157,o),
(335,117,o),
(282,117,cs),
(236,117,o),
(195,153,o),
(189,213,c),
(24,213,l),
(42,70,o),
(141,-10,o),
(287,-10,cs)
);
}
);
width = 570;
},
{
layerId = "AF447C8E-6A86-4BB0-AFAA-0E31F633710F";
shapes = (
{
closed = 1;
nodes = (
(406,-10,o),
(493,76,o),
(493,227,cs),
(493,381,o),
(402,466,o),
(276,466,cs),
(204,466,o),
(151,433,o),
(131,398,c),
(142,395,l),
(162,691,l),
(152,662,l),
(455,662,l),
(455,720,l),
(103,720,l),
(76,341,l),
(128,341,l),
(142,378,o),
(193,413,o),
(264,413,cs),
(357,413,o),
(425,354,o),
(425,227,cs),
(425,102,o),
(355,49,o),
(269,49,cs),
(184,49,o),
(126,99,o),
(110,196,c),
(42,196,l),
(58,73,o),
(136,-10,o),
(270,-10,cs)
);
}
);
width = 533;
},
{
layerId = "7706EA0A-ADAC-4E76-A745-8A9A965DB998";
shapes = (
{
closed = 1;
nodes = (
(415,-10,o),
(504,77,o),
(504,229,cs),
(504,381,o),
(414,468,o),
(287,468,cs),
(215,468,o),
(163,436,o),
(141,398,c),
(159,395,l),
(179,678,l),
(155,650,l),
(466,650,l),
(466,720,l),
(105,720,l),
(76,336,l),
(145,336,l),
(160,373,o),
(207,404,o),
(271,404,cs),
(357,404,o),
(418,347,o),
(418,229,cs),
(418,111,o),
(355,60,o),
(274,60,cs),
(195,60,o),
(140,109,o),
(126,199,c),
(42,199,l),
(58,73,o),
(140,-10,o),
(276,-10,cs)
);
}
);
width = 544;
}
);
unicode = 53;
}
{
glyphname = six;
kernLeft = KO_zero;
kernRight = KO_six;
layers = (
{
layerId = "522FD917-7CD6-43A0-922F-6555542696CE";
shapes = (
{
closed = 1;
nodes = (
(481,-10,o),
(584,84,o),
(584,229,cs),
(584,366,o),
(494,454,o),
(360,454,cs),
(259,454,o),
(192,400,o),
(170,308,c),
(203,297,l),
(203,354,ls),
(203,526,o),
(241,602,o),
(326,602,cs),
(372,602,o),
(405,573,o),
(410,520,c),
(574,520,l),
(556,653,o),
(465,730,o),
(328,730,cs),
(144,730,o),
(30,584,o),
(30,342,cs),
(30,116,o),
(134,-10,o),
(319,-10,cs)
);
},
{
closed = 1;
nodes = (
(250,117,o),
(200,154,o),
(200,226,cs),
(200,297,o),
(244,333,o),
(304,333,cs),
(360,333,o),
(408,299,o),
(408,226,cs),
(408,152,o),
(363,117,o),
(306,117,cs)
);
}
);
width = 609;
},
{
layerId = "AF447C8E-6A86-4BB0-AFAA-0E31F633710F";
shapes = (
{
closed = 1;
nodes = (
(422,-10,o),
(513,79,o),
(513,217,cs),
(513,356,o),
(428,452,o),
(301,452,cs),
(203,452,o),
(115,391,o),
(99,301,c),
(117,295,l),
(117,354,ls),
(117,566,o),
(178,672,o),
(295,672,cs),
(371,672,o),
(422,625,o),
(433,536,c),
(501,536,l),
(488,658,o),
(410,730,o),
(297,730,cs),
(139,730,o),
(48,595,o),
(48,352,cs),
(48,115,o),
(133,-10,o),
(289,-10,cs)
);
},
{
closed = 1;
nodes = (
(199,49,o),
(132,122,o),
(132,230,cs),
(132,332,o),
(199,394,o),
(292,394,cs),
(391,394,o),
(445,328,o),
(445,219,cs),
(445,114,o),
(387,49,o),
(295,49,cs)
);
}
);
width = 551;
},
{
layerId = "7706EA0A-ADAC-4E76-A745-8A9A965DB998";
shapes = (
{
closed = 1;
nodes = (
(435,-10,o),
(528,80,o),
(528,219,cs),
(528,358,o),
(442,452,o),
(314,452,cs),
(215,452,o),
(131,392,o),
(114,302,c),
(134,295,l),
(134,354,ls),
(134,559,o),
(191,660,o),
(303,660,cs),
(374,660,o),
(422,616,o),
(432,533,c),
(516,533,l),
(502,657,o),
(422,730,o),
(305,730,cs),
(143,730,o),
(48,594,o),
(48,350,cs),
(48,115,o),
(136,-10,o),
(297,-10,cs)
);
},
{
closed = 1;
nodes = (
(210,60,o),
(146,127,o),
(146,229,cs),
(146,326,o),
(209,384,o),
(297,384,cs),
(389,384,o),
(442,323,o),
(442,220,cs),
(442,120,o),
(386,60,o),
(300,60,cs)
);
}
);
width = 566;
}
);
unicode = 54;
}
{
glyphname = seven;
kernLeft = KO_seven;
kernRight = KO_seven;
layers = (
{
layerId = "522FD917-7CD6-43A0-922F-6555542696CE";
shapes = (
{
closed = 1;
nodes = (
(312,0,l),
(331,232,o),
(415,423,o),
(537,598,c),
(537,720,l),
(22,720,l),
(22,592,l),
(396,592,l),
(380,609,l),
(250,449,o),
(156,237,o),
(135,0,c)
);
}
);
width = 555;
},
{
layerId = "AF447C8E-6A86-4BB0-AFAA-0E31F633710F";
shapes = (
{
closed = 1;
nodes = (
(232,0,l),
(246,220,o),
(312,430,o),
(470,675,c),
(470,720,l),
(22,720,l),
(22,662,l),
(427,662,l),
(421,693,l),
(248,448,o),
(174,225,o),
(158,0,c)
);
}
);
width = 491;
},
{
layerId = "7706EA0A-ADAC-4E76-A745-8A9A965DB998";
shapes = (
{
closed = 1;
nodes = (
(245,0,l),
(260,222,o),
(329,429,o),
(481,662,c),
(481,720,l),
(22,720,l),
(22,650,l),
(422,650,l),
(414,679,l),
(248,448,o),
(171,227,o),
(154,0,c)
);
}
);
width = 502;
}
);
unicode = 55;
}
{
glyphname = eight;
kernLeft = KO_eight;
kernRight = KO_eight;
layers = (
{
layerId = "522FD917-7CD6-43A0-922F-6555542696CE";
shapes = (
{
closed = 1;
nodes = (
(454,-10,o),
(564,74,o),
(564,204,cs),
(564,312,o),
(491,390,o),
(382,390,c),
(363,369,l),
(481,369,o),
(544,429,o),
(544,531,cs),
(544,652,o),
(448,730,o),
(296,730,cs),
(144,730,o),
(47,652,o),
(47,531,cs),
(47,429,o),
(111,369,o),
(228,369,c),
(210,390,l),
(101,390,o),
(27,313,o),
(27,205,cs),
(27,76,o),
(138,-10,o),
(297,-10,cs)
);
},
{
closed = 1;
nodes = (
(238,117,o),
(204,152,o),
(204,217,cs),
(204,280,o),
(240,315,o),
(296,315,cs),
(351,315,o),
(388,280,o),
(388,217,cs),
(388,153,o),
(353,117,o),
(296,117,cs)
);
},
{
closed = 1;
nodes = (
(254,433,o),
(222,465,o),
(222,519,cs),
(222,570,o),
(251,602,o),
(295,602,cs),
(340,602,o),
(369,572,o),
(369,519,cs),
(369,465,o),
(338,433,o),
(296,433,cs)
);
}
);
width = 592;
},
{
layerId = "AF447C8E-6A86-4BB0-AFAA-0E31F633710F";
shapes = (
{
closed = 1;
nodes = (
(408,-10,o),
(494,78,o),
(494,193,cs),
(494,303,o),
(417,390,o),
(324,390,c),
(325,369,l),
(411,369,o),
(479,447,o),
(479,544,cs),
(479,652,o),
(392,730,o),
(269,730,cs),
(145,730,o),
(57,652,o),
(57,543,cs),
(57,447,o),
(125,369,o),
(211,369,c),
(212,390,l),
(118,390,o),
(42,301,o),
(42,193,cs),
(42,77,o),
(128,-10,o),
(268,-10,cs)
);
},
{
closed = 1;
nodes = (
(171,49,o),
(109,108,o),
(109,199,cs),
(109,290,o),
(168,349,o),
(268,349,cs),
(367,349,o),
(427,290,o),
(427,199,cs),
(427,108,o),
(366,49,o),
(268,49,cs)
);
},
{
closed = 1;
nodes = (
(179,407,o),
(124,458,o),
(124,537,cs),
(124,619,o),
(180,672,o),
(268,672,cs),
(354,672,o),
(412,619,o),
(412,537,cs),
(412,459,o),
(358,407,o),
(268,407,cs)
);
}
);
width = 536;
},
{
layerId = "7706EA0A-ADAC-4E76-A745-8A9A965DB998";
shapes = (
{
closed = 1;
nodes = (
(418,-10,o),
(508,77,o),
(508,195,cs),
(508,304,o),
(432,390,o),
(336,390,c),
(334,369,l),
(425,369,o),
(492,444,o),
(492,542,cs),
(492,652,o),
(404,730,o),
(276,730,cs),
(147,730,o),
(58,652,o),
(58,541,cs),
(58,444,o),
(125,369,o),
(216,369,c),
(214,390,l),
(118,390,o),
(42,304,o),
(42,195,cs),
(42,77,o),
(132,-10,o),
(275,-10,cs)
);
},
{
closed = 1;
nodes = (
(184,60,o),
(127,115,o),
(127,202,cs),
(127,288,o),
(182,343,o),
(275,343,cs),
(367,343,o),
(423,288,o),
(423,202,cs),
(423,115,o),
(366,60,o),
(275,60,cs)
);
},
{
closed = 1;
nodes = (
(194,411,o),
(143,459,o),
(143,534,cs),
(143,611,o),
(195,660,o),
(275,660,cs),
(354,660,o),
(407,611,o),
(407,534,cs),
(407,460,o),
(357,411,o),
(275,411,cs)
);
}
);
width = 550;
}
);
unicode = 56;
}
{
glyphname = nine;
kernLeft = KO_nine;
kernRight = KO_zero;
layers = (
{
layerId = "522FD917-7CD6-43A0-922F-6555542696CE";
shapes = (
{
closed = 1;
nodes = (
(474,-10,o),
(579,125,o),
(579,371,cs),
(579,603,o),
(478,730,o),
(290,730,cs),
(128,730,o),
(24,636,o),
(24,496,cs),
(24,364,o),
(117,274,o),
(248,274,cs),
(351,274,o),
(419,327,o),
(441,421,c),
(396,422,l),
(396,366,ls),
(396,180,o),
(372,117,o),
(290,117,cs),
(234,117,o),
(205,147,o),
(199,214,c),
(35,214,l),
(48,80,o),
(134,-10,o),
(285,-10,cs)
);
},
{
closed = 1;
nodes = (
(243,397,o),
(207,439,o),
(207,498,cs),
(207,557,o),
(242,602,o),
(306,602,cs),
(368,602,o),
(396,556,o),
(396,496,cs),
(396,439,o),
(368,397,o),
(305,397,cs)
);
}
);
width = 609;
},
{
layerId = "AF447C8E-6A86-4BB0-AFAA-0E31F633710F";
shapes = (
{
closed = 1;
nodes = (
(422,-10,o),
(504,117,o),
(504,364,cs),
(504,606,o),
(422,730,o),
(266,730,cs),
(133,730,o),
(41,642,o),
(41,503,cs),
(41,370,o),
(126,275,o),
(251,275,cs),
(349,275,o),
(436,337,o),
(452,425,c),
(436,426,l),
(436,366,ls),
(436,144,o),
(384,49,o),
(269,49,cs),
(189,49,o),
(130,95,o),
(119,206,c),
(51,206,l),
(65,60,o),
(151,-10,o),
(266,-10,cs)
);
},
{
closed = 1;
nodes = (
(164,332,o),
(109,397,o),
(109,502,cs),
(109,610,o),
(168,672,o),
(257,672,cs),
(351,672,o),
(423,602,o),
(423,495,cs),
(423,386,o),
(354,332,o),
(262,332,cs)
);
}
);
width = 560;
},
{
layerId = "7706EA0A-ADAC-4E76-A745-8A9A965DB998";
shapes = (
{
closed = 1;
nodes = (
(433,-10,o),
(519,118,o),
(519,365,cs),
(519,606,o),
(434,730,o),
(273,730,cs),
(135,730,o),
(41,641,o),
(41,502,cs),
(41,369,o),
(127,275,o),
(253,275,cs),
(352,275,o),
(436,335,o),
(453,424,c),
(432,425,l),
(432,366,ls),
(432,150,o),
(385,60,o),
(275,60,cs),
(199,60,o),
(145,104,o),
(135,207,c),
(51,207,l),
(65,63,o),
(151,-10,o),
(272,-10,cs)
);
},
{
closed = 1;
nodes = (
(180,343,o),
(128,404,o),
(128,501,cs),
(128,601,o),
(183,660,o),
(268,660,cs),
(357,660,o),
(421,594,o),
(421,495,cs),
(421,395,o),
(359,343,o),
(272,343,cs)
);
}
);
width = 575;
}
);
unicode = 57;
}
{
glyphname = equal;
layers = (
{
layerId = "522FD917-7CD6-43A0-922F-6555542696CE";
shapes = (
{
closed = 1;
nodes = (
(511,413,l),
(511,529,l),
(50,529,l),
(50,413,l)
);
},
{
closed = 1;
nodes = (
(511,213,l),
(511,329,l),
(50,329,l),
(50,213,l)
);
}
);
width = 557;
},
{
layerId = "AF447C8E-6A86-4BB0-AFAA-0E31F633710F";
shapes = (
{
closed = 1;
nodes = (
(461,443,l),
(461,499,l),
(60,499,l),
(60,443,l)
);
},
{
closed = 1;
nodes = (
(461,243,l),
(461,299,l),
(60,299,l),
(60,243,l)
);
}
);
width = 521;
},
{
layerId = "7706EA0A-ADAC-4E76-A745-8A9A965DB998";
shapes = (
{
closed = 1;
nodes = (
(471,438,l),
(471,504,l),
(60,504,l),
(60,438,l)
);
},
{
closed = 1;
nodes = (
(471,238,l),
(471,304,l),
(60,304,l),
(60,238,l)
);
}
);
width = 531;
}
);
unicode = 61;
userData = {
KernOnSpecialSpacing = {
L = math;
R = math;
};
};
}
{
glyphname = greater;
layers = (
{
layerId = "522FD917-7CD6-43A0-922F-6555542696CE";
shapes = (
{
closed = 1;
nodes = (
(511,309,l),
(511,433,l),
(50,583,l),
(50,459,l),
(375,360,l),
(375,382,l),
(50,285,l),
(50,161,l)
);
}
);
width = 561;
},
{
layerId = "AF447C8E-6A86-4BB0-AFAA-0E31F633710F";
shapes = (
{
closed = 1;
nodes = (
(461,339,l),
(461,403,l),
(60,553,l),
(60,494,l),
(431,358,l),
(431,383,l),
(60,236,l),
(60,177,l)
);
}
);
width = 521;
},
{
layerId = "7706EA0A-ADAC-4E76-A745-8A9A965DB998";
shapes = (
{
closed = 1;
nodes = (
(471,334,l),
(471,408,l),
(60,558,l),
(60,488,l),
(423,358,l),
(423,383,l),
(60,244,l),
(60,174,l)
);
}
);
width = 531;
}
);
unicode = 62;
userData = {
KernOnSpecialSpacing = {
L = math;
R = math;
};
};
}
{
glyphname = at;
layers = (
{
layerId = "522FD917-7CD6-43A0-922F-6555542696CE";
shapes = (
{
closed = 1;
nodes = (
(514,-10,o),
(591,6,o),
(656,33,c),
(621,124,l),
(556,101,o),
(490,88,o),
(421,88,cs),
(247,88,o),
(138,177,o),
(138,328,cs),
(138,501,o),
(244,631,o),
(487,631,cs),
(644,631,o),
(733,565,o),
(733,432,cs),
(733,332,o),
(685,250,o),
(629,250,cs),
(604,250,o),
(598,273,o),
(612,326,cs),
(668,538,l),
(529,538,l),
(509,459,l),
(518,458,l),
(525,522,o),
(488,572,o),
(408,572,cs),
(293,572,o),
(205,446,o),
(205,313,cs),
(205,213,o),
(261,152,o),
(339,152,cs),
(398,152,o),
(452,185,o),
(485,253,c),
(481,266,l),
(465,206,o),
(513,151,o),
(596,151,cs),
(725,151,o),
(840,291,o),
(840,445,cs),
(840,619,o),
(702,730,o),
(490,730,cs),
(189,730,o),
(30,555,o),
(30,326,cs),
(30,120,o),
(185,-10,o),
(428,-10,cs)
);
},
{
closed = 1;
nodes = (
(369,266,o),
(347,291,o),
(347,340,cs),
(347,396,o),
(380,458,o),
(431,458,cs),
(466,458,o),
(486,433,o),
(486,383,cs),
(486,328,o),
(454,266,o),
(403,266,cs)
);
}
);
width = 870;
},
{
layerId = "AF447C8E-6A86-4BB0-AFAA-0E31F633710F";
shapes = (
{
closed = 1;
nodes = (
(503,-10,o),
(591,15,o),
(642,50,c),
(620,93,l),
(563,60,o),
(486,41,o),
(414,41,cs),
(217,41,o),
(102,157,o),
(102,329,cs),
(102,524,o),
(253,679,o),
(445,679,cs),
(603,679,o),
(714,576,o),
(714,427,cs),
(714,311,o),
(645,201,o),
(580,201,cs),
(546,201,o),
(536,225,o),
(548,272,cs),
(621,557,l),
(560,557,l),
(531,447,l),
(543,447,l),
(544,521,o),
(494,571,o),
(419,571,cs),
(311,571,o),
(217,455,o),
(217,317,cs),
(217,218,o),
(274,152,o),
(362,152,cs),
(417,152,o),
(469,185,o),
(503,242,c),
(497,276,l),
(475,194,o),
(511,152,o),
(567,152,cs),
(676,152,o),
(768,279,o),
(768,432,cs),
(768,606,o),
(637,730,o),
(447,730,cs),
(223,730,o),
(48,553,o),
(48,327,cs),
(48,125,o),
(192,-10,o),
(414,-10,cs)
);
},
{
closed = 1;
nodes = (
(320,205,o),
(281,250,o),
(281,321,cs),
(281,430,o),
(348,518,o),
(420,518,cs),
(478,518,o),
(517,472,o),
(517,405,cs),
(517,302,o),
(449,205,o),
(377,205,cs)
);
}
);
width = 816;
},
{
layerId = "7706EA0A-ADAC-4E76-A745-8A9A965DB998";
shapes = (
{
closed = 1;
nodes = (
(507,-10,o),
(593,13,o),
(647,47,c),
(623,98,l),
(565,67,o),
(490,49,o),
(418,49,cs),
(225,49,o),
(111,160,o),
(111,329,cs),
(111,520,o),
(254,671,o),
(455,671,cs),
(613,671,o),
(720,574,o),
(720,428,cs),
(720,315,o),
(655,209,o),
(591,209,cs),
(559,209,o),
(549,232,o),
(562,282,cs),
(632,554,l),
(558,554,l),
(530,449,l),
(542,449,l),
(544,521,o),
(496,571,o),
(420,571,cs),
(311,571,o),
(218,454,o),
(218,316,cs),
(218,217,o),
(275,152,o),
(361,152,cs),
(417,152,o),
(469,185,o),
(503,244,c),
(497,274,l),
(476,196,o),
(514,152,o),
(575,152,cs),
(687,152,o),
(783,281,o),
(783,434,cs),
(783,608,o),
(651,730,o),
(457,730,cs),
(220,730,o),
(48,553,o),
(48,327,cs),
(48,124,o),
(194,-10,o),
(419,-10,cs)
);
},
{
closed = 1;
nodes = (
(331,215,o),
(295,257,o),
(295,324,cs),
(295,424,o),
(356,508,o),
(425,508,cs),
(479,508,o),
(515,466,o),
(515,401,cs),
(515,306,o),
(453,215,o),
(384,215,cs)
);
}
);
width = 831;
}
);
metricLeft = O;
metricRight = O;
unicode = 64;
userData = {
KernOnSpecialSpacing = {
L = symbols;
R = symbols;
};
};
}
{
glyphname = A;
kernLeft = KO_A;
kernRight = KO_A;
layers = (
{
anchors = (
{
name = bottom;
pos = (348,0);
},
{
name = ogonek;
pos = (675,0);
},
{
name = top;
pos = (348,720);
}
);
layerId = "522FD917-7CD6-43A0-922F-6555542696CE";
shapes = (
{
closed = 1;
nodes = (
(189,0,l),
(393,720,l),
(251,720,l),
(22,0,l)
);
},
{
closed = 1;
nodes = (
(675,0,l),
(445,720,l),
(296,720,l),
(500,0,l)
);
},
{
closed = 1;
nodes = (
(150,143,l),
(535,143,l),
(535,273,l),
(150,273,l)
);
}
);
width = 697;
},
{
anchors = (
{
name = bottom;
pos = (331,0);
},
{
name = ogonek;
pos = (628,0);
},
{
name = top;
pos = (331,720);
}
);
layerId = "AF447C8E-6A86-4BB0-AFAA-0E31F633710F";
shapes = (
{
closed = 1;
nodes = (
(92,0,l),
(346,720,l),
(292,720,l),
(34,0,l)
);
},
{
closed = 1;
nodes = (
(628,0,l),
(371,720,l),
(312,720,l),
(566,0,l)
);
},
{
closed = 1;
nodes = (
(160,233,l),
(500,233,l),
(500,291,l),
(160,291,l)
);
}
);
width = 662;
},
{
anchors = (
{
name = bottom;
pos = (336,0);
},
{
name = ogonek;
pos = (638,0);
},
{
name = top;
pos = (336,720);
}
);
layerId = "7706EA0A-ADAC-4E76-A745-8A9A965DB998";
shapes = (
{
closed = 1;
nodes = (
(110,0,l),
(356,720,l),
(287,720,l),
(34,0,l)
);
},
{
closed = 1;
nodes = (
(638,0,l),
(385,720,l),
(311,720,l),
(557,0,l)
);
},
{
closed = 1;
nodes = (
(160,218,l),
(508,218,l),
(508,288,l),
(160,288,l)
);
}
);
width = 672;
}
);
unicode = 65;
userData = {
KernOnName = A;
};
}
{
glyphname = B;
kernLeft = KO_B;
kernRight = KO_B;
layers = (
{
layerId = "522FD917-7CD6-43A0-922F-6555542696CE";
shapes = (
{
closed = 1;
nodes = (
(385,0,ls),
(515,0,o),
(600,77,o),
(600,197,cs),
(600,316,o),
(513,390,o),
(409,390,c),
(405,369,l),
(500,369,o),
(581,430,o),
(581,536,cs),
(581,650,o),
(496,720,o),
(373,720,cs),
(192,720,l),
(192,600,l),
(334,600,ls),
(385,600,o),
(412,573,o),
(412,517,cs),
(412,462,o),
(385,436,o),
(332,436,cs),
(192,436,l),
(192,317,l),
(338,317,ls),
(397,317,o),
(429,280,o),
(429,217,cs),
(429,156,o),
(400,120,o),
(342,120,cs),
(192,120,l),
(192,0,l)
);
},
{
closed = 1;
nodes = (
(220,0,l),
(220,720,l),
(50,720,l),
(50,0,l)
);
}
);
width = 628;
},
{
layerId = "AF447C8E-6A86-4BB0-AFAA-0E31F633710F";
shapes = (
{
closed = 1;
nodes = (
(328,0,ls),
(457,0,o),
(542,77,o),
(542,192,cs),
(542,305,o),
(464,390,o),
(352,390,c),
(348,369,l),
(454,369,o),
(523,442,o),
(523,546,cs),
(523,653,o),
(445,720,o),
(316,720,cs),
(116,720,l),
(116,665,l),
(318,665,ls),
(409,665,o),
(462,620,o),
(462,540,cs),
(462,454,o),
(406,404,o),
(312,404,cs),
(116,404,l),
(116,351,l),
(323,351,ls),
(416,351,o),
(479,290,o),
(479,197,cs),
(479,110,o),
(420,55,o),
(331,55,cs),
(116,55,l),
(116,0,l)
);
},
{
closed = 1;
nodes = (
(144,0,l),
(144,720,l),
(83,720,l),
(83,0,l)
);
}
);
width = 580;
},
{
layerId = "7706EA0A-ADAC-4E76-A745-8A9A965DB998";
shapes = (
{
closed = 1;
nodes = (
(343,0,ls),
(472,0,o),
(557,77,o),
(557,193,cs),
(557,307,o),
(477,390,o),
(367,390,c),
(363,369,l),
(467,369,o),
(538,440,o),
(538,544,cs),
(538,652,o),
(459,720,o),
(331,720,cs),
(134,720,l),
(134,654,l),
(326,654,ls),
(411,654,o),
(459,612,o),
(459,536,cs),
(459,455,o),
(408,409,o),
(321,409,cs),
(134,409,l),
(134,345,l),
(331,345,ls),
(419,345,o),
(476,288,o),
(476,200,cs),
(476,118,o),
(422,66,o),
(338,66,cs),
(134,66,l),
(134,0,l)
);
},
{
closed = 1;
nodes = (
(162,0,l),
(162,720,l),
(83,720,l),
(83,0,l)
);
}
);
width = 595;
}
);
unicode = 66;
}
{
color = 9;
glyphname = C;
kernLeft = KO_O;
kernRight = KO_C;
layers = (
{
anchors = (
{
name = bottom;
pos = (365,0);
},
{
name = top;
pos = (365,720);
}
);
layerId = "522FD917-7CD6-43A0-922F-6555542696CE";
shapes = (
{
closed = 1;
nodes = (
(534,-10,o),
(649,92,o),
(681,231,c),
(522,274,l),
(504,174,o),
(441,122,o),
(373,122,cs),
(260,122,o),
(202,237,o),
(202,365,cs),
(202,492,o),
(261,598,o),
(370,598,cs),
(439,598,o),
(501,549,o),
(520,458,c),
(681,487,l),
(648,633,o),
(535,730,o),
(371,730,cs),
(153,730,o),
(30,563,o),
(30,362,cs),
(30,151,o),
(165,-10,o),
(370,-10,cs)
);
}
);
width = 713;
},
{
anchors = (
{
name = bottom;
pos = (354,0);
},
{
name = top;
pos = (354,720);
}
);
layerId = "AF447C8E-6A86-4BB0-AFAA-0E31F633710F";
shapes = (
{
closed = 1;
nodes = (
(505,-10,o),
(606,92,o),
(626,237,c),
(565,254,l),
(553,137,o),
(481,50,o),
(355,50,cs),
(200,50,o),
(112,194,o),
(112,360,cs),
(112,516,o),
(189,670,o),
(356,670,cs),
(490,670,o),
(550,577,o),
(563,474,c),
(625,485,l),
(600,633,o),
(499,730,o),
(354,730,cs),
(165,730,o),
(48,560,o),
(48,360,cs),
(48,158,o),
(170,-10,o),
(356,-10,cs)
);
}
);
width = 673;
},
{
anchors = (
{
name = bottom;
pos = (359,0);
},
{
name = top;
pos = (359,720);
}
);
layerId = "7706EA0A-ADAC-4E76-A745-8A9A965DB998";
shapes = (
{
closed = 1;
nodes = (
(513,-10,o),
(616,92,o),
(638,236,c),
(561,257,l),
(548,143,o),
(477,62,o),
(361,62,cs),
(213,62,o),
(130,201,o),
(130,361,cs),
(130,512,o),
(204,658,o),
(361,658,cs),
(485,658,o),
(545,572,o),
(559,471,c),
(637,485,l),
(611,632,o),
(508,730,o),
(360,730,cs),
(166,730,o),
(48,561,o),
(48,360,cs),
(48,157,o),
(172,-10,o),
(361,-10,cs)
);
}
);
width = 685;
}
);
unicode = 67;
userData = {
KernOnName = C;
};
}
{
glyphname = D;
kernRight = KO_D;
layers = (
{
anchors = (
{
name = bottom;
pos = (317,0);
},
{
name = center;
pos = (367,360);
},
{
name = top;
pos = (316,720);
}
);
layerId = "522FD917-7CD6-43A0-922F-6555542696CE";
shapes = (
{
closed = 1;
nodes = (
(317,0,ls),
(544,0,o),
(696,138,o),
(696,362,cs),
(696,586,o),
(546,720,o),
(316,720,cs),
(158,720,l),
(158,590,l),
(316,590,ls),
(454,590,o),
(524,503,o),
(524,364,cs),
(524,222,o),
(452,130,o),
(316,130,cs),
(152,130,l),
(152,0,l)
);
},
{
closed = 1;
nodes = (
(220,0,l),
(220,720,l),
(50,720,l),
(50,0,l)
);
}
);
width = 726;
},
{
anchors = (
{
name = bottom;
pos = (297,0);
},
{
name = center;
pos = (340,360);
},
{
name = top;
pos = (296,720);
}
);
layerId = "AF447C8E-6A86-4BB0-AFAA-0E31F633710F";
shapes = (
{
closed = 1;
nodes = (
(297,0,ls),
(502,0,o),
(638,144,o),
(638,362,cs),
(638,580,o),
(505,720,o),
(296,720,cs),
(119,720,l),
(119,662,l),
(296,662,ls),
(470,662,o),
(574,549,o),
(574,364,cs),
(574,176,o),
(468,58,o),
(296,58,cs),
(121,58,l),
(121,0,l)
);
},
{
closed = 1;
nodes = (
(144,0,l),
(144,720,l),
(83,720,l),
(83,0,l)
);
}
);
width = 686;
},
{
anchors = (
{
name = bottom;
pos = (306,0);
},
{
name = center;
pos = (350,360);
},
{
name = top;
pos = (305,720);
}
);
layerId = "7706EA0A-ADAC-4E76-A745-8A9A965DB998";
shapes = (
{
closed = 1;
nodes = (
(306,0,ls),
(515,0,o),
(653,143,o),
(653,362,cs),
(653,581,o),
(517,720,o),
(305,720,cs),
(131,720,l),
(131,650,l),
(305,650,ls),
(473,650,o),
(571,541,o),
(571,364,cs),
(571,184,o),
(471,70,o),
(305,70,cs),
(132,70,l),
(132,0,l)
);
},
{
closed = 1;
nodes = (
(162,0,l),
(162,720,l),
(83,720,l),
(83,0,l)
);
}
);
width = 701;
}
);
metricRight = O;
unicode = 68;
userData = {
KernOnSpecialSpacing = {
L = NoKerning;
};
};
}
{
glyphname = E;
kernRight = KO_E;
layers = (
{
anchors = (
{
name = bottom;
pos = (301,0);
},
{
name = ogonek;
pos = (516,0);
},
{
name = top;
pos = (311,720);
},
{
name = topleft;
pos = (32,720);
}
);
layerId = "522FD917-7CD6-43A0-922F-6555542696CE";
shapes = (
{
closed = 1;
nodes = (
(220,0,l),
(220,720,l),
(50,720,l),
(50,0,l)
);
},
{
closed = 1;
nodes = (
(558,0,l),
(558,127,l),
(130,127,l),
(130,0,l)
);
},
{
closed = 1;
nodes = (
(527,304,l),
(527,430,l),
(130,430,l),
(130,304,l)
);
},
{
closed = 1;
nodes = (
(546,592,l),
(546,720,l),
(130,720,l),
(130,592,l)
);
}
);
width = 598;
},
{
anchors = (
{
name = bottom;
pos = (290,0);
},
{
name = ogonek;
pos = (484,0);
},
{
name = top;
pos = (300,720);
},
{
name = topleft;
pos = (11,720);
}
);
layerId = "AF447C8E-6A86-4BB0-AFAA-0E31F633710F";
shapes = (
{
closed = 1;
nodes = (
(144,0,l),
(144,720,l),
(83,720,l),
(83,0,l)
);
},
{
closed = 1;
nodes = (
(514,0,l),
(514,59,l),
(117,59,l),
(117,0,l)
);
},
{
closed = 1;
nodes = (
(481,347,l),
(481,406,l),
(117,406,l),
(117,347,l)
);
},
{
closed = 1;
nodes = (
(507,662,l),
(507,720,l),
(117,720,l),
(117,662,l)
);
}
);
width = 580;
},
{
anchors = (
{
name = bottom;
pos = (297,0);
},
{
name = ogonek;
pos = (495,0);
},
{
name = top;
pos = (307,720);
},
{
name = topleft;
pos = (20,720);
}
);
layerId = "7706EA0A-ADAC-4E76-A745-8A9A965DB998";
shapes = (
{
closed = 1;
nodes = (
(162,0,l),
(162,720,l),
(83,720,l),
(83,0,l)
);
},
{
closed = 1;
nodes = (
(527,0,l),
(527,70,l),
(125,70,l),
(125,0,l)
);
},
{
closed = 1;
nodes = (
(494,340,l),
(494,410,l),
(125,410,l),
(125,340,l)
);
},
{
closed = 1;
nodes = (
(519,650,l),
(519,720,l),
(125,720,l),
(125,650,l)
);
}
);
width = 593;
}
);
unicode = 69;
userData = {
KernOnName = E;
KernOnSpecialSpacing = {
L = NoKerning;
};
};
}
{
glyphname = F;
kernRight = KO_F;
layers = (
{
layerId = "522FD917-7CD6-43A0-922F-6555542696CE";
shapes = (
{
closed = 1;
nodes = (
(220,0,l),
(220,720,l),
(50,720,l),
(50,0,l)
);
},
{
closed = 1;
nodes = (
(511,272,l),
(511,401,l),
(130,401,l),
(130,272,l)
);
},
{
closed = 1;
nodes = (
(530,592,l),
(530,720,l),
(130,720,l),
(130,592,l)
);
}
);
width = 562;
},
{
layerId = "AF447C8E-6A86-4BB0-AFAA-0E31F633710F";
shapes = (
{
closed = 1;
nodes = (
(144,0,l),
(144,720,l),
(83,720,l),
(83,0,l)
);
},
{
closed = 1;
nodes = (
(465,318,l),
(465,376,l),
(117,376,l),
(117,318,l)
);
},
{
closed = 1;
nodes = (
(491,662,l),
(491,720,l),
(117,720,l),
(117,662,l)
);
}
);
width = 546;
},
{
layerId = "7706EA0A-ADAC-4E76-A745-8A9A965DB998";
shapes = (
{
closed = 1;
nodes = (
(162,0,l),
(162,720,l),
(83,720,l),
(83,0,l)
);
},
{
closed = 1;
nodes = (
(478,310,l),
(478,380,l),
(125,380,l),
(125,310,l)
);
},
{
closed = 1;
nodes = (
(503,650,l),
(503,720,l),
(125,720,l),
(125,650,l)
);
}
);
width = 558;
}
);
unicode = 70;
userData = {
KernOnName = F;
KernOnSpecialSpacing = {
L = NoKerning;
};
};
}
{
color = 9;
glyphname = G;
kernLeft = KO_O;
kernRight = KO_G;
layers = (
{
anchors = (
{
name = bottom;
pos = (372,0);
},
{
name = top;
pos = (372,720);
}
);
layerId = "522FD917-7CD6-43A0-922F-6555542696CE";
shapes = (
{
closed = 1;
nodes = (
(149,-10,o),
(30,145,o),
(30,363,cs),
(30,555,o),
(146,730,o),
(373,730,cs),
(529,730,o),
(641,649,o),
(674,519,c),
(510,489,l),
(493,557,o),
(444,598,o),
(374,598,cs),
(233,598,o),
(202,453,o),
(202,362,cs),
(202,220,o),
(259,119,o),
(391,119,cs),
(434,119,o),
(489,127,o),
(518,157,c),
(518,270,l),
(385,270,l),
(385,398,l),
(688,398,l),
(688,107,l),
(606,21,o),
(505,-10,o),
(383,-10,cs)
);
}
);
width = 726;
},
{
anchors = (
{
name = bottom;
pos = (360,0);
},
{
name = top;
pos = (360,720);
}
);
layerId = "AF447C8E-6A86-4BB0-AFAA-0E31F633710F";
shapes = (
{
closed = 1;
nodes = (
(168,-10,o),
(48,139,o),
(48,352,cs),
(48,551,o),
(157,730,o),
(359,730,cs),
(497,730,o),
(604,639,o),
(625,514,c),
(565,505,l),
(549,608,o),
(468,670,o),
(362,670,cs),
(197,670,o),
(112,521,o),
(112,355,cs),
(112,182,o),
(200,51,o),
(384,51,cs),
(453,51,o),
(514,70,o),
(567,119,c),
(567,317,l),
(378,317,l),
(378,375,l),
(628,375,l),
(628,94,l),
(559,22,o),
(472,-10,o),
(377,-10,cs)
);
}
);
width = 695;
},
{
anchors = (
{
name = bottom;
pos = (365,0);
},
{
name = top;
pos = (365,720);
}
);
layerId = "7706EA0A-ADAC-4E76-A745-8A9A965DB998";
shapes = (
{
closed = 1;
nodes = (
(168,-10,o),
(48,140,o),
(48,354,cs),
(48,552,o),
(158,730,o),
(364,730,cs),
(505,730,o),
(613,641,o),
(636,515,c),
(559,502,l),
(543,599,o),
(467,658,o),
(367,658,cs),
(206,658,o),
(130,510,o),
(130,356,cs),
(130,188,o),
(213,62,o),
(388,62,cs),
(452,62,o),
(513,79,o),
(562,125,c),
(562,309,l),
(382,309,l),
(382,379,l),
(641,379,l),
(641,96,l),
(570,22,o),
(481,-10,o),
(381,-10,cs)
);
}
);
width = 708;
}
);
unicode = 71;
}
{
glyphname = H;
layers = (
{
anchors = (
{
name = bottom;
pos = (346,0);
},
{
name = center;
pos = (346,360);
},
{
name = top;
pos = (346,720);
},
{
name = topleft;
pos = (26,720);
}
);
layerId = "522FD917-7CD6-43A0-922F-6555542696CE";
shapes = (
{
closed = 1;
nodes = (
(220,0,l),
(220,720,l),
(50,720,l),
(50,0,l)
);
},
{
closed = 1;
nodes = (
(643,0,l),
(643,720,l),
(473,720,l),
(473,0,l)
);
},
{
closed = 1;
nodes = (
(130,311,l),
(552,311,l),
(552,439,l),
(130,439,l)
);
}
);
width = 693;
},
{
anchors = (
{
name = bottom;
pos = (337,0);
},
{
name = center;
pos = (337,360);
},
{
name = top;
pos = (337,720);
},
{
name = topleft;
pos = (41,720);
}
);
layerId = "AF447C8E-6A86-4BB0-AFAA-0E31F633710F";
shapes = (
{
closed = 1;
nodes = (
(144,0,l),
(144,720,l),
(83,720,l),
(83,0,l)
);
},
{
closed = 1;
nodes = (
(592,0,l),
(592,720,l),
(530,720,l),
(530,0,l)
);
},
{
closed = 1;
nodes = (
(117,346,l),
(555,346,l),
(555,404,l),
(117,404,l)
);
}
);
width = 675;
},
{
anchors = (
{
name = bottom;
pos = (344,0);
},
{
name = center;
pos = (344,360);
},
{
name = top;
pos = (344,720);
},
{
name = topleft;
pos = (44,720);
}
);
layerId = "7706EA0A-ADAC-4E76-A745-8A9A965DB998";
shapes = (
{
closed = 1;
nodes = (
(162,0,l),
(162,720,l),
(83,720,l),
(83,0,l)
);
},
{
closed = 1;
nodes = (
(606,0,l),
(606,720,l),
(526,720,l),
(526,0,l)
);
},
{
closed = 1;
nodes = (
(125,340,l),
(560,340,l),
(560,410,l),
(125,410,l)
);
}
);
width = 689;
}
);
unicode = 72;
userData = {
KernOnName = H;
KernOnSpecialSpacing = {
L = NoKerning;
R = NoKerning;
};
};
}
{
glyphname = I;
layers = (
{
anchors = (
{
name = bottom;
pos = (135,0);
},
{
name = ogonek;
pos = (204,0);
},
{
name = top;
pos = (135,720);
},
{
name = topleft;
pos = (12,720);
}
);
layerId = "522FD917-7CD6-43A0-922F-6555542696CE";
shapes = (
{
closed = 1;
nodes = (
(220,0,l),
(220,720,l),
(50,720,l),
(50,0,l)
);
}
);
width = 270;
},
{
anchors = (
{
name = bottom;
pos = (114,0);
},
{
name = ogonek;
pos = (128,0);
},
{
name = top;
pos = (114,720);
},
{
name = topleft;
pos = (15,720);
}
);
layerId = "AF447C8E-6A86-4BB0-AFAA-0E31F633710F";
shapes = (
{
closed = 1;
nodes = (
(144,0,l),
(144,720,l),
(83,720,l),
(83,0,l)
);
}
);
width = 227;
},
{
anchors = (
{
name = bottom;
pos = (123,0);
},
{
name = ogonek;
pos = (146,0);
},
{
name = top;
pos = (123,720);
},
{
name = topleft;
pos = (20,720);
}
);
layerId = "7706EA0A-ADAC-4E76-A745-8A9A965DB998";
shapes = (
{
closed = 1;
nodes = (
(162,0,l),
(162,720,l),
(83,720,l),
(83,0,l)
);
}
);
width = 245;
}
);
unicode = 73;
userData = {
KernOnSpecialSpacing = {
L = NoKerning;
R = NoKerning;
};
};
}
{
color = 9;
glyphname = J;
kernLeft = KO_J.ss09;
kernRight = KO_U;
layers = (
{
layerId = "522FD917-7CD6-43A0-922F-6555542696CE";
shapes = (
{
closed = 1;
nodes = (
(134,-10,o),
(43,99,o),
(33,229,c),
(197,258,l),
(197,184,o),
(238,122,o),
(306,122,cs),
(367,122,o),
(398,172,o),
(398,258,c),
(398,720,l),
(567,720,l),
(567,284,l),
(567,99,o),
(486,-10,o),
(297,-10,cs)
);
}
);
width = 610;
},
{
layerId = "AF447C8E-6A86-4BB0-AFAA-0E31F633710F";
shapes = (
{
closed = 1;
nodes = (
(153,-10,o),
(63,66,o),
(57,204,c),
(118,214,l),
(118,102,o),
(190,50,o),
(268,50,cs),
(361,50,o),
(417,122,o),
(417,228,c),
(417,720,l),
(478,720,l),
(478,228,l),
(478,95,o),
(403,-10,o),
(267,-10,cs)
);
}
);
width = 555;
},
{
layerId = "7706EA0A-ADAC-4E76-A745-8A9A965DB998";
shapes = (
{
closed = 1;
nodes = (
(154,-10,o),
(64,71,o),
(57,208,c),
(135,221,l),
(135,115,o),
(202,62,o),
(278,62,cs),
(366,62,o),
(418,130,o),
(418,233,c),
(418,720,l),
(497,720,l),
(497,237,l),
(497,95,o),
(421,-10,o),
(276,-10,cs)
);
}
);
width = 574;
}
);
unicode = 74;
}
{
glyphname = K;
kernLeft = KO_B;
kernRight = KO_K.ss08;
layers = (
{
anchors = (
{
name = bottom;
pos = (353,0);
},
{
name = top;
pos = (354,720);
}
);
layerId = "522FD917-7CD6-43A0-922F-6555542696CE";
shapes = (
{
closed = 1;
nodes = (
(220,0,l),
(220,720,l),
(50,720,l),
(50,0,l)
);
},
{
closed = 1;
nodes = (
(173,129,l),
(325,325,l),
(352,332,l),
(662,720,l),
(456,720,l),
(162,327,l)
);
},
{
closed = 1;
nodes = (
(680,0,l),
(392,462,l),
(246,403,l),
(477,0,l)
);
}
);
width = 696;
},
{
anchors = (
{
name = bottom;
pos = (325,0);
},
{
name = top;
pos = (310,720);
}
);
layerId = "AF447C8E-6A86-4BB0-AFAA-0E31F633710F";
shapes = (
{
closed = 1;
nodes = (
(144,0,l),
(144,720,l),
(83,720,l),
(83,0,l)
);
},
{
closed = 1;
nodes = (
(115,205,l),
(290,398,l),
(305,408,l),
(586,720,l),
(505,720,l),
(83,243,l)
);
},
{
closed = 1;
nodes = (
(606,0,l),
(300,426,l),
(236,414,l),
(528,0,l)
);
}
);
width = 629;
},
{
anchors = (
{
name = bottom;
pos = (335,0);
},
{
name = top;
pos = (323,720);
}
);
layerId = "7706EA0A-ADAC-4E76-A745-8A9A965DB998";
shapes = (
{
closed = 1;
nodes = (
(162,0,l),
(162,720,l),
(83,720,l),
(83,0,l)
);
},
{
closed = 1;
nodes = (
(130,192,l),
(301,386,l),
(318,395,l),
(604,720,l),
(502,720,l),
(102,257,l)
);
},
{
closed = 1;
nodes = (
(624,0,l),
(321,432,l),
(243,412,l),
(525,0,l)
);
}
);
width = 647;
}
);
unicode = 75;
}
{
glyphname = L;
kernRight = KO_L;
layers = (
{
anchors = (
{
name = bottom;
pos = (298,0);
},
{
name = center;
pos = (286,360);
},
{
name = top;
pos = (134,720);
},
{
name = topright;
pos = (343,720);
}
);
layerId = "522FD917-7CD6-43A0-922F-6555542696CE";
shapes = (
{
closed = 1;
nodes = (
(220,0,l),
(220,720,l),
(50,720,l),
(50,0,l)
);
},
{
closed = 1;
nodes = (
(524,0,l),
(524,127,l),
(130,127,l),
(130,0,l)
);
}
);
width = 562;
},
{
anchors = (
{
name = bottom;
pos = (301,0);
},
{
name = center;
pos = (264,360);
},
{
name = top;
pos = (113,720);
},
{
name = topright;
pos = (364,720);
}
);
layerId = "AF447C8E-6A86-4BB0-AFAA-0E31F633710F";
shapes = (
{
closed = 1;
nodes = (
(144,0,l),
(144,720,l),
(83,720,l),
(83,0,l)
);
},
{
closed = 1;
nodes = (
(485,0,l),
(485,59,l),
(117,59,l),
(117,0,l)
);
}
);
width = 533;
},
{
anchors = (
{
name = bottom;
pos = (306,0);
},
{
name = center;
pos = (273,360);
},
{
name = top;
pos = (122,720);
},
{
name = topright;
pos = (366,720);
}
);
layerId = "7706EA0A-ADAC-4E76-A745-8A9A965DB998";
shapes = (
{
closed = 1;
nodes = (
(162,0,l),
(162,720,l),
(83,720,l),
(83,0,l)
);
},
{
closed = 1;
nodes = (
(497,0,l),
(497,70,l),
(125,70,l),
(125,0,l)
);
}
);
width = 545;
}
);
unicode = 76;
userData = {
KernOnName = L;
KernOnSpecialSpacing = {
L = NoKerning;
};
};
}
{
glyphname = M;
layers = (
{
layerId = "522FD917-7CD6-43A0-922F-6555542696CE";
shapes = (
{
closed = 1;
nodes = (
(211,0,l),
(211,661,l),
(183,661,l),
(351,0,l),
(512,0,l),
(684,666,l),
(655,666,l),
(655,0,l),
(822,0,l),
(822,720,l),
(561,720,l),
(384,30,l),
(486,30,l),
(310,720,l),
(50,720,l),
(50,0,l)
);
}
);
width = 872;
},
{
layerId = "AF447C8E-6A86-4BB0-AFAA-0E31F633710F";
shapes = (
{
closed = 1;
nodes = (
(137,0,l),
(137,661,l),
(132,661,l),
(378,0,l),
(460,0,l),
(705,666,l),
(699,666,l),
(699,0,l),
(760,0,l),
(760,720,l),
(665,720,l),
(411,30,l),
(433,30,l),
(176,720,l),
(83,720,l),
(83,0,l)
);
}
);
width = 843;
},
{
layerId = "7706EA0A-ADAC-4E76-A745-8A9A965DB998";
shapes = (
{
closed = 1;
nodes = (
(155,0,l),
(155,661,l),
(146,661,l),
(379,0,l),
(474,0,l),
(707,666,l),
(697,666,l),
(697,0,l),
(776,0,l),
(776,720,l),
(653,720,l),
(412,30,l),
(447,30,l),
(204,720,l),
(83,720,l),
(83,0,l)
);
}
);
width = 859;
}
);
unicode = 77;
userData = {
KernOnSpecialSpacing = {
L = NoKerning;
R = NoKerning;
};
};
}
{
glyphname = N;
layers = (
{
anchors = (
{
name = bottom;
pos = (347,0);
},
{
name = top;
pos = (347,720);
}
);
layerId = "522FD917-7CD6-43A0-922F-6555542696CE";
shapes = (
{
closed = 1;
nodes = (
(214,0,l),
(214,650,l),
(159,638,l),
(424,0,l),
(644,0,l),
(644,720,l),
(480,720,l),
(480,69,l),
(535,81,l),
(270,720,l),
(50,720,l),
(50,0,l)
);
}
);
width = 694;
},
{
anchors = (
{
name = bottom;
pos = (338,0);
},
{
name = top;
pos = (338,720);
}
);
layerId = "AF447C8E-6A86-4BB0-AFAA-0E31F633710F";
shapes = (
{
closed = 1;
nodes = (
(140,0,l),
(140,600,l),
(138,600,l),
(535,0,l),
(593,0,l),
(593,720,l),
(535,720,l),
(535,121,l),
(538,121,l),
(141,720,l),
(83,720,l),
(83,0,l)
);
}
);
width = 676;
},
{
anchors = (
{
name = bottom;
pos = (345,0);
},
{
name = top;
pos = (345,720);
}
);
layerId = "7706EA0A-ADAC-4E76-A745-8A9A965DB998";
shapes = (
{
closed = 1;
nodes = (
(158,0,l),
(158,608,l),
(147,606,l),
(522,0,l),
(607,0,l),
(607,720,l),
(531,720,l),
(531,112,l),
(543,114,l),
(168,720,l),
(83,720,l),
(83,0,l)
);
}
);
width = 690;
}
);
unicode = 78;
userData = {
KernOnSpecialSpacing = {
L = NoKerning;
R = NoKerning;
};
};
}
{
glyphname = O;
kernLeft = KO_O;
kernRight = KO_O;
layers = (
{
anchors = (
{
name = bottom;
pos = (380,0);
},
{
name = center;
pos = (380,360);
},
{
name = ogonek;
pos = (529,20);
},
{
name = top;
pos = (380,720);
},
{
name = topleft;
pos = (25,720);
},
{
name = topright;
pos = (735,720);
}
);
layerId = "522FD917-7CD6-43A0-922F-6555542696CE";
shapes = (
{
closed = 1;
nodes = (
(586,-10,o),
(729,136,o),
(729,362,cs),
(729,587,o),
(588,730,o),
(379,730,cs),
(171,730,o),
(30,587,o),
(30,363,cs),
(30,135,o),
(174,-10,o),
(380,-10,cs)
);
},
{
closed = 1;
nodes = (
(272,122,o),
(202,213,o),
(202,364,cs),
(202,512,o),
(270,598,o),
(379,598,cs),
(487,598,o),
(557,511,o),
(557,364,cs),
(557,215,o),
(485,122,o),
(379,122,cs)
);
}
);
width = 759;
},
{
anchors = (
{
name = bottom;
pos = (357,0);
},
{
name = center;
pos = (357,360);
},
{
name = ogonek;
pos = (486,20);
},
{
name = top;
pos = (357,720);
},
{
name = topleft;
pos = (15,720);
},
{
name = topright;
pos = (700,720);
}
);
layerId = "AF447C8E-6A86-4BB0-AFAA-0E31F633710F";
shapes = (
{
closed = 1;
nodes = (
(538,-10,o),
(668,146,o),
(668,362,cs),
(668,578,o),
(540,730,o),
(356,730,cs),
(176,730,o),
(48,579,o),
(48,363,cs),
(48,147,o),
(176,-10,o),
(357,-10,cs)
);
},
{
closed = 1;
nodes = (
(210,50,o),
(112,177,o),
(112,364,cs),
(112,549,o),
(208,670,o),
(356,670,cs),
(506,670,o),
(604,547,o),
(604,364,cs),
(604,178,o),
(504,50,o),
(356,50,cs)
);
}
);
width = 716;
},
{
anchors = (
{
name = bottom;
pos = (364,0);
},
{
name = center;
pos = (364,360);
},
{
name = ogonek;
pos = (496,20);
},
{
name = top;
pos = (364,720);
},
{
name = topleft;
pos = (20,720);
},
{
name = topright;
pos = (709,720);
}
);
layerId = "7706EA0A-ADAC-4E76-A745-8A9A965DB998";
shapes = (
{
closed = 1;
nodes = (
(549,-10,o),
(681,144,o),
(681,362,cs),
(681,580,o),
(551,730,o),
(363,730,cs),
(178,730,o),
(48,580,o),
(48,363,cs),
(48,144,o),
(179,-10,o),
(364,-10,cs)
);
},
{
closed = 1;
nodes = (
(223,62,o),
(130,183,o),
(130,364,cs),
(130,542,o),
(221,658,o),
(363,658,cs),
(506,658,o),
(599,541,o),
(599,364,cs),
(599,184,o),
(504,62,o),
(363,62,cs)
);
}
);
width = 729;
}
);
unicode = 79;
userData = {
KernOnName = O;
};
}
{
glyphname = P;
kernRight = KO_P;
layers = (
{
layerId = "522FD917-7CD6-43A0-922F-6555542696CE";
shapes = (
{
closed = 1;
nodes = (
(220,0,l),
(220,592,l),
(365,592,ls),
(424,592,o),
(457,553,o),
(457,492,cs),
(457,431,o),
(422,392,o),
(365,392,cs),
(186,392,l),
(186,264,l),
(373,264,ls),
(526,264,o),
(628,356,o),
(628,492,cs),
(628,629,o),
(529,720,o),
(373,720,cs),
(50,720,l),
(50,0,l)
);
}
);
width = 649;
},
{
layerId = "AF447C8E-6A86-4BB0-AFAA-0E31F633710F";
shapes = (
{
closed = 1;
nodes = (
(144,0,l),
(144,662,l),
(324,662,ls),
(435,662,o),
(494,610,o),
(494,514,cs),
(494,417,o),
(435,362,o),
(324,362,cs),
(124,362,l),
(124,304,l),
(326,304,ls),
(473,304,o),
(554,384,o),
(554,514,cs),
(554,642,o),
(473,720,o),
(326,720,cs),
(83,720,l),
(83,0,l)
);
}
);
width = 594;
},
{
layerId = "7706EA0A-ADAC-4E76-A745-8A9A965DB998";
shapes = (
{
closed = 1;
nodes = (
(162,0,l),
(162,650,l),
(336,650,ls),
(439,650,o),
(493,600,o),
(493,510,cs),
(493,419,o),
(438,367,o),
(336,367,cs),
(140,367,l),
(140,297,l),
(339,297,ls),
(487,297,o),
(572,379,o),
(572,510,cs),
(572,640,o),
(488,720,o),
(339,720,cs),
(83,720,l),
(83,0,l)
);
}
);
width = 612;
}
);
unicode = 80;
userData = {
KernOnSpecialSpacing = {
L = NoKerning;
};
};
}
{
glyphname = Q;
kernLeft = KO_O;
kernRight = KO_O;
layers = (
{
layerId = "522FD917-7CD6-43A0-922F-6555542696CE";
shapes = (
{
closed = 1;
nodes = (
(586,-10,o),
(729,136,o),
(729,362,cs),
(729,587,o),
(588,730,o),
(379,730,cs),
(171,730,o),
(30,587,o),
(30,363,cs),
(30,135,o),
(174,-10,o),
(380,-10,cs)
);
},
{
closed = 1;
nodes = (
(273,119,o),
(201,208,o),
(201,364,cs),
(201,513,o),
(271,598,o),
(379,598,cs),
(486,598,o),
(558,513,o),
(558,364,cs),
(558,192,o),
(484,119,o),
(379,119,cs)
);
},
{
closed = 1;
nodes = (
(658,7,o),
(606,33,o),
(590,98,c),
(538,66,o),
(476,18,o),
(452,1,c),
(497,-82,o),
(560,-130,o),
(636,-145,c),
(636,-145,o),
(723,2,o),
(723,2,c)
);
}
);
width = 759;
},
{
layerId = "AF447C8E-6A86-4BB0-AFAA-0E31F633710F";
shapes = (
{
closed = 1;
nodes = (
(538,-10,o),
(668,146,o),
(668,362,cs),
(668,578,o),
(540,730,o),
(356,730,cs),
(176,730,o),
(48,579,o),
(48,363,cs),
(48,147,o),
(176,-10,o),
(357,-10,cs)
);
},
{
closed = 1;
nodes = (
(210,51,o),
(112,178,o),
(112,364,cs),
(112,548,o),
(207,670,o),
(356,670,cs),
(507,670,o),
(604,546,o),
(604,364,cs),
(604,183,o),
(505,51,o),
(356,51,cs)
);
},
{
closed = 1;
nodes = (
(595,-30,o),
(543,4,o),
(535,57,c),
(483,25,o),
(480,61,o),
(456,50,c),
(497,-28,o),
(548,-71,o),
(616,-86,c),
(616,-86,o),
(649,-29,o),
(649,-29,c)
);
}
);
width = 716;
},
{
layerId = "7706EA0A-ADAC-4E76-A745-8A9A965DB998";
shapes = (
{
closed = 1;
nodes = (
(549,-10,o),
(681,144,o),
(681,362,cs),
(681,580,o),
(551,730,o),
(363,730,cs),
(178,730,o),
(48,580,o),
(48,363,cs),
(48,144,o),
(179,-10,o),
(364,-10,cs)
);
},
{
closed = 1;
nodes = (
(223,62,o),
(130,183,o),
(130,364,cs),
(130,542,o),
(221,658,o),
(363,658,cs),
(506,658,o),
(599,541,o),
(599,364,cs),
(599,184,o),
(504,62,o),
(363,62,cs)
);
},
{
closed = 1;
nodes = (
(608,-24,o),
(556,9,o),
(547,64,c),
(495,32,o),
(482,54,o),
(458,42,c),
(500,-37,o),
(553,-81,o),
(622,-96,c),
(622,-96,o),
(664,-24,o),
(664,-24,c)
);
}
);
width = 729;
}
);
unicode = 81;
}
{
glyphname = R;
kernRight = KO_R;
layers = (
{
anchors = (
{
name = bottom;
pos = (331,0);
},
{
name = top;
pos = (331,720);
}
);
layerId = "522FD917-7CD6-43A0-922F-6555542696CE";
shapes = (
{
closed = 1;
nodes = (
(220,0,l),
(220,274,l),
(289,274,ls),
(332,274,o),
(368,250,o),
(396,199,c),
(483,0,l),
(666,0,l),
(569,217,l),
(548,261,o),
(526,296,o),
(484,322,c),
(553,353,o),
(611,400,o),
(611,500,cs),
(611,631,o),
(507,720,o),
(349,720,cs),
(50,720,l),
(50,0,l)
);
},
{
closed = 1;
nodes = (
(220,592,l),
(341,592,ls),
(401,592,o),
(452,555,o),
(452,498,cs),
(452,444,o),
(401,405,o),
(341,405,cs),
(220,405,l)
);
}
);
width = 650;
},
{
anchors = (
{
name = bottom;
pos = (300,0);
},
{
name = top;
pos = (300,720);
}
);
layerId = "AF447C8E-6A86-4BB0-AFAA-0E31F633710F";
shapes = (
{
closed = 1;
nodes = (
(144,0,l),
(144,329,l),
(303,329,l),
(354,329,o),
(391,293,o),
(430,217,c),
(517,0,l),
(586,0,l),
(504,206,l),
(476,278,o),
(433,331,o),
(389,352,c),
(476,373,o),
(537,451,o),
(537,531,cs),
(537,648,o),
(452,720,o),
(315,720,cs),
(83,720,l),
(83,0,l)
);
},
{
closed = 1;
nodes = (
(144,662,l),
(313,662,ls),
(418,662,o),
(473,616,o),
(473,532,cs),
(473,434,o),
(417,381,o),
(313,381,cs),
(144,381,l)
);
}
);
width = 593;
},
{
anchors = (
{
name = bottom;
pos = (320,0);
},
{
name = top;
pos = (320,720);
}
);
associatedMasterId = "522FD917-7CD6-43A0-922F-6555542696CE";
layerId = "62C685A6-EA10-4AB0-B58F-9D9ACA6C4FA8";
name = "14. 10. 25 at 7:29 PM";
shapes = (
{
closed = 1;
nodes = (
(202,0,l),
(202,275,l),
(276,275,ls),
(332,275,o),
(365,241,o),
(386,194,c),
(473,0,l),
(631,0,l),
(532,225,l),
(514,265,o),
(496,290,o),
(463,319,c),
(547,348,o),
(593,419,o),
(593,500,cs),
(593,634,o),
(492,720,o),
(338,720,cs),
(50,720,l),
(50,0,l)
);
},
{
closed = 1;
nodes = (
(202,604,l),
(331,604,ls),
(398,604,o),
(450,566,o),
(450,499,cs),
(450,434,o),
(398,393,o),
(331,393,cs),
(202,393,l)
);
}
);
visible = 1;
width = 631;
},
{
anchors = (
{
name = bottom;
pos = (311,0);
},
{
name = top;
pos = (311,720);
}
);
layerId = "7706EA0A-ADAC-4E76-A745-8A9A965DB998";
shapes = (
{
closed = 1;
nodes = (
(162,0,l),
(162,320,l),
(306,320,l),
(356,320,o),
(393,286,o),
(430,214,c),
(517,0,l),
(605,0,l),
(520,208,l),
(493,275,o),
(454,325,o),
(410,347,c),
(495,370,o),
(555,443,o),
(555,526,cs),
(555,645,o),
(467,720,o),
(326,720,cs),
(83,720,l),
(83,0,l)
);
},
{
closed = 1;
nodes = (
(162,650,l),
(323,650,ls),
(420,650,o),
(475,606,o),
(475,526,cs),
(475,436,o),
(420,385,o),
(323,385,cs),
(162,385,l)
);
}
);
width = 612;
}
);
unicode = 82;
userData = {
KernOnSpecialSpacing = {
L = NoKerning;
};
};
}
{
color = 9;
glyphname = S;
kernLeft = KO_S;
kernRight = KO_S;
layers = (
{
anchors = (
{
name = bottom;
pos = (342,0);
},
{
name = top;
pos = (332,720);
}
);
layerId = "522FD917-7CD6-43A0-922F-6555542696CE";
shapes = (
{
closed = 1;
nodes = (
(493,-9,o),
(616,58,o),
(616,216,cs),
(616,335,o),
(537,389,o),
(428,425,c),
(306,464,l),
(278,474,o),
(227,492,o),
(227,544,cs),
(227,589,o),
(277,607,o),
(320,607,cs),
(402,607,o),
(457,558,o),
(445,450,c),
(370,474,l),
(675,529,l),
(607,484,l),
(606,656,o),
(485,731,o),
(330,731,cs),
(183,731,o),
(66,664,o),
(66,519,cs),
(66,404,o),
(143,345,o),
(251,309,c),
(372,272,l),
(422,256,o),
(454,232,o),
(454,183,cs),
(454,135,o),
(399,115,o),
(346,115,cs),
(252,115,o),
(170,177,o),
(196,291,c),
(264,267,l),
(-34,187,l),
(31,246,l),
(38,67,o),
(177,-9,o),
(337,-9,cs)
);
}
);
width = 645;
},
{
anchors = (
{
name = bottom;
pos = (276,0);
},
{
name = top;
pos = (278,720);
}
);
layerId = "AF447C8E-6A86-4BB0-AFAA-0E31F633710F";
shapes = (
{
closed = 1;
nodes = (
(414,-9,o),
(503,47,o),
(503,168,cs),
(503,266,o),
(449,329,o),
(357,369,c),
(235,422,l),
(170,448,o),
(124,483,o),
(124,554,cs),
(124,636,o),
(188,671,o),
(272,671,cs),
(383,671,o),
(425,606,o),
(438,492,c),
(408,514,l),
(520,534,l),
(495,503,l),
(487,646,o),
(409,730,o),
(272,730,cs),
(159,730,o),
(62,668,o),
(62,550,cs),
(62,452,o),
(131,399,o),
(221,362,c),
(347,306,l),
(408,279,o),
(442,249,o),
(442,175,cs),
(442,83,o),
(381,50,o),
(292,50,cs),
(165,50,o),
(102,116,o),
(90,250,c),
(119,231,l),
(9,205,l),
(32,234,l),
(44,79,o),
(139,-9,o),
(294,-9,cs)
);
}
);
width = 536;
},
{
anchors = (
{
name = bottom;
pos = (294,0);
},
{
name = top;
pos = (294,720);
}
);
layerId = "7706EA0A-ADAC-4E76-A745-8A9A965DB998";
shapes = (
{
closed = 1;
nodes = (
(435,-9,o),
(529,49,o),
(529,176,cs),
(529,278,o),
(470,339,o),
(376,378,c),
(254,429,l),
(196,452,o),
(148,484,o),
(148,552,cs),
(148,628,o),
(210,660,o),
(287,660,cs),
(393,660,o),
(437,598,o),
(446,485,c),
(409,507,l),
(553,533,l),
(521,500,l),
(514,648,o),
(429,730,o),
(289,730,cs),
(170,730,o),
(70,667,o),
(70,545,cs),
(70,444,o),
(140,390,o),
(233,353,c),
(358,300,l),
(417,275,o),
(451,246,o),
(451,176,cs),
(451,92,o),
(391,61,o),
(308,61,cs),
(187,61,o),
(121,126,o),
(115,257,c),
(150,237,l),
(9,202,l),
(39,236,l),
(50,77,o),
(153,-9,o),
(308,-9,cs)
);
}
);
width = 569;
}
);
unicode = 83;
userData = {
KernOnName = S;
};
}
{
glyphname = T;
kernLeft = KO_T;
kernRight = KO_T;
layers = (
{
anchors = (
{
name = bottom;
pos = (318,0);
},
{
name = center;
pos = (318,378);
},
{
name = top;
pos = (318,720);
}
);
layerId = "522FD917-7CD6-43A0-922F-6555542696CE";
shapes = (
{
closed = 1;
nodes = (
(403,0,l),
(403,592,l),
(613,592,l),
(613,720,l),
(21,720,l),
(21,592,l),
(233,592,l),
(233,0,l)
);
}
);
width = 634;
},
{
anchors = (
{
name = bottom;
pos = (295,0);
},
{
name = center;
pos = (295,377);
},
{
name = top;
pos = (295,720);
}
);
layerId = "AF447C8E-6A86-4BB0-AFAA-0E31F633710F";
shapes = (
{
closed = 1;
nodes = (
(325,0,l),
(325,662,l),
(557,662,l),
(557,720,l),
(33,720,l),
(33,662,l),
(264,662,l),
(264,0,l)
);
}
);
width = 590;
},
{
anchors = (
{
name = bottom;
pos = (301,0);
},
{
name = center;
pos = (301,377);
},
{
name = top;
pos = (301,720);
}
);
layerId = "7706EA0A-ADAC-4E76-A745-8A9A965DB998";
shapes = (
{
closed = 1;
nodes = (
(340,0,l),
(340,650,l),
(568,650,l),
(568,720,l),
(33,720,l),
(33,650,l),
(261,650,l),
(261,0,l)
);
}
);
width = 601;
}
);
metricRight = "=|";
unicode = 84;
userData = {
KernOnName = T;
};
}
{
glyphname = U;
kernLeft = KO_U;
kernRight = KO_U;
layers = (
{
anchors = (
{
name = bottom;
pos = (338,0);
},
{
name = ogonek;
pos = (489,20);
},
{
name = top;
pos = (338,720);
},
{
name = topright;
pos = (652,720);
}
);
layerId = "522FD917-7CD6-43A0-922F-6555542696CE";
shapes = (
{
closed = 1;
nodes = (
(535,-10,o),
(633,100,o),
(633,304,cs),
(633,720,l),
(463,720,l),
(463,269,ls),
(463,167,o),
(415,122,o),
(338,122,cs),
(260,122,o),
(212,167,o),
(212,271,cs),
(212,720,l),
(43,720,l),
(43,305,ls),
(43,100,o),
(139,-10,o),
(337,-10,cs)
);
}
);
width = 676;
},
{
anchors = (
{
name = bottom;
pos = (324,0);
},
{
name = ogonek;
pos = (451,20);
},
{
name = top;
pos = (324,720);
},
{
name = topright;
pos = (637,720);
}
);
layerId = "AF447C8E-6A86-4BB0-AFAA-0E31F633710F";
shapes = (
{
closed = 1;
nodes = (
(479,-10,o),
(572,93,o),
(572,263,cs),
(572,720,l),
(510,720,l),
(510,267,ls),
(510,126,o),
(444,50,o),
(324,50,cs),
(204,50,o),
(138,128,o),
(138,266,cs),
(138,720,l),
(77,720,l),
(77,264,ls),
(77,93,o),
(169,-10,o),
(324,-10,cs)
);
}
);
width = 649;
},
{
anchors = (
{
name = bottom;
pos = (332,0);
},
{
name = ogonek;
pos = (463,20);
},
{
name = top;
pos = (332,720);
},
{
name = topright;
pos = (645,720);
}
);
layerId = "7706EA0A-ADAC-4E76-A745-8A9A965DB998";
shapes = (
{
closed = 1;
nodes = (
(494,-10,o),
(588,94,o),
(588,270,cs),
(588,720,l),
(508,720,l),
(508,267,ls),
(508,133,o),
(445,62,o),
(332,62,cs),
(219,62,o),
(156,134,o),
(156,267,cs),
(156,720,l),
(77,720,l),
(77,271,ls),
(77,94,o),
(170,-10,o),
(332,-10,cs)
);
}
);
width = 665;
}
);
unicode = 85;
userData = {
KernOnName = U;
};
}
{
glyphname = V;
kernLeft = KO_V;
kernRight = KO_V;
layers = (
{
layerId = "522FD917-7CD6-43A0-922F-6555542696CE";
shapes = (
{
closed = 1;
nodes = (
(445,0,l),
(675,720,l),
(509,720,l),
(345,135,l),
(359,135,l),
(196,720,l),
(22,720,l),
(251,0,l)
);
}
);
width = 697;
},
{
layerId = "AF447C8E-6A86-4BB0-AFAA-0E31F633710F";
shapes = (
{
closed = 1;
nodes = (
(371,0,l),
(628,720,l),
(567,720,l),
(320,20,l),
(348,20,l),
(100,720,l),
(34,720,l),
(292,0,l)
);
}
);
width = 662;
},
{
layerId = "7706EA0A-ADAC-4E76-A745-8A9A965DB998";
shapes = (
{
closed = 1;
nodes = (
(385,0,l),
(638,720,l),
(559,720,l),
(326,39,l),
(352,39,l),
(118,720,l),
(34,720,l),
(287,0,l)
);
}
);
width = 672;
}
);
unicode = 86;
userData = {
KernOnName = V;
};
}
{
glyphname = W;
kernLeft = KO_W;
kernRight = KO_W;
layers = (
{
anchors = (
{
name = bottom;
pos = (507,0);
},
{
name = top;
pos = (507,720);
}
);
layerId = "522FD917-7CD6-43A0-922F-6555542696CE";
shapes = (
{
closed = 1;
nodes = (
(400,0,l),
(530,659,l),
(485,659,l),
(615,0,l),
(805,0,l),
(983,720,l),
(821,720,l),
(680,55,l),
(729,55,l),
(604,720,l),
(417,720,l),
(290,55,l),
(340,55,l),
(200,720,l),
(32,720,l),
(208,0,l)
);
}
);
width = 1015;
},
{
anchors = (
{
name = bottom;
pos = (493,0);
},
{
name = top;
pos = (493,720);
}
);
layerId = "AF447C8E-6A86-4BB0-AFAA-0E31F633710F";
shapes = (
{
closed = 1;
nodes = (
(320,0,l),
(496,636,l),
(492,636,l),
(666,0,l),
(746,0,l),
(939,720,l),
(879,720,l),
(705,61,l),
(712,61,l),
(535,720,l),
(455,720,l),
(280,61,l),
(287,61,l),
(111,720,l),
(47,720,l),
(241,0,l)
);
}
);
width = 986;
},
{
anchors = (
{
name = bottom;
pos = (498,0);
},
{
name = top;
pos = (498,720);
}
);
layerId = "7706EA0A-ADAC-4E76-A745-8A9A965DB998";
shapes = (
{
closed = 1;
nodes = (
(336,0,l),
(504,640,l),
(493,640,l),
(660,0,l),
(758,0,l),
(949,720,l),
(872,720,l),
(703,60,l),
(717,60,l),
(549,720,l),
(451,720,l),
(284,60,l),
(298,60,l),
(128,720,l),
(47,720,l),
(238,0,l)
);
}
);
width = 996;
}
);
unicode = 87;
userData = {
KernOnName = W;
};
}
{
glyphname = X;
kernLeft = KO_X;
kernRight = KO_X;
layers = (
{
layerId = "522FD917-7CD6-43A0-922F-6555542696CE";
shapes = (
{
closed = 1;
nodes = (
(665,0,l),
(394,429,l),
(230,720,l),
(35,720,l),
(296,310,l),
(470,0,l)
);
},
{
closed = 1;
nodes = (
(376,280,l),
(665,720,l),
(490,720,l),
(323,434,l)
);
},
{
closed = 1;
nodes = (
(303,431,l),
(17,0,l),
(193,0,l),
(357,277,l)
);
}
);
width = 683;
},
{
layerId = "AF447C8E-6A86-4BB0-AFAA-0E31F633710F";
shapes = (
{
closed = 1;
nodes = (
(587,0,l),
(332,399,l),
(121,720,l),
(51,720,l),
(291,344,l),
(516,0,l)
);
},
{
closed = 1;
nodes = (
(339,345,l),
(585,720,l),
(518,720,l),
(299,397,l)
);
},
{
closed = 1;
nodes = (
(290,394,l),
(35,0,l),
(101,0,l),
(328,342,l)
);
}
);
width = 623;
},
{
layerId = "7706EA0A-ADAC-4E76-A745-8A9A965DB998";
shapes = (
{
closed = 1;
nodes = (
(603,0,l),
(345,404,l),
(142,720,l),
(51,720,l),
(295,338,l),
(511,0,l)
);
},
{
closed = 1;
nodes = (
(348,334,l),
(601,720,l),
(516,720,l),
(306,403,l)
);
},
{
closed = 1;
nodes = (
(295,400,l),
(35,0,l),
(119,0,l),
(336,331,l)
);
}
);
width = 639;
}
);
unicode = 88;
userData = {
KernOnName = X;
};
}
{
glyphname = Y;
kernLeft = KO_Y;
kernRight = KO_Y;
layers = (
{
anchors = (
{
name = bottom;
pos = (343,0);
},
{
name = top;
pos = (343,720);
},
{
name = topleft;
pos = (23,720);
}
);
layerId = "522FD917-7CD6-43A0-922F-6555542696CE";
shapes = (
{
closed = 1;
nodes = (
(428,0,l),
(428,285,l),
(675,720,l),
(495,720,l),
(306,331,l),
(401,331,l),
(211,720,l),
(10,720,l),
(259,285,l),
(259,0,l)
);
}
);
width = 686;
},
{
anchors = (
{
name = bottom;
pos = (308,0);
},
{
name = top;
pos = (308,720);
},
{
name = topleft;
pos = (17,720);
}
);
layerId = "AF447C8E-6A86-4BB0-AFAA-0E31F633710F";
shapes = (
{
closed = 1;
nodes = (
(338,0,l),
(338,337,l),
(595,720,l),
(525,720,l),
(299,385,l),
(323,385,l),
(96,720,l),
(22,720,l),
(277,337,l),
(277,0,l)
);
}
);
width = 616;
},
{
anchors = (
{
name = bottom;
pos = (316,0);
},
{
name = top;
pos = (316,720);
},
{
name = topleft;
pos = (20,720);
}
);
layerId = "7706EA0A-ADAC-4E76-A745-8A9A965DB998";
shapes = (
{
closed = 1;
nodes = (
(355,0,l),
(355,328,l),
(610,720,l),
(522,720,l),
(302,376,l),
(338,376,l),
(117,720,l),
(22,720,l),
(276,328,l),
(276,0,l)
);
}
);
width = 631;
}
);
unicode = 89;
userData = {
KernOnName = Y;
};
}
{
glyphname = Z;
kernLeft = KO_Z;
kernRight = KO_Z;
layers = (
{
anchors = (
{
name = bottom;
pos = (306,0);
},
{
name = center;
pos = (306,360);
},
{
name = top;
pos = (306,720);
}
);
layerId = "522FD917-7CD6-43A0-922F-6555542696CE";
shapes = (
{
closed = 1;
nodes = (
(574,0,l),
(574,127,l),
(188,127,l),
(221,83,l),
(571,611,l),
(571,720,l),
(53,720,l),
(53,592,l),
(428,592,l),
(393,644,l),
(40,114,l),
(40,0,l)
);
}
);
width = 611;
},
{
anchors = (
{
name = bottom;
pos = (289,0);
},
{
name = center;
pos = (289,360);
},
{
name = top;
pos = (289,720);
}
);
layerId = "AF447C8E-6A86-4BB0-AFAA-0E31F633710F";
shapes = (
{
closed = 1;
nodes = (
(522,0,l),
(522,59,l),
(86,59,l),
(113,21,l),
(512,670,l),
(512,720,l),
(71,720,l),
(71,662,l),
(485,662,l),
(459,698,l),
(60,49,l),
(60,0,l)
);
}
);
width = 577;
},
{
anchors = (
{
name = bottom;
pos = (295,0);
},
{
name = center;
pos = (295,360);
},
{
name = top;
pos = (295,720);
}
);
layerId = "7706EA0A-ADAC-4E76-A745-8A9A965DB998";
shapes = (
{
closed = 1;
nodes = (
(534,0,l),
(534,70,l),
(106,70,l),
(134,31,l),
(525,660,l),
(525,720,l),
(71,720,l),
(71,650,l),
(479,650,l),
(451,689,l),
(60,60,l),
(60,0,l)
);
}
);
width = 589;
}
);
unicode = 90;
userData = {
KernOnName = Z;
};
}
{
glyphname = bracketleft;
kernRight = KO_bracketleft;
layers = (
{
layerId = "522FD917-7CD6-43A0-922F-6555542696CE";
shapes = (
{
closed = 1;
nodes = (
(409,-108,l),
(409,22,l),
(235,22,l),
(235,620,l),
(409,620,l),
(409,750,l),
(78,750,l),
(78,-108,l)
);
}
);
width = 457;
},
{
layerId = "AF447C8E-6A86-4BB0-AFAA-0E31F633710F";
shapes = (
{
closed = 1;
nodes = (
(317,-108,l),
(317,-60,l),
(143,-60,l),
(143,702,l),
(317,702,l),
(317,750,l),
(88,750,l),
(88,-108,l)
);
}
);
width = 375;
},
{
layerId = "7706EA0A-ADAC-4E76-A745-8A9A965DB998";
shapes = (
{
closed = 1;
nodes = (
(334,-108,l),
(334,-46,l),
(160,-46,l),
(160,688,l),
(334,688,l),
(334,750,l),
(88,750,l),
(88,-108,l)
);
}
);
width = 392;
}
);
unicode = 91;
userData = {
KernOnSpecialSpacing = {
L = NoKerning;
R = parenthesis;
};
};
}
{
glyphname = backslash;
layers = (
{
layerId = "522FD917-7CD6-43A0-922F-6555542696CE";
shapes = (
{
closed = 1;
nodes = (
(266,-85,l),
(407,-85,l),
(169,775,l),
(27,775,l)
);
}
);
width = 434;
},
{
layerId = "AF447C8E-6A86-4BB0-AFAA-0E31F633710F";
shapes = (
{
closed = 1;
nodes = (
(279,-55,l),
(333,-55,l),
(110,745,l),
(57,745,l)
);
}
);
width = 390;
},
{
layerId = "7706EA0A-ADAC-4E76-A745-8A9A965DB998";
shapes = (
{
closed = 1;
nodes = (
(282,-60,l),
(350,-60,l),
(125,750,l),
(57,750,l)
);
}
);
width = 407;
}
);
unicode = 92;
userData = {
KernOnSpecialSpacing = {
L = "spaced-off";
R = "spaced-off";
};
};
}
{
glyphname = asciicircum;
kernRight = KO_asciicircum;
layers = (
{
layerId = "522FD917-7CD6-43A0-922F-6555542696CE";
shapes = (
{
closed = 1;
nodes = (
(310,699,l),
(216,699,l),
(357,491,l),
(476,491,l),
(329,740,l),
(197,740,l),
(50,491,l),
(170,491,l)
);
}
);
width = 526;
},
{
layerId = "AF447C8E-6A86-4BB0-AFAA-0E31F633710F";
shapes = (
{
closed = 1;
nodes = (
(252,699,l),
(226,699,l),
(367,491,l),
(418,491,l),
(271,740,l),
(207,740,l),
(60,491,l),
(110,491,l)
);
}
);
width = 478;
},
{
layerId = "7706EA0A-ADAC-4E76-A745-8A9A965DB998";
shapes = (
{
closed = 1;
nodes = (
(263,699,l),
(226,699,l),
(367,491,l),
(429,491,l),
(282,740,l),
(207,740,l),
(60,491,l),
(122,491,l)
);
}
);
width = 489;
}
);
unicode = 94;
userData = {
KernOnSpecialSpacing = {
L = math;
R = math;
};
};
}
{
color = 9;
glyphname = a;
kernLeft = KO_a;
kernRight = KO_a;
layers = (
{
anchors = (
{
name = bottom;
pos = (293,0);
},
{
name = ogonek;
pos = (529,0);
},
{
name = top;
pos = (293,510);
}
);
layerId = "522FD917-7CD6-43A0-922F-6555542696CE";
shapes = (
{
closed = 1;
nodes = (
(269,-10,o),
(320,21,o),
(351,80,c),
(354,52,o),
(354,32,o),
(363,0,c),
(527,0,l),
(517,32,o),
(511,72,o),
(511,103,c),
(511,333,l),
(511,464,o),
(420,520,o),
(289,520,cs),
(152,520,o),
(60,450,o),
(53,336,c),
(-12,367,l),
(286,317,l),
(215,288,l),
(193,376,o),
(232,404,o),
(282,404,cs),
(322,404,o),
(348,386,o),
(348,348,c),
(348,324,l),
(232,300,l),
(128,281,o),
(43,233,o),
(43,128,cs),
(43,40,o),
(111,-10,o),
(196,-10,cs)
);
},
{
closed = 1;
nodes = (
(236,108,o),
(207,120,o),
(207,151,cs),
(207,190,o),
(237,208,o),
(272,214,cs),
(348,227,l),
(348,174,l),
(348,136,o),
(301,108,o),
(259,108,c)
);
}
);
width = 564;
},
{
anchors = (
{
name = bottom;
pos = (237,0);
},
{
name = ogonek;
pos = (418,0);
},
{
name = top;
pos = (237,510);
}
);
layerId = "AF447C8E-6A86-4BB0-AFAA-0E31F633710F";
shapes = (
{
closed = 1;
nodes = (
(266,-10,o),
(329,12,o),
(358,75,c),
(357,63,o),
(362,8,o),
(364,0,c),
(419,0,l),
(415,28,o),
(410,61,o),
(410,91,c),
(410,351,l),
(410,464,o),
(356,520,o),
(244,520,cs),
(139,520,o),
(50,467,o),
(53,352,c),
(26,384,l),
(136,364,l),
(109,343,l),
(104,426,o),
(163,464,o),
(241,464,cs),
(319,464,o),
(351,428,o),
(351,349,c),
(351,317,l),
(202,286,l),
(113,266,o),
(38,229,o),
(38,132,cs),
(38,40,o),
(107,-10,o),
(199,-10,cs)
);
},
{
closed = 1;
nodes = (
(140,46,o),
(96,71,o),
(96,131,cs),
(96,194,o),
(149,217,o),
(209,231,c),
(351,258,l),
(351,166,l),
(351,87,o),
(278,46,o),
(202,46,cs)
);
}
);
width = 480;
},
{
anchors = (
{
name = bottom;
pos = (253,0);
},
{
name = ogonek;
pos = (443,0);
},
{
name = top;
pos = (253,510);
}
);
layerId = "7706EA0A-ADAC-4E76-A745-8A9A965DB998";
shapes = (
{
closed = 1;
nodes = (
(273,-10,o),
(334,14,o),
(363,76,c),
(363,61,o),
(367,12,o),
(370,0,c),
(443,0,l),
(438,29,o),
(433,63,o),
(433,93,c),
(433,348,l),
(433,464,o),
(373,520,o),
(258,520,cs),
(147,520,o),
(58,464,o),
(59,349,c),
(26,381,l),
(167,356,l),
(133,334,l),
(125,418,o),
(181,454,o),
(254,454,cs),
(326,454,o),
(357,421,o),
(357,349,c),
(357,318,l),
(213,288,l),
(121,268,o),
(45,229,o),
(45,131,cs),
(45,40,o),
(114,-10,o),
(205,-10,cs)
);
},
{
closed = 1;
nodes = (
(162,56,o),
(121,79,o),
(121,134,cs),
(121,193,o),
(169,215,o),
(226,228,c),
(357,253,l),
(357,167,l),
(357,95,o),
(289,56,o),
(218,56,cs)
);
}
);
width = 504;
}
);
unicode = 97;
userData = {
KernOnName = a;
};
}
{
color = 9;
glyphname = c;
kernLeft = KO_e;
kernRight = KO_c;
layers = (
{
anchors = (
{
name = bottom;
pos = (276,0);
},
{
name = top;
pos = (288,510);
}
);
layerId = "522FD917-7CD6-43A0-922F-6555542696CE";
shapes = (
{
closed = 1;
nodes = (
(393,-10,o),
(491,45,o),
(523,150,c),
(374,190,l),
(362,141,o),
(327,118,o),
(288,118,cs),
(218,118,o),
(191,189,o),
(191,254,cs),
(191,307,o),
(206,392,o),
(288,392,cs),
(329,392,o),
(363,366,o),
(375,319,c),
(526,346,l),
(497,461,o),
(398,520,o),
(284,520,cs),
(124,520,o),
(20,401,o),
(20,256,cs),
(20,105,o),
(122,-10,o),
(283,-10,cs)
);
}
);
width = 549;
},
{
anchors = (
{
name = bottom;
pos = (258,0);
},
{
name = top;
pos = (257,510);
}
);
layerId = "AF447C8E-6A86-4BB0-AFAA-0E31F633710F";
shapes = (
{
closed = 1;
nodes = (
(362,-11,o),
(431,62,o),
(449,154,c),
(396,167,l),
(389,112,o),
(347,44,o),
(259,44,cs),
(159,44,o),
(100,140,o),
(100,249,cs),
(100,362,o),
(145,465,o),
(259,465,cs),
(346,465,o),
(386,404,o),
(394,341,c),
(449,350,l),
(437,441,o),
(371,519,o),
(258,519,cs),
(113,519,o),
(38,387,o),
(38,256,cs),
(38,117,o),
(122,-11,o),
(258,-11,cs)
);
}
);
width = 487;
},
{
anchors = (
{
name = bottom;
pos = (264,0);
},
{
name = top;
pos = (265,510);
}
);
layerId = "7706EA0A-ADAC-4E76-A745-8A9A965DB998";
shapes = (
{
closed = 1;
nodes = (
(370,-11,o),
(444,59,o),
(464,153,c),
(395,171,l),
(387,116,o),
(346,56,o),
(267,56,cs),
(172,56,o),
(118,147,o),
(118,250,cs),
(118,353,o),
(158,453,o),
(267,453,cs),
(346,453,o),
(385,398,o),
(394,337,c),
(465,349,l),
(450,445,o),
(378,519,o),
(265,519,cs),
(118,519,o),
(38,389,o),
(38,256,cs),
(38,115,o),
(125,-11,o),
(265,-11,cs)
);
}
);
width = 503;
}
);
unicode = 99;
}
{
glyphname = d;
kernLeft = KO_d;
layers = (
{
anchors = (
{
name = bottom;
pos = (306,0);
},
{
name = center;
pos = (306,255);
},
{
name = top;
pos = (306,736);
},
{
name = topright;
pos = (601,720);
}
);
layerId = "522FD917-7CD6-43A0-922F-6555542696CE";
shapes = (
{
closed = 1;
nodes = (
(556,0,l),
(556,720,l),
(392,720,l),
(392,397,l),
(403,398,l),
(394,475,o),
(332,520,o),
(243,520,cs),
(110,520,o),
(24,415,o),
(24,252,cs),
(24,93,o),
(105,-10,o),
(237,-10,cs),
(324,-10,o),
(392,34,o),
(404,107,c),
(394,108,l),
(394,0,l)
);
},
{
closed = 1;
nodes = (
(237,120,o),
(195,165,o),
(195,254,cs),
(195,343,o),
(237,390,o),
(294,390,cs),
(352,390,o),
(393,345,o),
(393,255,cs),
(393,167,o),
(352,120,o),
(296,120,cs)
);
}
);
width = 613;
},
{
anchors = (
{
name = bottom;
pos = (280,0);
},
{
name = center;
pos = (280,255);
},
{
name = top;
pos = (280,736);
},
{
name = topright;
pos = (553,720);
}
);
layerId = "AF447C8E-6A86-4BB0-AFAA-0E31F633710F";
shapes = (
{
closed = 1;
nodes = (
(483,0,l),
(483,720,l),
(422,720,l),
(422,384,l),
(438,387,l),
(415,469,o),
(350,519,o),
(260,519,cs),
(127,519,o),
(41,414,o),
(41,252,cs),
(41,93,o),
(126,-10,o),
(258,-10,cs),
(344,-10,o),
(412,37,o),
(437,113,c),
(428,118,l),
(428,0,l)
);
},
{
closed = 1;
nodes = (
(162,46,o),
(103,123,o),
(103,253,cs),
(103,386,o),
(161,463,o),
(264,463,cs),
(367,463,o),
(427,384,o),
(427,256,cs),
(427,126,o),
(368,46,o),
(264,46,cs)
);
}
);
width = 559;
},
{
anchors = (
{
name = bottom;
pos = (287,0);
},
{
name = center;
pos = (287,255);
},
{
name = top;
pos = (287,736);
},
{
name = topright;
pos = (564,720);
}
);
layerId = "7706EA0A-ADAC-4E76-A745-8A9A965DB998";
shapes = (
{
closed = 1;
nodes = (
(498,0,l),
(498,720,l),
(420,720,l),
(420,386,l),
(435,389,l),
(414,471,o),
(349,519,o),
(260,519,cs),
(127,519,o),
(41,414,o),
(41,252,cs),
(41,93,o),
(125,-10,o),
(257,-10,cs),
(343,-10,o),
(411,36,o),
(434,112,c),
(425,116,l),
(425,0,l)
);
},
{
closed = 1;
nodes = (
(177,58,o),
(121,130,o),
(121,253,cs),
(121,378,o),
(176,451,o),
(272,451,cs),
(367,451,o),
(424,378,o),
(424,256,cs),
(424,132,o),
(368,58,o),
(272,58,cs)
);
}
);
width = 574;
}
);
unicode = 100;
userData = {
KernOnName = d;
KernOnSpecialSpacing = {
R = NoKerning;
};
};
}
{
color = 9;
glyphname = e;
kernLeft = KO_e;
kernRight = KO_e;
layers = (
{
anchors = (
{
name = bottom;
pos = (281,0);
},
{
name = ogonek;
pos = (426,20);
},
{
name = top;
pos = (291,510);
}
);
layerId = "522FD917-7CD6-43A0-922F-6555542696CE";
shapes = (
{
closed = 1;
nodes = (
(395,-10,o),
(473,31,o),
(514,116,c),
(376,154,l),
(360,121,o),
(331,106,o),
(292,106,cs),
(196,106,o),
(185,194,o),
(187,207,c),
(537,207,l),
(554,398,o),
(468,520,o),
(288,520,cs),
(124,520,o),
(20,407,o),
(20,253,cs),
(20,95,o),
(129,-10,o),
(293,-10,cs)
);
},
{
closed = 1;
nodes = (
(200,369,o),
(231,404,o),
(286,404,cs),
(341,404,o),
(375,373,o),
(377,312,c),
(189,312,l)
);
}
);
width = 559;
},
{
anchors = (
{
name = bottom;
pos = (258,0);
},
{
name = ogonek;
pos = (373,20);
},
{
name = top;
pos = (269,510);
}
);
layerId = "AF447C8E-6A86-4BB0-AFAA-0E31F633710F";
shapes = (
{
closed = 1;
nodes = (
(356,-10,o),
(430,45,o),
(461,129,c),
(407,143,l),
(386,79,o),
(331,46,o),
(268,46,cs),
(159,46,o),
(112,139,o),
(102,238,c),
(476,238,l),
(491,296,o),
(476,520,o),
(269,520,cs),
(124,520,o),
(39,407,o),
(39,247,cs),
(39,89,o),
(142,-10,o),
(263,-10,cs)
);
},
{
closed = 1;
nodes = (
(116,389,o),
(172,464,o),
(268,464,cs),
(366,464,o),
(409,388,o),
(419,295,c),
(104,295,l)
);
}
);
width = 519;
},
{
anchors = (
{
name = bottom;
pos = (265,0);
},
{
name = ogonek;
pos = (385,20);
},
{
name = top;
pos = (276,510);
}
);
layerId = "7706EA0A-ADAC-4E76-A745-8A9A965DB998";
shapes = (
{
closed = 1;
nodes = (
(365,-10,o),
(440,42,o),
(473,127,c),
(405,145,l),
(385,86,o),
(334,56,o),
(275,56,cs),
(168,56,o),
(127,148,o),
(119,233,c),
(489,233,l),
(504,312,o),
(478,520,o),
(275,520,cs),
(127,520,o),
(39,407,o),
(39,248,cs),
(39,90,o),
(143,-10,o),
(271,-10,cs)
);
},
{
closed = 1;
nodes = (
(133,386,o),
(185,454,o),
(274,454,cs),
(365,454,o),
(406,386,o),
(415,298,c),
(121,298,l)
);
}
);
width = 532;
}
);
metricLeft = o;
metricRight = o;
unicode = 101;
userData = {
KernOnName = e;
};
}
{
glyphname = f;
kernLeft = KO_f;
kernRight = KO_f;
layers = (
{
layerId = "522FD917-7CD6-43A0-922F-6555542696CE";
shapes = (
{
closed = 1;
nodes = (
(253,0,l),
(253,539,ls),
(253,578,o),
(274,601,o),
(319,601,cs),
(336,601,o),
(346,599,o),
(357,594,c),
(357,720,l),
(334,727,o),
(316,730,o),
(289,730,cs),
(155,730,o),
(88,667,o),
(88,540,cs),
(88,0,l)
);
},
{
closed = 1;
nodes = (
(348,385,l),
(348,510,l),
(13,510,l),
(13,385,l)
);
}
);
width = 371;
},
{
layerId = "AF447C8E-6A86-4BB0-AFAA-0E31F633710F";
shapes = (
{
closed = 1;
nodes = (
(178,0,l),
(178,594,ls),
(178,649,o),
(205,680,o),
(266,680,cs),
(286,680,o),
(302,678,o),
(310,676,c),
(310,724,l),
(302,727,o),
(290,730,o),
(263,730,cs),
(167,730,o),
(119,680,o),
(119,599,cs),
(119,0,l)
);
},
{
closed = 1;
nodes = (
(298,456,l),
(298,510,l),
(16,510,l),
(16,456,l)
);
}
);
width = 326;
},
{
layerId = "7706EA0A-ADAC-4E76-A745-8A9A965DB998";
shapes = (
{
closed = 1;
nodes = (
(191,0,l),
(191,585,ls),
(191,637,o),
(217,667,o),
(275,667,cs),
(293,667,o),
(309,665,o),
(318,662,c),
(318,723,l),
(307,727,o),
(294,730,o),
(268,730,cs),
(165,730,o),
(114,678,o),
(114,589,cs),
(114,0,l)
);
},
{
closed = 1;
nodes = (
(307,444,l),
(307,510,l),
(16,510,l),
(16,444,l)
);
}
);
width = 334;
}
);
unicode = 102;
userData = {
KernOnName = f;
};
}
{
color = 9;
glyphname = g;
kernLeft = KO_g;
layers = (
{
anchors = (
{
name = bottom;
pos = (306,-205);
},
{
name = top;
pos = (294,510);
}
);
layerId = "522FD917-7CD6-43A0-922F-6555542696CE";
shapes = (
{
closed = 1;
nodes = (
(448,-214,o),
(556,-135,o),
(556,20,c),
(556,510,l),
(395,510,l),
(395,429,l),
(373,492,o),
(317,520,o),
(245,520,cs),
(119,520,o),
(25,423,o),
(25,263,cs),
(25,124,o),
(96,11,o),
(237,11,cs),
(301,11,o),
(368,36,o),
(392,98,c),
(392,11,l),
(392,-56,o),
(348,-73,o),
(283,-73,cs),
(257,-73,o),
(214,-68,o),
(201,-43,c),
(56,-82,l),
(87,-177,o),
(194,-214,o),
(292,-214,cs)
);
},
{
closed = 1;
nodes = (
(227,136,o),
(195,194,o),
(195,264,cs),
(195,332,o),
(228,394,o),
(294,394,cs),
(362,394,o),
(393,336,o),
(393,264,cs),
(393,193,o),
(361,136,o),
(296,136,cs)
);
}
);
width = 613;
},
{
anchors = (
{
name = bottom;
pos = (280,-205);
},
{
name = top;
pos = (264,510);
}
);
layerId = "AF447C8E-6A86-4BB0-AFAA-0E31F633710F";
shapes = (
{
closed = 1;
nodes = (
(399,-214,o),
(483,-129,o),
(483,9,c),
(483,510,l),
(429,510,l),
(429,416,l),
(401,486,o),
(337,519,o),
(262,519,cs),
(113,519,o),
(42,396,o),
(42,256,cs),
(42,112,o),
(119,-1,o),
(253,-1,cs),
(330,-1,o),
(392,36,o),
(422,96,c),
(422,9,l),
(422,-98,o),
(375,-163,o),
(269,-163,cs),
(194,-163,o),
(129,-134,o),
(115,-65,c),
(60,-80,l),
(81,-164,o),
(161,-214,o),
(261,-214,cs)
);
},
{
closed = 1;
nodes = (
(154,56,o),
(104,146,o),
(104,258,cs),
(104,372,o),
(153,464,o),
(264,464,cs),
(377,464,o),
(427,372,o),
(427,262,cs),
(427,150,o),
(377,56,o),
(265,56,c)
);
}
);
width = 559;
},
{
anchors = (
{
name = bottom;
pos = (287,-205);
},
{
name = top;
pos = (272,510);
}
);
layerId = "7706EA0A-ADAC-4E76-A745-8A9A965DB998";
shapes = (
{
closed = 1;
nodes = (
(410,-214,o),
(498,-130,o),
(498,11,c),
(498,510,l),
(426,510,l),
(426,418,l),
(399,487,o),
(336,519,o),
(262,519,cs),
(117,519,o),
(42,401,o),
(42,257,cs),
(42,114,o),
(118,1,o),
(253,1,cs),
(328,1,o),
(391,36,o),
(420,96,c),
(420,9,l),
(420,-91,o),
(374,-148,o),
(274,-148,cs),
(207,-148,o),
(146,-123,o),
(132,-61,c),
(62,-80,l),
(85,-167,o),
(170,-214,o),
(269,-214,cs)
);
},
{
closed = 1;
nodes = (
(169,69,o),
(122,154,o),
(122,259,cs),
(122,365,o),
(168,452,o),
(272,452,cs),
(377,452,o),
(424,366,o),
(424,262,cs),
(424,157,o),
(377,69,o),
(273,69,c)
);
}
);
width = 574;
}
);
unicode = 103;
userData = {
KernOnSpecialSpacing = {
R = NoKerning;
};
};
}
{
glyphname = h;
kernRight = KO_n;
layers = (
{
anchors = (
{
name = bottom;
pos = (275,0);
},
{
name = top;
pos = (275,510);
}
);
layerId = "522FD917-7CD6-43A0-922F-6555542696CE";
shapes = (
{
closed = 1;
nodes = (
(221,0,l),
(221,720,l),
(57,720,l),
(57,0,l)
);
},
{
closed = 1;
nodes = (
(551,0,l),
(551,352,ls),
(551,456,o),
(495,520,o),
(390,520,cs),
(299,520,o),
(239,474,o),
(207,399,c),
(221,287,l),
(221,347,o),
(260,389,o),
(318,389,cs),
(363,389,o),
(386,366,o),
(386,321,cs),
(386,0,l)
);
}
);
width = 603;
},
{
anchors = (
{
name = bottom;
pos = (300,0);
},
{
name = top;
pos = (300,510);
}
);
layerId = "AF447C8E-6A86-4BB0-AFAA-0E31F633710F";
shapes = (
{
closed = 1;
nodes = (
(137,0,l),
(137,720,l),
(77,720,l),
(77,0,l)
);
},
{
closed = 1;
nodes = (
(481,0,l),
(481,364,ls),
(481,457,o),
(414,520,o),
(315,520,cs),
(230,520,o),
(157,474,o),
(125,403,c),
(137,287,l),
(137,391,o),
(206,465,o),
(308,465,cs),
(383,465,o),
(422,425,o),
(422,346,cs),
(422,0,l)
);
}
);
width = 553;
},
{
anchors = (
{
name = bottom;
pos = (299,0);
},
{
name = top;
pos = (299,510);
}
);
layerId = "7706EA0A-ADAC-4E76-A745-8A9A965DB998";
shapes = (
{
closed = 1;
nodes = (
(154,0,l),
(154,720,l),
(77,720,l),
(77,0,l)
);
},
{
closed = 1;
nodes = (
(496,0,l),
(496,362,ls),
(496,457,o),
(431,520,o),
(331,520,cs),
(245,520,o),
(174,474,o),
(142,402,c),
(154,287,l),
(154,383,o),
(218,452,o),
(313,452,cs),
(383,452,o),
(419,415,o),
(419,342,cs),
(419,0,l)
);
}
);
width = 568;
}
);
metricLeft = n;
metricRight = n;
unicode = 104;
userData = {
KernOnSpecialSpacing = {
L = NoKerning;
};
};
}
{
glyphname = k;
kernLeft = KO_j;
kernRight = KO_k.ss04;
layers = (
{
anchors = (
{
name = bottom;
pos = (279,0);
},
{
name = top;
pos = (282,740);
}
);
layerId = "522FD917-7CD6-43A0-922F-6555542696CE";
shapes = (
{
closed = 1;
nodes = (
(221,0,l),
(221,720,l),
(57,720,l),
(57,0,l)
);
},
{
closed = 1;
nodes = (
(200,120,l),
(330,270,l),
(345,274,l),
(539,510,l),
(353,510,l),
(144,240,l)
);
},
{
closed = 1;
nodes = (
(224,261,l),
(375,0,l),
(555,-1,l),
(359,319,l)
);
}
);
width = 559;
},
{
anchors = (
{
name = bottom;
pos = (269,0);
},
{
name = top;
pos = (244,740);
}
);
layerId = "AF447C8E-6A86-4BB0-AFAA-0E31F633710F";
shapes = (
{
closed = 1;
nodes = (
(137,0,l),
(137,720,l),
(77,720,l),
(77,0,l)
);
},
{
closed = 1;
nodes = (
(123,138,l),
(252,276,l),
(257,278,l),
(468,510,l),
(391,510,l),
(117,210,l)
);
},
{
closed = 1;
nodes = (
(220,284,l),
(408,0,l),
(480,5,l),
(270,312,l)
);
}
);
width = 492;
},
{
anchors = (
{
name = bottom;
pos = (274,0);
},
{
name = top;
pos = (254,740);
}
);
layerId = "7706EA0A-ADAC-4E76-A745-8A9A965DB998";
shapes = (
{
closed = 1;
nodes = (
(154,0,l),
(154,720,l),
(77,720,l),
(77,0,l)
);
},
{
closed = 1;
nodes = (
(139,135,l),
(268,275,l),
(275,277,l),
(483,510,l),
(388,510,l),
(125,215,l)
);
},
{
closed = 1;
nodes = (
(224,280,l),
(406,0,l),
(496,4,l),
(288,313,l)
);
}
);
width = 508;
}
);
unicode = 107;
}
{
glyphname = l;
layers = (
{
anchors = (
{
name = bottom;
pos = (140,0);
},
{
name = center;
pos = (140,370);
},
{
name = top;
pos = (140,720);
},
{
name = topright;
pos = (266,720);
}
);
layerId = "522FD917-7CD6-43A0-922F-6555542696CE";
shapes = (
{
closed = 1;
nodes = (
(221,0,l),
(221,720,l),
(57,720,l),
(57,0,l)
);
}
);
width = 279;
},
{
anchors = (
{
name = bottom;
pos = (107,0);
},
{
name = center;
pos = (107,370);
},
{
name = top;
pos = (107,720);
},
{
name = topright;
pos = (207,720);
}
);
layerId = "AF447C8E-6A86-4BB0-AFAA-0E31F633710F";
shapes = (
{
closed = 1;
nodes = (
(137,0,l),
(137,720,l),
(77,720,l),
(77,0,l)
);
}
);
width = 214;
},
{
anchors = (
{
name = bottom;
pos = (116,0);
},
{
name = center;
pos = (116,370);
},
{
name = top;
pos = (116,720);
},
{
name = topright;
pos = (220,720);
}
);
layerId = "7706EA0A-ADAC-4E76-A745-8A9A965DB998";
shapes = (
{
closed = 1;
nodes = (
(154,0,l),
(154,720,l),
(77,720,l),
(77,0,l)
);
}
);
width = 231;
}
);
unicode = 108;
userData = {
KernOnSpecialSpacing = {
L = NoKerning;
R = NoKerning;
};
};
}
{
glyphname = m;
kernRight = KO_n;
layers = (
{
layerId = "522FD917-7CD6-43A0-922F-6555542696CE";
shapes = (
{
closed = 1;
nodes = (
(221,0,l),
(221,395,l),
(219,395,l),
(219,510,l),
(57,510,l),
(57,0,l)
);
},
{
closed = 1;
nodes = (
(542,0,l),
(542,369,ls),
(542,455,o),
(484,520,o),
(384,520,cs),
(299,520,o),
(239,475,o),
(207,399,c),
(221,294,l),
(221,352,o),
(260,389,o),
(312,389,cs),
(352,389,o),
(376,370,o),
(376,327,cs),
(376,0,l)
);
},
{
closed = 1;
nodes = (
(861,0,l),
(861,359,ls),
(861,455,o),
(805,520,o),
(702,520,cs),
(610,520,o),
(551,475,o),
(519,399,c),
(542,294,l),
(542,352,o),
(581,389,o),
(631,389,cs),
(672,389,o),
(695,371,o),
(695,327,cs),
(695,0,l)
);
}
);
width = 913;
},
{
layerId = "AF447C8E-6A86-4BB0-AFAA-0E31F633710F";
shapes = (
{
closed = 1;
nodes = (
(137,0,l),
(137,395,l),
(131,395,l),
(131,510,l),
(77,510,l),
(77,0,l)
);
},
{
closed = 1;
nodes = (
(461,0,l),
(461,364,ls),
(461,461,o),
(397,520,o),
(306,520,cs),
(230,520,o),
(157,474,o),
(125,403,c),
(137,286,l),
(137,389,o),
(207,465,o),
(302,465,cs),
(366,465,o),
(401,429,o),
(401,351,cs),
(401,0,l)
);
},
{
closed = 1;
nodes = (
(786,0,l),
(786,366,ls),
(786,461,o),
(718,520,o),
(627,520,cs),
(552,520,o),
(475,475,o),
(442,404,c),
(461,286,l),
(461,391,o),
(532,465,o),
(626,465,cs),
(691,465,o),
(726,428,o),
(726,351,cs),
(726,0,l)
);
}
);
width = 858;
},
{
layerId = "7706EA0A-ADAC-4E76-A745-8A9A965DB998";
shapes = (
{
closed = 1;
nodes = (
(154,0,l),
(154,395,l),
(149,395,l),
(149,510,l),
(77,510,l),
(77,0,l)
);
},
{
closed = 1;
nodes = (
(478,0,l),
(478,365,ls),
(478,460,o),
(415,520,o),
(322,520,cs),
(245,520,o),
(174,474,o),
(142,402,c),
(154,287,l),
(154,383,o),
(219,452,o),
(307,452,cs),
(367,452,o),
(400,419,o),
(400,347,cs),
(400,0,l)
);
},
{
closed = 1;
nodes = (
(802,0,l),
(802,365,ls),
(802,460,o),
(736,520,o),
(643,520,cs),
(565,520,o),
(491,475,o),
(458,403,c),
(478,287,l),
(478,384,o),
(543,452,o),
(630,452,cs),
(691,452,o),
(724,419,o),
(724,347,cs),
(724,0,l)
);
}
);
width = 874;
}
);
metricLeft = n;
metricRight = n;
unicode = 109;
userData = {
KernOnSpecialSpacing = {
L = NoKerning;
};
};
}
{
glyphname = n;
kernRight = KO_n;
layers = (
{
anchors = (
{
name = bottom;
pos = (307,0);
},
{
name = top;
pos = (320,510);
}
);
layerId = "522FD917-7CD6-43A0-922F-6555542696CE";
shapes = (
{
closed = 1;
nodes = (
(221,0,l),
(221,395,l),
(219,395,l),
(219,510,l),
(57,510,l),
(57,0,l)
);
},
{
closed = 1;
nodes = (
(551,0,l),
(551,352,ls),
(551,456,o),
(495,520,o),
(390,520,cs),
(299,520,o),
(239,474,o),
(207,399,c),
(221,287,l),
(221,347,o),
(260,389,o),
(318,389,cs),
(363,389,o),
(386,366,o),
(386,321,cs),
(386,0,l)
);
}
);
width = 603;
},
{
anchors = (
{
name = bottom;
pos = (291,0);
},
{
name = top;
pos = (305,510);
}
);
layerId = "AF447C8E-6A86-4BB0-AFAA-0E31F633710F";
shapes = (
{
closed = 1;
nodes = (
(137,0,l),
(137,395,l),
(131,395,l),
(131,510,l),
(77,510,l),
(77,0,l)
);
},
{
closed = 1;
nodes = (
(481,0,l),
(481,364,ls),
(481,457,o),
(414,520,o),
(315,520,cs),
(230,520,o),
(157,474,o),
(125,403,c),
(137,287,l),
(137,391,o),
(206,465,o),
(308,465,cs),
(383,465,o),
(422,425,o),
(422,346,cs),
(422,0,l)
);
}
);
width = 553;
},
{
anchors = (
{
name = bottom;
pos = (297,0);
},
{
name = top;
pos = (311,510);
}
);
layerId = "7706EA0A-ADAC-4E76-A745-8A9A965DB998";
shapes = (
{
closed = 1;
nodes = (
(154,0,l),
(154,395,l),
(149,395,l),
(149,510,l),
(77,510,l),
(77,0,l)
);
},
{
closed = 1;
nodes = (
(496,0,l),
(496,362,ls),
(496,457,o),
(431,520,o),
(331,520,cs),
(245,520,o),
(174,474,o),
(142,402,c),
(154,287,l),
(154,383,o),
(218,452,o),
(313,452,cs),
(383,452,o),
(419,415,o),
(419,342,cs),
(419,0,l)
);
}
);
width = 568;
}
);
unicode = 110;
userData = {
KernOnName = n;
KernOnSpecialSpacing = {
L = NoKerning;
};
};
}
{
glyphname = o;
kernLeft = KO_e;
kernRight = KO_o;
layers = (
{
anchors = (
{
name = bottom;
pos = (295,0);
},
{
name = center;
pos = (295,255);
},
{
name = ogonek;
pos = (433,20);
},
{
name = top;
pos = (295,510);
},
{
name = topright;
pos = (565,510);
}
);
layerId = "522FD917-7CD6-43A0-922F-6555542696CE";
shapes = (
{
closed = 1;
nodes = (
(458,-10,o),
(570,95,o),
(570,257,cs),
(570,417,o),
(462,520,o),
(295,520,cs),
(130,520,o),
(20,418,o),
(20,257,cs),
(20,95,o),
(132,-10,o),
(295,-10,cs)
);
},
{
closed = 1;
nodes = (
(239,118,o),
(191,165,o),
(191,258,cs),
(191,348,o),
(238,391,o),
(295,391,cs),
(351,391,o),
(398,348,o),
(398,258,cs),
(398,164,o),
(351,118,o),
(295,118,cs)
);
}
);
width = 590;
},
{
anchors = (
{
name = bottom;
pos = (270,0);
},
{
name = center;
pos = (270,255);
},
{
name = ogonek;
pos = (381,20);
},
{
name = top;
pos = (270,510);
},
{
name = topright;
pos = (524,510);
}
);
layerId = "AF447C8E-6A86-4BB0-AFAA-0E31F633710F";
shapes = (
{
closed = 1;
nodes = (
(411,-10,o),
(499,107,o),
(499,257,cs),
(499,408,o),
(409,520,o),
(270,520,cs),
(131,520,o),
(39,408,o),
(39,257,cs),
(39,107,o),
(130,-10,o),
(270,-10,cs)
);
},
{
closed = 1;
nodes = (
(166,44,o),
(101,133,o),
(101,258,cs),
(101,383,o),
(166,467,o),
(270,467,cs),
(375,467,o),
(439,383,o),
(439,258,cs),
(439,133,o),
(375,44,o),
(270,44,cs)
);
}
);
width = 538;
},
{
anchors = (
{
name = bottom;
pos = (277,0);
},
{
name = center;
pos = (277,255);
},
{
name = ogonek;
pos = (393,20);
},
{
name = top;
pos = (277,510);
},
{
name = topright;
pos = (534,510);
}
);
layerId = "7706EA0A-ADAC-4E76-A745-8A9A965DB998";
shapes = (
{
closed = 1;
nodes = (
(422,-10,o),
(514,105,o),
(514,257,cs),
(514,410,o),
(421,520,o),
(277,520,cs),
(134,520,o),
(39,410,o),
(39,257,cs),
(39,105,o),
(133,-10,o),
(277,-10,cs)
);
},
{
closed = 1;
nodes = (
(181,56,o),
(119,138,o),
(119,258,cs),
(119,377,o),
(181,454,o),
(277,454,cs),
(374,454,o),
(435,377,o),
(435,258,cs),
(435,138,o),
(374,56,o),
(277,56,cs)
);
}
);
width = 553;
}
);
unicode = 111;
userData = {
KernOnName = o;
};
}
{
glyphname = p;
kernRight = KO_p;
layers = (
{
layerId = "522FD917-7CD6-43A0-922F-6555542696CE";
shapes = (
{
closed = 1;
nodes = (
(503,-10,o),
(589,95,o),
(589,258,cs),
(589,418,o),
(508,520,o),
(378,520,cs),
(290,520,o),
(222,476,o),
(210,403,c),
(219,401,l),
(219,510,l),
(57,510,l),
(57,-205,l),
(221,-205,l),
(221,113,l),
(214,112,l),
(223,35,o),
(281,-10,o),
(370,-10,cs)
);
},
{
closed = 1;
nodes = (
(260,120,o),
(220,166,o),
(220,255,cs),
(220,343,o),
(261,389,o),
(318,389,cs),
(377,389,o),
(418,344,o),
(418,256,cs),
(418,167,o),
(377,120,o),
(319,120,cs)
);
}
);
width = 613;
},
{
layerId = "AF447C8E-6A86-4BB0-AFAA-0E31F633710F";
shapes = (
{
closed = 1;
nodes = (
(432,-9,o),
(518,96,o),
(518,258,cs),
(518,416,o),
(435,520,o),
(306,520,cs),
(218,520,o),
(146,473,o),
(121,397,c),
(131,393,l),
(131,510,l),
(77,510,l),
(77,-205,l),
(137,-205,l),
(137,126,l),
(120,123,l),
(143,41,o),
(209,-9,o),
(299,-9,cs)
);
},
{
closed = 1;
nodes = (
(194,47,o),
(132,125,o),
(132,254,cs),
(132,385,o),
(191,465,o),
(295,465,cs),
(398,465,o),
(457,387,o),
(457,257,cs),
(457,125,o),
(398,47,o),
(296,47,cs)
);
}
);
width = 559;
},
{
layerId = "7706EA0A-ADAC-4E76-A745-8A9A965DB998";
shapes = (
{
closed = 1;
nodes = (
(447,-9,o),
(533,96,o),
(533,258,cs),
(533,417,o),
(450,520,o),
(321,520,cs),
(234,520,o),
(162,474,o),
(139,398,c),
(149,394,l),
(149,510,l),
(77,510,l),
(77,-205,l),
(154,-205,l),
(154,124,l),
(139,121,l),
(160,39,o),
(225,-9,o),
(314,-9,cs)
);
},
{
closed = 1;
nodes = (
(208,59,o),
(150,132,o),
(150,254,cs),
(150,378,o),
(206,452,o),
(302,452,cs),
(398,452,o),
(454,380,o),
(454,257,cs),
(454,132,o),
(398,59,o),
(303,59,cs)
);
}
);
width = 574;
}
);
unicode = 112;
userData = {
KernOnName = p;
KernOnSpecialSpacing = {
L = NoKerning;
};
};
}
{
glyphname = q;
kernLeft = KO_d;
layers = (
{
layerId = "522FD917-7CD6-43A0-922F-6555542696CE";
shapes = (
{
closed = 1;
nodes = (
(556,-205,l),
(556,510,l),
(394,510,l),
(394,397,l),
(403,398,l),
(394,475,o),
(333,520,o),
(244,520,cs),
(110,520,o),
(24,415,o),
(24,252,cs),
(24,92,o),
(105,-10,o),
(237,-10,cs),
(324,-10,o),
(392,34,o),
(404,107,c),
(392,108,l),
(392,-205,l)
);
},
{
closed = 1;
nodes = (
(234,120,o),
(195,164,o),
(195,254,cs),
(195,344,o),
(234,390,o),
(294,390,cs),
(356,390,o),
(393,345,o),
(393,255,cs),
(393,167,o),
(356,120,o),
(296,120,cs)
);
}
);
width = 613;
},
{
layerId = "AF447C8E-6A86-4BB0-AFAA-0E31F633710F";
shapes = (
{
closed = 1;
nodes = (
(483,-205,l),
(483,510,l),
(428,510,l),
(428,384,l),
(438,387,l),
(415,469,o),
(351,519,o),
(260,519,cs),
(127,519,o),
(41,414,o),
(41,252,cs),
(41,93,o),
(127,-10,o),
(258,-10,cs),
(344,-10,o),
(412,37,o),
(437,113,c),
(422,118,l),
(422,-205,l)
);
},
{
closed = 1;
nodes = (
(162,46,o),
(103,124,o),
(103,253,cs),
(103,384,o),
(161,463,o),
(264,463,cs),
(366,463,o),
(427,384,o),
(427,256,cs),
(427,125,o),
(367,46,o),
(264,46,cs)
);
}
);
width = 559;
},
{
layerId = "7706EA0A-ADAC-4E76-A745-8A9A965DB998";
shapes = (
{
closed = 1;
nodes = (
(498,-205,l),
(498,510,l),
(425,510,l),
(425,386,l),
(435,389,l),
(414,471,o),
(350,519,o),
(260,519,cs),
(127,519,o),
(41,414,o),
(41,252,cs),
(41,93,o),
(126,-10,o),
(257,-10,cs),
(343,-10,o),
(411,36,o),
(434,112,c),
(420,116,l),
(420,-205,l)
);
},
{
closed = 1;
nodes = (
(177,58,o),
(121,130,o),
(121,253,cs),
(121,378,o),
(176,451,o),
(272,451,cs),
(367,451,o),
(424,378,o),
(424,256,cs),
(424,132,o),
(368,58,o),
(272,58,cs)
);
}
);
width = 574;
}
);
unicode = 113;
userData = {
KernOnSpecialSpacing = {
R = NoKerning;
};
};
}
{
glyphname = r;
kernRight = KO_r;
layers = (
{
anchors = (
{
name = bottom;
pos = (135,0);
},
{
name = top;
pos = (213,510);
}
);
layerId = "522FD917-7CD6-43A0-922F-6555542696CE";
shapes = (
{
closed = 1;
nodes = (
(221,0,l),
(221,390,l),
(219,390,l),
(219,510,l),
(57,510,l),
(57,0,l)
);
},
{
closed = 1;
nodes = (
(221,343,o),
(262,364,o),
(349,364,cs),
(365,364,o),
(375,363,o),
(382,361,c),
(382,516,l),
(375,519,o),
(366,520,o),
(357,520,cs),
(281,520,o),
(231,474,o),
(209,385,c),
(221,269,l)
);
}
);
width = 395;
},
{
anchors = (
{
name = bottom;
pos = (107,0);
},
{
name = top;
pos = (198,510);
}
);
layerId = "AF447C8E-6A86-4BB0-AFAA-0E31F633710F";
shapes = (
{
closed = 1;
nodes = (
(137,0,l),
(137,384,l),
(131,384,l),
(131,510,l),
(77,510,l),
(77,0,l)
);
},
{
closed = 1;
nodes = (
(137,391,o),
(190,460,o),
(286,460,cs),
(301,460,o),
(311,459,o),
(318,457,c),
(318,516,l),
(311,519,o),
(302,520,o),
(286,520,cs),
(211,520,o),
(149,476,o),
(123,391,c),
(137,281,l)
);
}
);
width = 341;
},
{
anchors = (
{
name = bottom;
pos = (115,0);
},
{
name = top;
pos = (204,510);
}
);
layerId = "7706EA0A-ADAC-4E76-A745-8A9A965DB998";
shapes = (
{
closed = 1;
nodes = (
(154,0,l),
(154,385,l),
(149,385,l),
(149,510,l),
(77,510,l),
(77,0,l)
);
},
{
closed = 1;
nodes = (
(154,383,o),
(205,444,o),
(300,444,cs),
(315,444,o),
(325,443,o),
(332,441,c),
(332,516,l),
(325,519,o),
(316,520,o),
(301,520,cs),
(226,520,o),
(166,475,o),
(141,390,c),
(154,279,l)
);
}
);
width = 355;
}
);
unicode = 114;
userData = {
KernOnName = r;
KernOnSpecialSpacing = {
L = NoKerning;
};
};
}
{
color = 9;
glyphname = s;
kernLeft = KO_s;
kernRight = KO_s;
layers = (
{
anchors = (
{
name = bottom;
pos = (264,2);
},
{
name = top;
pos = (253,510);
}
);
layerId = "522FD917-7CD6-43A0-922F-6555542696CE";
shapes = (
{
closed = 1;
nodes = (
(382,-10,o),
(485,33,o),
(485,150,cs),
(485,236,o),
(427,290,o),
(342,311,cs),
(253,333,ls),
(225,340,o),
(190,348,o),
(190,375,cs),
(190,405,o),
(226,411,o),
(255,411,cs),
(312,411,o),
(360,392,o),
(325,290,c),
(260,339,l),
(549,388,l),
(481,335,l),
(485,468,o),
(379,520,o),
(256,520,cs),
(141,520,o),
(46,473,o),
(46,361,cs),
(46,263,o),
(131,223,o),
(210,204,cs),
(289,185,ls),
(318,178,o),
(341,172,o),
(341,141,cs),
(341,106,o),
(301,99,o),
(266,99,cs),
(203,99,o),
(136,132,o),
(178,224,c),
(238,192,l),
(-42,118,l),
(24,175,l),
(20,45,o),
(138,-10,o),
(267,-10,cs)
);
}
);
width = 508;
},
{
anchors = (
{
name = bottom;
pos = (222,-9);
},
{
name = top;
pos = (210,510);
}
);
layerId = "AF447C8E-6A86-4BB0-AFAA-0E31F633710F";
shapes = (
{
closed = 1;
nodes = (
(316,-9,o),
(393,32,o),
(393,126,cs),
(393,205,o),
(338,249,o),
(266,275,cs),
(194,301,ls),
(147,318,o),
(110,343,o),
(110,388,cs),
(110,443,o),
(157,465,o),
(211,465,cs),
(280,465,o),
(323,428,o),
(330,351,c),
(300,369,l),
(410,388,l),
(385,360,l),
(383,464,o),
(312,521,o),
(214,521,cs),
(123,521,o),
(50,473,o),
(50,385,cs),
(50,309,o),
(102,267,o),
(172,243,cs),
(245,218,ls),
(298,200,o),
(333,175,o),
(333,128,cs),
(333,69,o),
(283,46,o),
(223,46,cs),
(141,46,o),
(93,91,o),
(86,176,c),
(116,161,l),
(6,131,l),
(29,162,l),
(38,50,o),
(110,-9,o),
(220,-9,cs)
);
}
);
width = 413;
},
{
anchors = (
{
name = bottom;
pos = (237,-7);
},
{
name = top;
pos = (225,510);
}
);
layerId = "7706EA0A-ADAC-4E76-A745-8A9A965DB998";
shapes = (
{
closed = 1;
nodes = (
(335,-9,o),
(416,32,o),
(416,130,cs),
(416,211,o),
(360,256,o),
(286,281,cs),
(210,307,ls),
(170,321,o),
(131,343,o),
(131,386,cs),
(131,437,o),
(177,456,o),
(226,456,cs),
(293,456,o),
(337,422,o),
(337,341,c),
(301,364,l),
(441,388,l),
(409,356,l),
(408,465,o),
(331,521,o),
(229,521,cs),
(134,521,o),
(57,473,o),
(57,381,cs),
(57,302,o),
(114,260,o),
(185,237,cs),
(262,212,ls),
(310,196,o),
(342,174,o),
(342,130,cs),
(342,75,o),
(293,55,o),
(238,55,cs),
(159,55,o),
(108,98,o),
(109,184,c),
(144,166,l),
(6,129,l),
(36,164,l),
(43,49,o),
(123,-9,o),
(236,-9,cs)
);
}
);
width = 444;
}
);
unicode = 115;
userData = {
KernOnName = s;
};
}
{
color = 9;
glyphname = t;
kernLeft = KO_t;
kernRight = KO_t;
layers = (
{
anchors = (
{
name = bottom;
pos = (265,0);
},
{
name = center;
pos = (138,255);
},
{
name = top;
pos = (138,510);
},
{
name = topright;
pos = (320,791);
}
);
layerId = "522FD917-7CD6-43A0-922F-6555542696CE";
shapes = (
{
closed = 1;
nodes = (
(312,-11,o),
(329,-10,o),
(346,-7,c),
(362,-4,o),
(374,0,o),
(383,5,c),
(383,129,l),
(375,126,o),
(368,123,o),
(359,121,c),
(350,119,o),
(342,118,o),
(333,118,c),
(310,118,o),
(294,124,o),
(283,133,c),
(270,144,o),
(265,158,o),
(265,177,c),
(265,703,l),
(100,629,l),
(100,183,l),
(100,116,o),
(117,68,o),
(148,37,cs),
(180,5,o),
(229,-11,o),
(293,-11,c)
);
},
{
closed = 1;
nodes = (
(382,385,l),
(382,510,l),
(13,510,l),
(13,385,l)
);
}
);
width = 409;
},
{
anchors = (
{
name = bottom;
pos = (224,0);
},
{
name = center;
pos = (181,255);
},
{
name = top;
pos = (181,510);
},
{
name = topright;
pos = (281,773);
}
);
layerId = "AF447C8E-6A86-4BB0-AFAA-0E31F633710F";
shapes = (
{
closed = 1;
nodes = (
(274,-9,o),
(287,-8,o),
(299,-6,c),
(309,-5,o),
(316,-5,o),
(324,-2,c),
(324,52,l),
(318,49,o),
(311,49,o),
(302,48,c),
(292,46,o),
(282,45,o),
(268,45,c),
(235,45,o),
(213,51,o),
(197,65,c),
(183,77,o),
(176,97,o),
(176,127,c),
(176,673,l),
(116,640,l),
(116,123,l),
(116,82,o),
(128,49,o),
(151,26,cs),
(173,4,o),
(210,-9,o),
(261,-9,c)
);
},
{
closed = 1;
nodes = (
(324,456,l),
(324,510,l),
(16,510,l),
(16,456,l)
);
}
);
width = 345;
},
{
anchors = (
{
name = bottom;
pos = (231,0);
},
{
name = center;
pos = (174,255);
},
{
name = top;
pos = (174,510);
},
{
name = topright;
pos = (288,776);
}
);
layerId = "7706EA0A-ADAC-4E76-A745-8A9A965DB998";
shapes = (
{
closed = 1;
nodes = (
(281,-9,o),
(294,-8,o),
(307,-6,c),
(318,-5,o),
(326,-4,o),
(334,-1,c),
(334,65,l),
(328,62,o),
(321,61,o),
(312,60,c),
(302,58,o),
(292,57,o),
(279,57,c),
(248,57,o),
(227,63,o),
(212,76,c),
(198,88,o),
(191,107,o),
(191,135,c),
(191,678,l),
(114,638,l),
(114,133,l),
(114,87,o),
(127,52,o),
(151,28,cs),
(175,4,o),
(214,-9,o),
(267,-9,c)
);
},
{
closed = 1;
nodes = (
(334,444,l),
(334,510,l),
(16,510,l),
(16,444,l)
);
}
);
width = 355;
}
);
unicode = 116;
userData = {
KernOnName = t;
};
}
{
glyphname = u;
kernLeft = KO_u;
kernRight = KO_u;
layers = (
{
anchors = (
{
name = bottom;
pos = (299,0);
},
{
name = ogonek;
pos = (539,0);
},
{
name = top;
pos = (299,510);
},
{
name = topright;
pos = (571,510);
}
);
layerId = "522FD917-7CD6-43A0-922F-6555542696CE";
shapes = (
{
closed = 1;
nodes = (
(297,-10,o),
(356,36,o),
(388,111,c),
(374,223,l),
(374,162,o),
(335,120,o),
(282,120,cs),
(241,120,o),
(217,144,o),
(217,190,cs),
(217,510,l),
(52,510,l),
(52,157,ls),
(52,63,o),
(108,-10,o),
(210,-10,cs)
);
},
{
closed = 1;
nodes = (
(539,0,l),
(539,510,l),
(374,510,l),
(374,115,l),
(377,115,l),
(377,0,l)
);
}
);
width = 596;
},
{
anchors = (
{
name = bottom;
pos = (272,0);
},
{
name = ogonek;
pos = (467,0);
},
{
name = top;
pos = (272,510);
},
{
name = topright;
pos = (529,510);
}
);
layerId = "AF447C8E-6A86-4BB0-AFAA-0E31F633710F";
shapes = (
{
closed = 1;
nodes = (
(314,-10,o),
(387,35,o),
(419,106,c),
(407,222,l),
(407,121,o),
(337,46,o),
(241,46,cs),
(172,46,o),
(133,85,o),
(133,161,cs),
(133,510,l),
(72,510,l),
(72,146,ls),
(72,51,o),
(140,-10,o),
(235,-10,cs)
);
},
{
closed = 1;
nodes = (
(467,0,l),
(467,510,l),
(407,510,l),
(407,114,l),
(413,114,l),
(413,0,l)
);
}
);
width = 544;
},
{
anchors = (
{
name = bottom;
pos = (280,0);
},
{
name = ogonek;
pos = (482,0);
},
{
name = top;
pos = (280,510);
},
{
name = topright;
pos = (539,510);
}
);
layerId = "7706EA0A-ADAC-4E76-A745-8A9A965DB998";
shapes = (
{
closed = 1;
nodes = (
(314,-10,o),
(385,35,o),
(417,107,c),
(405,222,l),
(405,127,o),
(340,58,o),
(251,58,cs),
(186,58,o),
(150,95,o),
(150,166,cs),
(150,510,l),
(72,510,l),
(72,148,ls),
(72,53,o),
(138,-10,o),
(234,-10,cs)
);
},
{
closed = 1;
nodes = (
(482,0,l),
(482,510,l),
(405,510,l),
(405,114,l),
(410,114,l),
(410,0,l)
);
}
);
width = 559;
}
);
metricLeft = "=|n";
metricRight = "=|n";
unicode = 117;
userData = {
KernOnName = u;
};
}
{
glyphname = v;
kernLeft = KO_v;
kernRight = KO_y;
layers = (
{
layerId = "522FD917-7CD6-43A0-922F-6555542696CE";
shapes = (
{
closed = 1;
nodes = (
(351,0,l),
(532,510,l),
(361,510,l),
(229,38,l),
(310,38,l),
(176,510,l),
(1,510,l),
(184,0,l)
);
}
);
width = 534;
},
{
layerId = "AF447C8E-6A86-4BB0-AFAA-0E31F633710F";
shapes = (
{
closed = 1;
nodes = (
(261,0,l),
(464,510,l),
(402,510,l),
(233,62,l),
(254,62,l),
(83,510,l),
(18,510,l),
(220,0,l)
);
}
);
width = 482;
},
{
layerId = "7706EA0A-ADAC-4E76-A745-8A9A965DB998";
shapes = (
{
closed = 1;
nodes = (
(279,0,l),
(478,510,l),
(398,510,l),
(235,58,l),
(266,58,l),
(101,510,l),
(18,510,l),
(217,0,l)
);
}
);
width = 496;
}
);
unicode = 118;
}
{
glyphname = w;
kernLeft = KO_w;
kernRight = KO_w;
layers = (
{
anchors = (
{
name = bottom;
pos = (403,0);
},
{
name = top;
pos = (403,510);
}
);
layerId = "522FD917-7CD6-43A0-922F-6555542696CE";
shapes = (
{
closed = 1;
nodes = (
(324,0,l),
(404,339,l),
(403,339,l),
(482,0,l),
(648,0,l),
(795,510,l),
(626,510,l),
(564,171,l),
(566,171,l),
(485,510,l),
(325,510,l),
(247,171,l),
(248,171,l),
(184,510,l),
(13,510,l),
(158,0,l)
);
}
);
width = 807;
},
{
anchors = (
{
name = bottom;
pos = (358,0);
},
{
name = top;
pos = (358,510);
}
);
layerId = "AF447C8E-6A86-4BB0-AFAA-0E31F633710F";
shapes = (
{
closed = 1;
nodes = (
(220,0,l),
(370,440,l),
(346,440,l),
(495,0,l),
(535,0,l),
(685,510,l),
(630,510,l),
(507,58,l),
(528,58,l),
(379,510,l),
(339,510,l),
(190,58,l),
(213,58,l),
(89,510,l),
(28,510,l),
(179,0,l)
);
}
);
width = 714;
},
{
anchors = (
{
name = bottom;
pos = (368,0);
},
{
name = top;
pos = (368,510);
}
);
layerId = "7706EA0A-ADAC-4E76-A745-8A9A965DB998";
shapes = (
{
closed = 1;
nodes = (
(240,0,l),
(378,423,l),
(358,423,l),
(495,0,l),
(556,0,l),
(706,510,l),
(632,510,l),
(519,77,l),
(537,77,l),
(399,510,l),
(339,510,l),
(202,77,l),
(221,77,l),
(107,510,l),
(28,510,l),
(178,0,l)
);
}
);
width = 735;
}
);
unicode = 119;
userData = {
KernOnName = w;
};
}
{
glyphname = x;
kernLeft = KO_x;
kernRight = KO_x;
layers = (
{
layerId = "522FD917-7CD6-43A0-922F-6555542696CE";
shapes = (
{
closed = 1;
nodes = (
(564,0,l),
(340,315,l),
(222,510,l),
(41,510,l),
(248,219,l),
(382,0,l)
);
},
{
closed = 1;
nodes = (
(338,204,l),
(557,510,l),
(380,510,l),
(262,323,l)
);
},
{
closed = 1;
nodes = (
(246,312,l),
(22,0,l),
(196,0,l),
(322,193,l)
);
}
);
width = 586;
},
{
layerId = "AF447C8E-6A86-4BB0-AFAA-0E31F633710F";
shapes = (
{
closed = 1;
nodes = (
(471,0,l),
(274,286,l),
(121,510,l),
(51,510,l),
(238,241,l),
(401,0,l)
);
},
{
closed = 1;
nodes = (
(274,238,l),
(464,510,l),
(398,510,l),
(241,280,l)
);
},
{
closed = 1;
nodes = (
(237,283,l),
(30,0,l),
(100,0,l),
(268,239,l)
);
}
);
width = 501;
},
{
layerId = "7706EA0A-ADAC-4E76-A745-8A9A965DB998";
shapes = (
{
closed = 1;
nodes = (
(488,0,l),
(286,291,l),
(139,510,l),
(51,510,l),
(241,237,l),
(399,0,l)
);
},
{
closed = 1;
nodes = (
(286,232,l),
(481,510,l),
(396,510,l),
(246,287,l)
);
},
{
closed = 1;
nodes = (
(240,288,l),
(30,0,l),
(117,0,l),
(278,231,l)
);
}
);
width = 518;
}
);
unicode = 120;
userData = {
KernOnName = x;
};
}
{
glyphname = y;
kernLeft = KO_y.ss03;
kernRight = KO_y;
layers = (
{
anchors = (
{
name = bottom;
pos = (265,0);
},
{
name = top;
pos = (267,510);
}
);
layerId = "522FD917-7CD6-43A0-922F-6555542696CE";
shapes = (
{
closed = 1;
nodes = (
(214,-215,o),
(272,-175,o),
(308,-84,cs),
(542,510,l),
(382,510,l),
(269,165,l),
(226,124,l),
(176,-19,ls),
(162,-59,o),
(134,-75,o),
(100,-75,cs),
(87,-75,o),
(74,-74,o),
(63,-71,c),
(63,-205,l),
(88,-212,o),
(108,-215,o),
(129,-215,cs)
);
},
{
closed = 1;
nodes = (
(321,70,l),
(187,510,l),
(10,510,l),
(192,7,l)
);
}
);
width = 544;
},
{
anchors = (
{
name = bottom;
pos = (243,0);
},
{
name = top;
pos = (246,510);
}
);
layerId = "AF447C8E-6A86-4BB0-AFAA-0E31F633710F";
shapes = (
{
closed = 1;
nodes = (
(176,-215,o),
(219,-179,o),
(247,-100,cs),
(464,510,l),
(400,510,l),
(245,61,l),
(240,29,l),
(202,-82,ls),
(180,-146,o),
(157,-169,o),
(109,-169,cs),
(91,-169,o),
(74,-166,o),
(63,-161,c),
(63,-209,l),
(71,-212,o),
(85,-215,o),
(108,-215,cs)
);
},
{
closed = 1;
nodes = (
(274,52,l),
(81,510,l),
(18,510,l),
(240,-5,l)
);
}
);
width = 482;
},
{
anchors = (
{
name = bottom;
pos = (248,0);
},
{
name = top;
pos = (251,510);
}
);
layerId = "7706EA0A-ADAC-4E76-A745-8A9A965DB998";
shapes = (
{
closed = 1;
nodes = (
(183,-215,o),
(229,-179,o),
(259,-96,cs),
(478,510,l),
(398,510,l),
(250,78,l),
(239,45,l),
(199,-72,ls),
(178,-131,o),
(154,-153,o),
(109,-153,cs),
(90,-153,o),
(74,-150,o),
(64,-146,c),
(64,-208,l),
(75,-212,o),
(91,-215,o),
(113,-215,cs)
);
},
{
closed = 1;
nodes = (
(283,55,l),
(100,510,l),
(18,510,l),
(233,-3,l)
);
}
);
width = 496;
}
);
metricRight = v;
unicode = 121;
}
{
glyphname = z;
kernLeft = KO_z;
kernRight = KO_z;
layers = (
{
anchors = (
{
name = bottom;
pos = (255,0);
},
{
name = center;
pos = (255,255);
},
{
name = top;
pos = (255,510);
}
);
layerId = "522FD917-7CD6-43A0-922F-6555542696CE";
shapes = (
{
closed = 1;
nodes = (
(469,0,l),
(469,125,l),
(190,125,l),
(216,83,l),
(467,400,l),
(467,510,l),
(49,510,l),
(49,385,l),
(323,385,l),
(296,434,l),
(42,115,l),
(42,0,l)
);
}
);
width = 507;
},
{
anchors = (
{
name = bottom;
pos = (227,0);
},
{
name = center;
pos = (227,255);
},
{
name = top;
pos = (227,510);
}
);
layerId = "AF447C8E-6A86-4BB0-AFAA-0E31F633710F";
shapes = (
{
closed = 1;
nodes = (
(414,0,l),
(414,54,l),
(75,54,l),
(103,21,l),
(403,465,l),
(403,510,l),
(60,510,l),
(60,456,l),
(377,456,l),
(349,488,l),
(49,44,l),
(49,0,l)
);
}
);
width = 456;
},
{
anchors = (
{
name = bottom;
pos = (233,0);
},
{
name = center;
pos = (233,255);
},
{
name = top;
pos = (233,510);
}
);
layerId = "7706EA0A-ADAC-4E76-A745-8A9A965DB998";
shapes = (
{
closed = 1;
nodes = (
(424,0,l),
(424,66,l),
(95,66,l),
(123,31,l),
(415,454,l),
(415,510,l),
(59,510,l),
(59,444,l),
(369,444,l),
(341,479,l),
(49,56,l),
(49,0,l)
);
}
);
width = 466;
}
);
unicode = 122;
userData = {
KernOnName = z;
};
}
{
glyphname = braceleft;
kernRight = KO_braceleft;
layers = (
{
layerId = "522FD917-7CD6-43A0-922F-6555542696CE";
shapes = (
{
closed = 1;
nodes = (
(409,-108,l),
(409,22,l),
(320,22,ls),
(279,22,o),
(258,51,o),
(269,93,cs),
(287,161,ls),
(307,237,o),
(269,301,o),
(198,321,c),
(270,341,o),
(307,405,o),
(286,484,cs),
(269,548,ls),
(257,593,o),
(282,620,o),
(320,620,cs),
(409,620,l),
(409,750,l),
(308,750,ls),
(151,750,o),
(94,671,o),
(120,554,cs),
(134,491,ls),
(149,423,o),
(126,386,o),
(58,386,cs),
(28,386,l),
(28,256,l),
(58,256,ls),
(123,256,o),
(150,222,o),
(134,150,cs),
(120,87,ls),
(94,-30,o),
(150,-108,o),
(308,-108,cs)
);
}
);
width = 457;
},
{
layerId = "AF447C8E-6A86-4BB0-AFAA-0E31F633710F";
shapes = (
{
closed = 1;
nodes = (
(317,-108,l),
(317,-60,l),
(238,-60,ls),
(183,-60,o),
(162,-31,o),
(173,25,cs),
(204,183,ls),
(220,265,o),
(199,301,o),
(152,321,c),
(200,342,o),
(220,379,o),
(204,460,cs),
(173,617,ls),
(162,673,o),
(182,702,o),
(238,702,cs),
(317,702,l),
(317,750,l),
(233,750,ls),
(140,750,o),
(102,684,o),
(115,615,cs),
(150,430,ls),
(162,366,o),
(142,345,o),
(86,345,cs),
(38,345,l),
(38,297,l),
(86,297,ls),
(142,297,o),
(162,275,o),
(150,212,cs),
(115,28,ls),
(101,-43,o),
(142,-108,o),
(233,-108,cs)
);
}
);
width = 375;
},
{
layerId = "7706EA0A-ADAC-4E76-A745-8A9A965DB998";
shapes = (
{
closed = 1;
nodes = (
(334,-108,l),
(334,-46,l),
(253,-46,ls),
(202,-46,o),
(179,-19,o),
(191,37,cs),
(220,181,ls),
(236,260,o),
(212,301,o),
(161,321,c),
(212,341,o),
(236,382,o),
(220,461,cs),
(191,605,ls),
(179,661,o),
(202,688,o),
(253,688,cs),
(334,688,l),
(334,750,l),
(247,750,ls),
(145,750,o),
(102,683,o),
(118,602,cs),
(149,440,ls),
(162,375,o),
(140,352,o),
(83,352,cs),
(38,352,l),
(38,290,l),
(83,290,ls),
(140,290,o),
(162,267,o),
(149,202,cs),
(118,40,ls),
(102,-41,o),
(145,-108,o),
(247,-108,cs)
);
}
);
width = 392;
}
);
unicode = 123;
userData = {
KernOnSpecialSpacing = {
R = parenthesis;
};
};
}
{
glyphname = bar;
layers = (
{
layerId = "522FD917-7CD6-43A0-922F-6555542696CE";
shapes = (
{
closed = 1;
nodes = (
(193,-130,l),
(193,790,l),
(50,790,l),
(50,-130,l)
);
}
);
width = 243;
},
{
layerId = "AF447C8E-6A86-4BB0-AFAA-0E31F633710F";
shapes = (
{
closed = 1;
nodes = (
(136,-130,l),
(136,790,l),
(83,790,l),
(83,-130,l)
);
}
);
width = 219;
},
{
layerId = "7706EA0A-ADAC-4E76-A745-8A9A965DB998";
shapes = (
{
closed = 1;
nodes = (
(151,-130,l),
(151,790,l),
(83,790,l),
(83,-130,l)
);
}
);
width = 234;
}
);
unicode = 124;
userData = {
KernOnSpecialSpacing = {
L = NoKerning;
R = NoKerning;
};
};
}
{
glyphname = asciitilde;
kernRight = KO_asciitilde;
layers = (
{
layerId = "522FD917-7CD6-43A0-922F-6555542696CE";
shapes = (
{
closed = 1;
nodes = (
(330,262,o),
(288,325,o),
(223,325,cs),
(187,325,o),
(163,307,o),
(154,272,c),
(50,272,l),
(55,397,o),
(130,453,o),
(214,453,cs),
(320,453,o),
(367,389,o),
(429,389,cs),
(467,389,o),
(490,410,o),
(497,443,c),
(602,443,l),
(596,316,o),
(521,262,o),
(436,262,cs)
);
}
);
width = 652;
},
{
layerId = "AF447C8E-6A86-4BB0-AFAA-0E31F633710F";
shapes = (
{
closed = 1;
nodes = (
(308,304,o),
(237,365,o),
(165,365,cs),
(132,365,o),
(109,349,o),
(104,314,c),
(60,314,l),
(72,375,o),
(106,411,o),
(175,411,cs),
(265,411,o),
(341,351,o),
(410,351,cs),
(441,351,o),
(465,365,o),
(471,401,c),
(515,401,l),
(503,340,o),
(469,304,o),
(399,304,cs)
);
}
);
width = 575;
},
{
layerId = "7706EA0A-ADAC-4E76-A745-8A9A965DB998";
shapes = (
{
closed = 1;
nodes = (
(313,297,o),
(247,358,o),
(176,358,cs),
(143,358,o),
(120,342,o),
(114,307,c),
(60,307,l),
(71,379,o),
(112,418,o),
(183,418,cs),
(276,418,o),
(347,357,o),
(415,357,cs),
(448,357,o),
(471,373,o),
(477,408,c),
(531,408,l),
(520,336,o),
(479,297,o),
(407,297,cs)
);
}
);
width = 591;
}
);
unicode = 126;
userData = {
KernOnSpecialSpacing = {
L = math;
R = math;
};
};
}
{
glyphname = exclamdown;
layers = (
{
layerId = "522FD917-7CD6-43A0-922F-6555542696CE";
shapes = (
{
closed = 1;
nodes = (
(250,-205,l),
(225,224,l),
(91,224,l),
(66,-205,l)
);
},
{
alignment = -1;
angle = 180;
pos = (287,510);
ref = period;
}
);
width = 317;
},
{
layerId = "AF447C8E-6A86-4BB0-AFAA-0E31F633710F";
shapes = (
{
closed = 1;
nodes = (
(154,-205,l),
(145,318,l),
(99,318,l),
(90,-205,l)
);
},
{
alignment = -1;
angle = 180;
pos = (256,510);
ref = period;
}
);
width = 245;
},
{
layerId = "7706EA0A-ADAC-4E76-A745-8A9A965DB998";
shapes = (
{
closed = 1;
nodes = (
(174,-205,l),
(162,302,l),
(102,302,l),
(90,-205,l)
);
},
{
alignment = -1;
angle = 180;
pos = (256,510);
ref = period;
}
);
width = 265;
}
);
metricLeft = "=|exclam";
metricRight = "=|exclam";
unicode = 161;
}
{
glyphname = cent;
layers = (
{
layerId = "522FD917-7CD6-43A0-922F-6555542696CE";
shapes = (
{
closed = 1;
nodes = (
(352,482,l),
(352,616,l),
(218,616,l),
(218,482,l)
);
},
{
closed = 1;
nodes = (
(352,-109,l),
(352,20,l),
(218,20,l),
(218,-109,l)
);
},
{
alignment = -1;
ref = c;
}
);
width = 547;
},
{
layerId = "AF447C8E-6A86-4BB0-AFAA-0E31F633710F";
shapes = (
{
closed = 1;
nodes = (
(281,482,l),
(281,616,l),
(232,616,l),
(232,482,l)
);
},
{
closed = 1;
nodes = (
(281,-109,l),
(281,20,l),
(232,20,l),
(232,-109,l)
);
},
{
alignment = -1;
ref = c;
}
);
width = 489;
},
{
layerId = "7706EA0A-ADAC-4E76-A745-8A9A965DB998";
shapes = (
{
closed = 1;
nodes = (
(295,482,l),
(295,616,l),
(232,616,l),
(232,482,l)
);
},
{
closed = 1;
nodes = (
(295,-109,l),
(295,20,l),
(232,20,l),
(232,-109,l)
);
},
{
alignment = -1;
ref = c;
}
);
width = 503;
}
);
unicode = 162;
userData = {
KernOnSpecialSpacing = {
L = symbols;
R = symbols;
};
};
}
{
glyphname = sterling;
layers = (
{
layerId = "522FD917-7CD6-43A0-922F-6555542696CE";
shapes = (
{
closed = 1;
nodes = (
(530,0,l),
(530,140,l),
(161,140,l),
(181,102,l),
(249,180,o),
(269,243,o),
(269,296,cs),
(269,389,o),
(204,453,o),
(204,521,cs),
(204,573,o),
(234,602,o),
(295,602,cs),
(362,602,o),
(391,569,o),
(399,502,c),
(558,502,l),
(547,640,o),
(442,730,o),
(286,730,cs),
(131,730,o),
(33,642,o),
(33,520,cs),
(33,422,o),
(106,366,o),
(106,283,cs),
(106,243,o),
(87,193,o),
(34,132,c),
(34,0,l)
);
},
{
closed = 1;
nodes = (
(457,272,l),
(457,408,l),
(10,408,l),
(10,272,l)
);
}
);
width = 586;
},
{
layerId = "AF447C8E-6A86-4BB0-AFAA-0E31F633710F";
shapes = (
{
closed = 1;
nodes = (
(477,0,l),
(477,56,l),
(81,56,l),
(81,22,l),
(163,142,o),
(189,220,o),
(189,282,cs),
(189,383,o),
(118,434,o),
(118,532,cs),
(118,616,o),
(172,672,o),
(273,672,cs),
(360,672,o),
(422,624,o),
(432,537,c),
(494,537,l),
(483,652,o),
(407,730,o),
(270,730,cs),
(132,730,o),
(59,653,o),
(59,536,cs),
(59,417,o),
(132,377,o),
(132,278,cs),
(132,226,o),
(113,161,o),
(53,58,c),
(53,0,l)
);
},
{
closed = 1;
nodes = (
(406,318,l),
(406,370,l),
(19,370,l),
(19,318,l)
);
}
);
width = 541;
},
{
layerId = "7706EA0A-ADAC-4E76-A745-8A9A965DB998";
shapes = (
{
closed = 1;
nodes = (
(487,0,l),
(487,70,l),
(96,70,l),
(99,35,l),
(179,148,o),
(204,224,o),
(204,284,cs),
(204,384,o),
(134,437,o),
(134,530,cs),
(134,609,o),
(184,660,o),
(278,660,cs),
(362,660,o),
(418,615,o),
(428,531,c),
(506,531,l),
(495,650,o),
(414,730,o),
(274,730,cs),
(133,730,o),
(56,651,o),
(56,533,cs),
(56,418,o),
(129,375,o),
(129,279,cs),
(129,229,o),
(110,166,o),
(51,70,c),
(51,0,l)
);
},
{
closed = 1;
nodes = (
(416,310,l),
(416,376,l),
(19,376,l),
(19,310,l)
);
}
);
width = 553;
}
);
unicode = 163;
userData = {
KernOnSpecialSpacing = {
L = symbols;
R = symbols;
};
};
}
{
glyphname = yen;
layers = (
{
layerId = "522FD917-7CD6-43A0-922F-6555542696CE";
shapes = (
{
closed = 1;
nodes = (
(400,0,l),
(400,283,l),
(619,720,l),
(439,720,l),
(261,291,l),
(390,291,l),
(211,720,l),
(10,720,l),
(231,283,l),
(231,0,l)
);
},
{
closed = 1;
nodes = (
(591,238,l),
(591,344,l),
(40,344,l),
(40,238,l)
);
},
{
closed = 1;
nodes = (
(231,483,l),
(40,483,l),
(40,377,l),
(279,377,l)
);
},
{
closed = 1;
nodes = (
(383,377,l),
(591,377,l),
(591,483,l),
(431,483,l)
);
}
);
width = 630;
},
{
layerId = "AF447C8E-6A86-4BB0-AFAA-0E31F633710F";
shapes = (
{
closed = 1;
nodes = (
(310,0,l),
(310,337,l),
(539,720,l),
(469,720,l),
(274,393,l),
(292,393,l),
(96,720,l),
(22,720,l),
(249,337,l),
(249,0,l)
);
},
{
closed = 1;
nodes = (
(514,260,l),
(514,318,l),
(46,318,l),
(46,260,l)
);
},
{
closed = 1;
nodes = (
(206,463,l),
(46,463,l),
(46,405,l),
(236,405,l)
);
},
{
closed = 1;
nodes = (
(327,405,l),
(514,405,l),
(514,463,l),
(365,463,l)
);
}
);
width = 560;
},
{
layerId = "7706EA0A-ADAC-4E76-A745-8A9A965DB998";
shapes = (
{
closed = 1;
nodes = (
(327,0,l),
(327,328,l),
(554,720,l),
(466,720,l),
(274,376,l),
(310,376,l),
(117,720,l),
(22,720,l),
(248,328,l),
(248,0,l)
);
},
{
closed = 1;
nodes = (
(529,256,l),
(529,322,l),
(47,322,l),
(47,256,l)
);
},
{
closed = 1;
nodes = (
(212,466,l),
(47,466,l),
(47,400,l),
(245,400,l)
);
},
{
closed = 1;
nodes = (
(338,400,l),
(529,400,l),
(529,466,l),
(378,466,l)
);
}
);
width = 575;
}
);
metricLeft = Y;
metricRight = Y;
unicode = 165;
userData = {
KernOnSpecialSpacing = {
L = symbols;
R = symbols;
};
};
}
{
glyphname = section;
layers = (
{
layerId = "522FD917-7CD6-43A0-922F-6555542696CE";
shapes = (
{
closed = 1;
nodes = (
(416,195,o),
(495,257,o),
(495,357,cs),
(495,436,o),
(446,497,o),
(354,519,cs),
(262,541,ls),
(216,552,o),
(200,563,o),
(200,581,cs),
(200,605,o),
(222,617,o),
(265,617,cs),
(313,617,o),
(341,602,o),
(344,571,c),
(488,571,l),
(480,671,o),
(400,730,o),
(266,730,cs),
(135,730,o),
(56,670,o),
(56,567,cs),
(56,487,o),
(107,436,o),
(227,405,cs),
(289,389,ls),
(332,378,o),
(351,366,o),
(351,335,cs),
(351,304,o),
(332,291,o),
(276,291,c),
(276,195,l)
);
},
{
closed = 1;
nodes = (
(388,-41,o),
(467,19,o),
(467,123,cs),
(467,204,o),
(414,254,o),
(297,285,cs),
(233,302,ls),
(192,313,o),
(172,325,o),
(172,354,cs),
(172,385,o),
(191,398,o),
(246,398,c),
(247,495,l),
(107,495,o),
(28,433,o),
(28,332,cs),
(28,254,o),
(75,195,o),
(172,171,cs),
(261,149,ls),
(306,138,o),
(322,128,o),
(322,108,cs),
(322,85,o),
(301,73,o),
(258,73,cs),
(210,73,o),
(182,88,o),
(179,118,c),
(35,118,l),
(43,17,o),
(124,-41,o),
(256,-41,cs)
);
}
);
width = 517;
},
{
layerId = "AF447C8E-6A86-4BB0-AFAA-0E31F633710F";
shapes = (
{
closed = 1;
nodes = (
(345,177,o),
(412,223,o),
(412,308,cs),
(412,386,o),
(368,435,o),
(285,465,cs),
(210,492,ls),
(149,514,o),
(129,546,o),
(129,593,cs),
(129,641,o),
(165,676,o),
(229,676,cs),
(295,676,o),
(335,643,o),
(344,582,c),
(404,582,l),
(395,676,o),
(330,730,o),
(232,730,cs),
(132,730,o),
(69,671,o),
(69,589,cs),
(69,513,o),
(111,460,o),
(171,440,cs),
(268,408,ls),
(329,388,o),
(351,357,o),
(351,312,cs),
(351,260,o),
(309,224,o),
(242,224,c),
(240,177,l)
);
},
{
closed = 1;
nodes = (
(320,-72,o),
(385,-12,o),
(385,69,cs),
(385,143,o),
(344,197,o),
(282,218,cs),
(184,251,ls),
(125,271,o),
(102,302,o),
(102,347,cs),
(102,399,o),
(144,435,o),
(212,435,c),
(214,481,l),
(108,481,o),
(42,433,o),
(42,350,cs),
(42,273,o),
(88,222,o),
(167,194,cs),
(243,167,ls),
(305,145,o),
(325,112,o),
(325,66,cs),
(325,15,o),
(288,-17,o),
(224,-17,cs),
(159,-17,o),
(118,16,o),
(109,77,c),
(49,77,l),
(58,-16,o),
(122,-72,o),
(221,-72,cs)
);
}
);
width = 452;
},
{
layerId = "7706EA0A-ADAC-4E76-A745-8A9A965DB998";
shapes = (
{
closed = 1;
nodes = (
(360,180,o),
(428,229,o),
(428,316,cs),
(428,395,o),
(383,446,o),
(297,474,cs),
(222,500,ls),
(163,520,o),
(143,548,o),
(143,591,cs),
(143,635,o),
(177,666,o),
(237,666,cs),
(300,666,o),
(338,636,o),
(346,580,c),
(420,580,l),
(411,675,o),
(344,730,o),
(240,730,cs),
(135,730,o),
(69,671,o),
(69,585,cs),
(69,509,o),
(113,456,o),
(182,434,cs),
(274,405,ls),
(332,386,o),
(353,358,o),
(353,316,cs),
(353,267,o),
(315,235,o),
(250,235,c),
(248,180,l)
);
},
{
closed = 1;
nodes = (
(334,-67,o),
(401,-7,o),
(401,78,cs),
(401,154,o),
(357,207,o),
(287,229,cs),
(196,259,ls),
(138,278,o),
(116,306,o),
(116,348,cs),
(116,397,o),
(155,429,o),
(220,429,c),
(222,483,l),
(110,483,o),
(42,433,o),
(42,347,cs),
(42,269,o),
(88,217,o),
(172,190,cs),
(248,164,ls),
(307,144,o),
(327,115,o),
(327,73,cs),
(327,27,o),
(293,-2,o),
(232,-2,cs),
(170,-2,o),
(131,28,o),
(123,84,c),
(49,84,l),
(58,-11,o),
(125,-67,o),
(229,-67,cs)
);
}
);
width = 468;
}
);
metricLeft = S;
metricRight = S;
unicode = 167;
userData = {
KernOnSpecialSpacing = {
R = symbols;
};
};
}
{
glyphname = copyright;
layers = (
{
layerId = "522FD917-7CD6-43A0-922F-6555542696CE";
shapes = (
{
closed = 1;
nodes = (
(612,-15,o),
(780,153,o),
(780,360,cs),
(780,567,o),
(612,735,o),
(405,735,cs),
(198,735,o),
(30,567,o),
(30,360,cs),
(30,153,o),
(198,-15,o),
(405,-15,cs)
);
},
{
closed = 1;
nodes = (
(239,57,o),
(104,194,o),
(104,360,cs),
(104,526,o),
(239,663,o),
(405,663,cs),
(571,663,o),
(706,526,o),
(706,360,cs),
(706,194,o),
(571,57,o),
(405,57,cs)
);
},
{
closed = 1;
nodes = (
(275,140,o),
(196,244,o),
(196,362,cs),
(196,488,o),
(279,580,o),
(415,580,cs),
(529,580,o),
(598,506,o),
(613,431,c),
(514,413,l),
(504,467,o),
(463,495,o),
(414,495,cs),
(340,495,o),
(300,431,o),
(300,367,cs),
(300,289,o),
(339,225,o),
(417,225,cs),
(465,225,o),
(503,260,o),
(514,307,c),
(612,280,l),
(585,189,o),
(507,140,o),
(414,140,cs)
);
}
);
width = 810;
},
{
layerId = "AF447C8E-6A86-4BB0-AFAA-0E31F633710F";
shapes = (
{
closed = 1;
nodes = (
(630,-15,o),
(798,153,o),
(798,360,cs),
(798,567,o),
(630,735,o),
(423,735,cs),
(216,735,o),
(48,567,o),
(48,360,cs),
(48,153,o),
(216,-15,o),
(423,-15,cs)
);
},
{
closed = 1;
nodes = (
(234,16,o),
(81,171,o),
(81,360,cs),
(81,549,o),
(234,704,o),
(423,704,cs),
(612,704,o),
(765,549,o),
(765,360,cs),
(765,171,o),
(612,16,o),
(423,16,cs)
);
},
{
closed = 1;
nodes = (
(305,140,o),
(224,231,o),
(224,363,cs),
(224,478,o),
(303,580,o),
(422,580,cs),
(515,580,o),
(583,517,o),
(599,430,c),
(561,424,l),
(551,496,o),
(502,544,o),
(424,544,cs),
(314,544,o),
(263,465,o),
(263,362,cs),
(263,253,o),
(317,176,o),
(422,176,cs),
(506,176,o),
(552,225,o),
(562,296,c),
(599,286,l),
(585,204,o),
(523,140,o),
(424,140,cs)
);
}
);
width = 846;
},
{
layerId = "7706EA0A-ADAC-4E76-A745-8A9A965DB998";
shapes = (
{
closed = 1;
nodes = (
(630,-15,o),
(798,153,o),
(798,360,cs),
(798,567,o),
(630,735,o),
(423,735,cs),
(216,735,o),
(48,567,o),
(48,360,cs),
(48,153,o),
(216,-15,o),
(423,-15,cs)
);
},
{
closed = 1;
nodes = (
(238,23,o),
(88,175,o),
(88,360,cs),
(88,545,o),
(238,697,o),
(423,697,cs),
(608,697,o),
(758,545,o),
(758,360,cs),
(758,175,o),
(608,23,o),
(423,23,cs)
);
},
{
closed = 1;
nodes = (
(303,140,o),
(222,233,o),
(222,363,cs),
(222,480,o),
(302,580,o),
(424,580,cs),
(519,580,o),
(588,516,o),
(604,430,c),
(556,422,l),
(546,491,o),
(499,536,o),
(425,536,cs),
(321,536,o),
(272,459,o),
(272,363,cs),
(272,259,o),
(323,184,o),
(424,184,cs),
(502,184,o),
(547,231,o),
(557,298,c),
(604,285,l),
(588,202,o),
(524,140,o),
(425,140,cs)
);
}
);
width = 846;
}
);
metricLeft = O;
metricRight = O;
unicode = 169;
userData = {
KernOnSpecialSpacing = {
R = symbols;
};
};
}
{
glyphname = ordfeminine;
kernRight = KO_ordfeminine;
layers = (
{
layerId = "522FD917-7CD6-43A0-922F-6555542696CE";
shapes = (
{
closed = 1;
nodes = (
(329,418,l),
(322,439,o),
(319,459,o),
(319,481,cs),
(319,616,ls),
(319,688,o),
(268,730,o),
(182,730,cs),
(101,730,o),
(52,686,o),
(44,632,c),
(151,632,l),
(157,639,o),
(165,644,o),
(179,644,cs),
(200,644,o),
(210,633,o),
(210,620,cs),
(210,481,l),
(210,481,l),
(210,456,o),
(214,434,o),
(219,418,c)
);
},
{
closed = 1;
nodes = (
(163,412,o),
(200,432,o),
(218,478,c),
(210,533,l),
(210,517,o),
(189,498,o),
(167,498,cs),
(157,498,o),
(146,506,o),
(146,516,cs),
(146,526,o),
(152,533,o),
(165,536,cs),
(223,550,l),
(223,621,l),
(142,605,ls),
(71,591,o),
(36,551,o),
(36,495,cs),
(36,444,o),
(71,412,o),
(120,412,cs)
);
}
);
width = 366;
},
{
layerId = "AF447C8E-6A86-4BB0-AFAA-0E31F633710F";
shapes = (
{
closed = 1;
nodes = (
(283,418,l),
(280,435,o),
(278,454,o),
(278,474,cs),
(278,626,ls),
(278,694,o),
(243,730,o),
(172,730,cs),
(102,730,o),
(56,694,o),
(53,636,c),
(101,636,l),
(105,668,o),
(129,687,o),
(169,687,cs),
(208,687,o),
(226,666,o),
(226,627,cs),
(226,474,l),
(231,474,l),
(231,451,o),
(231,433,o),
(235,418,c)
);
},
{
closed = 1;
nodes = (
(184,412,o),
(220,433,o),
(234,476,c),
(226,519,l),
(226,481,o),
(194,455,o),
(150,455,cs),
(115,455,o),
(95,470,o),
(95,499,cs),
(95,531,o),
(118,545,o),
(154,553,c),
(239,572,l),
(239,613,l),
(144,591,ls),
(79,576,o),
(45,545,o),
(45,496,cs),
(45,444,o),
(81,412,o),
(139,412,cs)
);
}
);
width = 344;
},
{
layerId = "7706EA0A-ADAC-4E76-A745-8A9A965DB998";
shapes = (
{
closed = 1;
nodes = (
(292,418,l),
(288,437,o),
(286,455,o),
(286,475,cs),
(286,624,ls),
(286,693,o),
(248,730,o),
(175,730,cs),
(104,730,o),
(57,693,o),
(53,635,c),
(111,635,l),
(115,663,o),
(137,680,o),
(172,680,cs),
(208,680,o),
(225,661,o),
(225,626,cs),
(225,475,l),
(229,475,l),
(229,452,o),
(230,433,o),
(234,418,c)
);
},
{
closed = 1;
nodes = (
(181,412,o),
(218,432,o),
(233,476,c),
(225,521,l),
(225,487,o),
(195,462,o),
(154,462,cs),
(123,462,o),
(105,476,o),
(105,502,cs),
(105,530,o),
(125,543,o),
(157,550,c),
(238,568,l),
(238,614,l),
(145,593,ls),
(78,579,o),
(45,546,o),
(45,496,cs),
(45,444,o),
(81,412,o),
(137,412,cs)
);
}
);
width = 353;
}
);
metricLeft = a;
metricRight = a;
unicode = 170;
userData = {
KernOnSpecialSpacing = {
L = superiors;
R = superiors;
};
};
}
{
glyphname = registered;
layers = (
{
layerId = "522FD917-7CD6-43A0-922F-6555542696CE";
shapes = (
{
closed = 1;
nodes = (
(612,-15,o),
(780,153,o),
(780,360,cs),
(780,567,o),
(612,735,o),
(405,735,cs),
(198,735,o),
(30,567,o),
(30,360,cs),
(30,153,o),
(198,-15,o),
(405,-15,cs)
);
},
{
closed = 1;
nodes = (
(239,57,o),
(104,194,o),
(104,360,cs),
(104,526,o),
(239,663,o),
(405,663,cs),
(571,663,o),
(706,526,o),
(706,360,cs),
(706,194,o),
(571,57,o),
(405,57,cs)
);
},
{
closed = 1;
nodes = (
(336,145,l),
(336,491,l),
(436,491,ls),
(470,491,o),
(487,475,o),
(487,445,cs),
(487,416,o),
(469,399,o),
(436,399,cs),
(270,399,l),
(270,318,l),
(411,318,ls),
(459,318,o),
(480,294,o),
(480,238,cs),
(480,196,ls),
(480,172,o),
(481,154,o),
(484,145,c),
(588,145,l),
(585,169,o),
(583,182,o),
(583,196,cs),
(583,267,ls),
(583,328,o),
(544,363,o),
(475,361,c),
(476,345,l),
(554,361,o),
(590,396,o),
(590,455,cs),
(590,530,o),
(536,575,o),
(441,575,cs),
(234,575,l),
(234,145,l)
);
}
);
width = 810;
},
{
layerId = "AF447C8E-6A86-4BB0-AFAA-0E31F633710F";
shapes = (
{
closed = 1;
nodes = (
(630,-15,o),
(798,153,o),
(798,360,cs),
(798,567,o),
(630,735,o),
(423,735,cs),
(216,735,o),
(48,567,o),
(48,360,cs),
(48,153,o),
(216,-15,o),
(423,-15,cs)
);
},
{
closed = 1;
nodes = (
(234,16,o),
(81,171,o),
(81,360,cs),
(81,549,o),
(234,704,o),
(423,704,cs),
(612,704,o),
(765,549,o),
(765,360,cs),
(765,171,o),
(612,16,o),
(423,16,cs)
);
},
{
closed = 1;
nodes = (
(328,145,l),
(328,540,l),
(437,540,ls),
(506,540,o),
(545,511,o),
(545,458,cs),
(545,404,o),
(505,373,o),
(437,373,cs),
(325,373,l),
(325,341,l),
(448,341,ls),
(505,341,o),
(538,312,o),
(538,261,cs),
(538,196,ls),
(538,175,o),
(539,158,o),
(542,145,c),
(581,145,l),
(577,164,o),
(576,180,o),
(576,196,cs),
(576,267,ls),
(576,327,o),
(537,363,o),
(475,361,c),
(468,345,l),
(544,362,o),
(583,399,o),
(583,459,cs),
(583,530,o),
(526,575,o),
(439,575,cs),
(289,575,l),
(289,145,l)
);
}
);
width = 846;
},
{
layerId = "7706EA0A-ADAC-4E76-A745-8A9A965DB998";
shapes = (
{
closed = 1;
nodes = (
(630,-15,o),
(798,153,o),
(798,360,cs),
(798,567,o),
(630,735,o),
(423,735,cs),
(216,735,o),
(48,567,o),
(48,360,cs),
(48,153,o),
(216,-15,o),
(423,-15,cs)
);
},
{
closed = 1;
nodes = (
(238,23,o),
(88,175,o),
(88,360,cs),
(88,545,o),
(238,697,o),
(423,697,cs),
(608,697,o),
(758,545,o),
(758,360,cs),
(758,175,o),
(608,23,o),
(423,23,cs)
);
},
{
closed = 1;
nodes = (
(332,145,l),
(332,532,l),
(440,532,ls),
(503,532,o),
(538,505,o),
(538,456,cs),
(538,406,o),
(502,377,o),
(440,377,cs),
(319,377,l),
(319,337,l),
(445,337,ls),
(500,337,o),
(531,309,o),
(531,257,cs),
(531,196,ls),
(531,175,o),
(532,157,o),
(535,145,c),
(585,145,l),
(581,165,o),
(580,181,o),
(580,196,cs),
(580,267,ls),
(580,327,o),
(541,363,o),
(478,361,c),
(472,345,l),
(549,362,o),
(587,399,o),
(587,458,cs),
(587,530,o),
(531,575,o),
(442,575,cs),
(283,575,l),
(283,145,l)
);
}
);
width = 846;
}
);
metricLeft = O;
metricRight = O;
unicode = 174;
userData = {
KernOnSpecialSpacing = {
L = superiors;
};
};
}
{
glyphname = degree;
kernRight = KO_degree;
layers = (
{
layerId = "522FD917-7CD6-43A0-922F-6555542696CE";
shapes = (
{
closed = 1;
nodes = (
(265,449,o),
(326,514,o),
(326,593,cs),
(326,671,o),
(265,735,o),
(184,735,cs),
(103,735,o),
(40,671,o),
(40,593,cs),
(40,514,o),
(103,449,o),
(184,449,cs)
);
},
{
closed = 1;
nodes = (
(146,528,o),
(120,557,o),
(120,593,cs),
(120,627,o),
(146,656,o),
(184,656,cs),
(220,656,o),
(246,627,o),
(246,593,cs),
(246,557,o),
(220,528,o),
(184,528,cs)
);
}
);
width = 366;
},
{
layerId = "AF447C8E-6A86-4BB0-AFAA-0E31F633710F";
shapes = (
{
closed = 1;
nodes = (
(275,449,o),
(336,514,o),
(336,593,cs),
(336,671,o),
(275,735,o),
(194,735,cs),
(113,735,o),
(50,671,o),
(50,593,cs),
(50,514,o),
(113,449,o),
(194,449,cs)
);
},
{
closed = 1;
nodes = (
(136,491,o),
(93,535,o),
(93,593,cs),
(93,649,o),
(136,693,o),
(194,693,cs),
(250,693,o),
(293,649,o),
(293,593,cs),
(293,535,o),
(250,491,o),
(194,491,cs)
);
}
);
width = 386;
},
{
layerId = "7706EA0A-ADAC-4E76-A745-8A9A965DB998";
shapes = (
{
closed = 1;
nodes = (
(275,449,o),
(336,514,o),
(336,593,cs),
(336,671,o),
(275,735,o),
(194,735,cs),
(113,735,o),
(50,671,o),
(50,593,cs),
(50,514,o),
(113,449,o),
(194,449,cs)
);
},
{
closed = 1;
nodes = (
(139,497,o),
(99,539,o),
(99,593,cs),
(99,645,o),
(139,687,o),
(194,687,cs),
(247,687,o),
(287,645,o),
(287,593,cs),
(287,539,o),
(247,497,o),
(194,497,cs)
);
}
);
width = 386;
}
);
unicode = 176;
userData = {
KernOnSpecialSpacing = {
L = superiors;
};
};
}
{
glyphname = paragraph;
layers = (
{
layerId = "522FD917-7CD6-43A0-922F-6555542696CE";
shapes = (
{
closed = 1;
nodes = (
(380,-130,l),
(380,600,l),
(414,600,l),
(414,-130,l),
(572,-130,l),
(572,720,l),
(230,720,l),
(112,720,o),
(21,638,o),
(21,520,cs),
(21,406,o),
(112,326,o),
(227,326,cs),
(224,326,l),
(224,-130,l)
);
}
);
width = 622;
},
{
layerId = "AF447C8E-6A86-4BB0-AFAA-0E31F633710F";
shapes = (
{
closed = 1;
nodes = (
(403,-130,l),
(403,670,l),
(541,670,l),
(541,-130,l),
(586,-130,l),
(586,720,l),
(237,720,l),
(119,720,o),
(40,638,o),
(40,520,cs),
(40,406,o),
(119,326,o),
(234,326,cs),
(356,326,l),
(356,-130,l)
);
}
);
width = 669;
},
{
layerId = "7706EA0A-ADAC-4E76-A745-8A9A965DB998";
shapes = (
{
closed = 1;
nodes = (
(402,-130,l),
(402,658,l),
(523,658,l),
(523,-130,l),
(587,-130,l),
(587,720,l),
(239,720,l),
(121,720,o),
(40,638,o),
(40,520,cs),
(40,406,o),
(121,326,o),
(236,326,cs),
(337,326,l),
(337,-130,l)
);
}
);
width = 670;
}
);
metricLeft = "=|P";
metricRight = "=|P";
unicode = 182;
userData = {
KernOnSpecialSpacing = {
L = NoKerning;
R = NoKerning;
};
};
}
{
glyphname = ordmasculine;
kernRight = KO_ordmasculine;
layers = (
{
layerId = "522FD917-7CD6-43A0-922F-6555542696CE";
shapes = (
{
closed = 1;
nodes = (
(301,412,o),
(371,475,o),
(371,572,cs),
(371,669,o),
(304,730,o),
(200,730,cs),
(99,730,o),
(30,669,o),
(30,572,cs),
(30,474,o),
(100,412,o),
(200,412,cs)
);
},
{
closed = 1;
nodes = (
(172,509,o),
(147,531,o),
(147,573,cs),
(147,612,o),
(171,633,o),
(200,633,cs),
(231,633,o),
(254,613,o),
(254,573,cs),
(254,531,o),
(231,509,o),
(200,509,cs)
);
}
);
width = 401;
},
{
layerId = "AF447C8E-6A86-4BB0-AFAA-0E31F633710F";
shapes = (
{
closed = 1;
nodes = (
(280,412,o),
(336,481,o),
(336,572,cs),
(336,664,o),
(279,730,o),
(192,730,cs),
(106,730,o),
(48,664,o),
(48,572,cs),
(48,481,o),
(105,412,o),
(192,412,cs)
);
},
{
closed = 1;
nodes = (
(136,455,o),
(99,502,o),
(99,573,cs),
(99,642,o),
(136,687,o),
(192,687,cs),
(249,687,o),
(284,643,o),
(284,573,cs),
(284,504,o),
(249,455,o),
(192,455,cs)
);
}
);
width = 384;
},
{
layerId = "7706EA0A-ADAC-4E76-A745-8A9A965DB998";
shapes = (
{
closed = 1;
nodes = (
(287,412,o),
(345,480,o),
(345,572,cs),
(345,665,o),
(286,730,o),
(196,730,cs),
(108,730,o),
(48,665,o),
(48,572,cs),
(48,480,o),
(107,412,o),
(196,412,cs)
);
},
{
closed = 1;
nodes = (
(145,464,o),
(110,507,o),
(110,573,cs),
(110,637,o),
(145,678,o),
(196,678,cs),
(249,678,o),
(282,638,o),
(282,573,cs),
(282,508,o),
(249,464,o),
(196,464,cs)
);
}
);
width = 393;
}
);
metricLeft = O;
metricRight = O;
unicode = 186;
userData = {
KernOnSpecialSpacing = {
L = superiors;
R = superiors;
};
};
}
{
glyphname = AE;
kernLeft = KO_A;
kernRight = KO_E;
layers = (
{
layerId = "522FD917-7CD6-43A0-922F-6555542696CE";
shapes = (
{
closed = 1;
nodes = (
(189,0,l),
(397,720,l),
(251,720,l),
(22,0,l)
);
},
{
closed = 1;
nodes = (
(634,0,l),
(634,720,l),
(465,720,l),
(465,0,l)
);
},
{
closed = 1;
nodes = (
(910,0,l),
(910,127,l),
(544,127,l),
(544,0,l)
);
},
{
closed = 1;
nodes = (
(879,304,l),
(879,430,l),
(236,430,l),
(236,304,l)
);
},
{
closed = 1;
nodes = (
(899,592,l),
(899,720,l),
(308,720,l),
(308,592,l)
);
}
);
width = 950;
},
{
layerId = "AF447C8E-6A86-4BB0-AFAA-0E31F633710F";
shapes = (
{
closed = 1;
nodes = (
(92,0,l),
(347,720,l),
(292,720,l),
(34,0,l)
);
},
{
closed = 1;
nodes = (
(497,0,l),
(497,720,l),
(436,720,l),
(436,0,l)
);
},
{
closed = 1;
nodes = (
(794,0,l),
(794,59,l),
(471,59,l),
(471,0,l)
);
},
{
closed = 1;
nodes = (
(760,347,l),
(760,406,l),
(199,406,l),
(199,347,l)
);
},
{
closed = 1;
nodes = (
(786,662,l),
(786,720,l),
(306,720,l),
(306,662,l)
);
}
);
width = 860;
},
{
layerId = "7706EA0A-ADAC-4E76-A745-8A9A965DB998";
shapes = (
{
closed = 1;
nodes = (
(110,0,l),
(357,720,l),
(287,720,l),
(34,0,l)
);
},
{
closed = 1;
nodes = (
(522,0,l),
(522,720,l),
(443,720,l),
(443,0,l)
);
},
{
closed = 1;
nodes = (
(815,0,l),
(815,70,l),
(485,70,l),
(485,0,l)
);
},
{
closed = 1;
nodes = (
(782,340,l),
(782,410,l),
(207,410,l),
(207,340,l)
);
},
{
closed = 1;
nodes = (
(807,650,l),
(807,720,l),
(308,720,l),
(308,650,l)
);
}
);
width = 881;
}
);
metricLeft = A;
metricRight = E;
unicode = 198;
}
{
glyphname = Eth;
kernRight = KO_D;
layers = (
{
layerId = "522FD917-7CD6-43A0-922F-6555542696CE";
shapes = (
{
alignment = -1;
pos = (18,0);
ref = D;
},
{
closed = 1;
nodes = (
(377,297,l),
(377,428,l),
(10,428,l),
(10,297,l)
);
}
);
width = 729;
},
{
layerId = "AF447C8E-6A86-4BB0-AFAA-0E31F633710F";
shapes = (
{
alignment = -1;
ref = D;
},
{
closed = 1;
nodes = (
(353,333,l),
(353,386,l),
(0,386,l),
(0,333,l)
);
}
);
width = 699;
},
{
layerId = "7706EA0A-ADAC-4E76-A745-8A9A965DB998";
shapes = (
{
alignment = -1;
ref = D;
},
{
closed = 1;
nodes = (
(355,327,l),
(355,393,l),
(0,393,l),
(0,327,l)
);
}
);
width = 701;
}
);
unicode = 208;
}
{
glyphname = multiply;
layers = (
{
layerId = "522FD917-7CD6-43A0-922F-6555542696CE";
shapes = (
{
closed = 1;
nodes = (
(518,222,l),
(134,606,l),
(49,522,l),
(433,138,l)
);
},
{
closed = 1;
nodes = (
(518,522,l),
(433,606,l),
(49,222,l),
(134,138,l)
);
}
);
width = 566;
},
{
layerId = "AF447C8E-6A86-4BB0-AFAA-0E31F633710F";
shapes = (
{
closed = 1;
nodes = (
(448,221,l),
(107,562,l),
(68,522,l),
(409,181,l)
);
},
{
closed = 1;
nodes = (
(448,522,l),
(409,562,l),
(68,221,l),
(107,181,l)
);
}
);
width = 516;
},
{
layerId = "7706EA0A-ADAC-4E76-A745-8A9A965DB998";
shapes = (
{
closed = 1;
nodes = (
(463,221,l),
(115,569,l),
(68,522,l),
(416,174,l)
);
},
{
closed = 1;
nodes = (
(463,522,l),
(416,569,l),
(68,221,l),
(115,174,l)
);
}
);
width = 531;
}
);
unicode = 215;
userData = {
KernOnSpecialSpacing = {
L = math;
R = math;
};
};
}
{
glyphname = Oslash;
layers = (
{
layerId = "522FD917-7CD6-43A0-922F-6555542696CE";
shapes = (
{
alignment = -1;
ref = O;
},
{
closed = 1;
nodes = (
(711,653,l),
(626,730,l),
(36,67,l),
(121,-10,l)
);
}
);
width = 757;
},
{
layerId = "AF447C8E-6A86-4BB0-AFAA-0E31F633710F";
shapes = (
{
alignment = -1;
ref = O;
},
{
closed = 1;
nodes = (
(663,700,l),
(622,730,l),
(55,20,l),
(96,-10,l)
);
}
);
width = 718;
},
{
layerId = "7706EA0A-ADAC-4E76-A745-8A9A965DB998";
shapes = (
{
alignment = -1;
ref = O;
},
{
closed = 1;
nodes = (
(674,692,l),
(626,730,l),
(55,28,l),
(103,-10,l)
);
}
);
width = 729;
}
);
unicode = 216;
}
{
glyphname = Thorn;
kernLeft = KO_B;
layers = (
{
layerId = "522FD917-7CD6-43A0-922F-6555542696CE";
shapes = (
{
closed = 1;
nodes = (
(368,149,ls),
(519,149,o),
(623,239,o),
(623,370,cs),
(623,500,o),
(519,590,o),
(368,590,cs),
(182,590,l),
(182,463,l),
(358,463,ls),
(417,463,o),
(454,425,o),
(454,370,cs),
(454,315,o),
(416,277,o),
(358,277,cs),
(182,277,l),
(182,149,l)
);
},
{
closed = 1;
nodes = (
(216,0,l),
(216,720,l),
(47,720,l),
(47,0,l)
);
}
);
width = 645;
},
{
layerId = "AF447C8E-6A86-4BB0-AFAA-0E31F633710F";
shapes = (
{
closed = 1;
nodes = (
(324,165,ls),
(470,165,o),
(555,243,o),
(555,370,cs),
(555,498,o),
(470,576,o),
(324,576,cs),
(124,576,l),
(124,517,l),
(322,517,ls),
(435,517,o),
(494,464,o),
(494,370,cs),
(494,275,o),
(434,223,o),
(322,223,cs),
(124,223,l),
(124,165,l)
);
},
{
closed = 1;
nodes = (
(144,0,l),
(144,720,l),
(83,720,l),
(83,0,l)
);
}
);
width = 595;
},
{
layerId = "7706EA0A-ADAC-4E76-A745-8A9A965DB998";
shapes = (
{
closed = 1;
nodes = (
(337,162,ls),
(484,162,o),
(572,242,o),
(572,370,cs),
(572,498,o),
(484,578,o),
(337,578,cs),
(140,578,l),
(140,508,l),
(334,508,ls),
(438,508,o),
(493,458,o),
(493,370,cs),
(493,282,o),
(438,232,o),
(334,232,cs),
(140,232,l),
(140,162,l)
);
},
{
closed = 1;
nodes = (
(162,0,l),
(162,720,l),
(83,720,l),
(83,0,l)
);
}
);
width = 612;
}
);
unicode = 222;
}
{
glyphname = germandbls;
kernLeft = KO_idotless;
layers = (
{
layerId = "522FD917-7CD6-43A0-922F-6555542696CE";
shapes = (
{
closed = 1;
nodes = (
(501,-10,o),
(597,71,o),
(597,199,cs),
(597,309,o),
(527,392,o),
(397,392,c),
(387,371,l),
(486,371,o),
(561,430,o),
(561,533,cs),
(561,647,o),
(467,730,o),
(313,730,cs),
(137,730,o),
(57,626,o),
(57,477,cs),
(57,0,l),
(221,0,l),
(221,486,ls),
(221,561,o),
(246,601,o),
(309,601,cs),
(362,601,o),
(390,570,o),
(390,517,cs),
(390,469,o),
(357,439,o),
(305,439,cs),
(279,439,l),
(279,314,l),
(318,314,ls),
(391,314,o),
(427,276,o),
(427,216,cs),
(427,149,o),
(391,118,o),
(336,118,cs),
(311,118,o),
(293,123,o),
(279,129,c),
(279,5,l),
(298,-6,o),
(330,-10,o),
(363,-10,cs)
);
}
);
width = 625;
},
{
layerId = "AF447C8E-6A86-4BB0-AFAA-0E31F633710F";
shapes = (
{
closed = 1;
nodes = (
(437,-9,o),
(526,72,o),
(526,193,cs),
(526,312,o),
(438,392,o),
(307,392,c),
(317,371,l),
(414,371,o),
(491,443,o),
(491,546,cs),
(491,659,o),
(408,730,o),
(285,730,cs),
(163,730,o),
(77,655,o),
(77,518,cs),
(77,0,l),
(137,0,l),
(137,511,ls),
(137,626,o),
(203,680,o),
(288,680,cs),
(375,680,o),
(429,626,o),
(429,541,cs),
(429,458,o),
(372,408,o),
(302,408,cs),
(245,408,l),
(245,351,l),
(302,351,ls),
(398,351,o),
(465,286,o),
(465,192,cs),
(465,104,o),
(417,45,o),
(284,45,cs),
(262,45,o),
(243,47,o),
(221,52,c),
(221,-2,l),
(235,-6,o),
(258,-9,o),
(285,-9,cs)
);
}
);
width = 565;
},
{
layerId = "7706EA0A-ADAC-4E76-A745-8A9A965DB998";
shapes = (
{
closed = 1;
nodes = (
(451,-9,o),
(541,72,o),
(541,194,cs),
(541,311,o),
(456,392,o),
(325,392,c),
(332,371,l),
(430,371,o),
(506,441,o),
(506,544,cs),
(506,657,o),
(421,730,o),
(293,730,cs),
(162,730,o),
(77,650,o),
(77,511,cs),
(77,0,l),
(154,0,l),
(154,507,ls),
(154,615,o),
(213,667,o),
(295,667,cs),
(376,667,o),
(426,617,o),
(426,537,cs),
(426,460,o),
(373,413,o),
(306,413,cs),
(254,413,l),
(254,345,l),
(308,345,ls),
(400,345,o),
(462,285,o),
(462,196,cs),
(462,111,o),
(416,57,o),
(296,57,cs),
(272,57,o),
(253,60,o),
(234,65,c),
(234,-1,l),
(249,-6,o),
(273,-9,o),
(301,-9,cs)
);
}
);
width = 580;
}
);
metricLeft = h;
unicode = 223;
}
{
glyphname = ae;
kernLeft = KO_a;
kernRight = KO_e;
layers = (
{
layerId = "522FD917-7CD6-43A0-922F-6555542696CE";
shapes = (
{
closed = 1;
nodes = (
(495,138,l),
(495,333,ls),
(495,453,o),
(416,520,o),
(276,520,cs),
(139,520,o),
(62,450,o),
(50,359,c),
(205,359,l),
(213,388,o),
(242,404,o),
(277,404,cs),
(318,404,o),
(345,382,o),
(345,348,cs),
(345,138,l)
);
},
{
closed = 1;
nodes = (
(311,-10,o),
(379,24,o),
(428,139,c),
(345,177,l),
(345,140,o),
(290,108,o),
(258,108,cs),
(220,108,o),
(199,124,o),
(199,154,cs),
(199,184,o),
(221,201,o),
(270,210,cs),
(352,225,l),
(352,320,l),
(226,300,ls),
(88,278,o),
(36,215,o),
(36,136,cs),
(36,46,o),
(107,-10,o),
(208,-10,cs)
);
},
{
closed = 1;
nodes = (
(713,-10,o),
(791,52,o),
(823,154,c),
(667,154,l),
(656,121,o),
(636,106,o),
(596,106,cs),
(529,106,o),
(495,149,o),
(495,252,cs),
(495,368,o),
(530,404,o),
(598,404,cs),
(653,404,o),
(687,371,o),
(687,296,c),
(709,312,l),
(426,312,l),
(426,207,l),
(830,207,l),
(832,223,o),
(834,242,o),
(834,265,cs),
(834,419,o),
(736,520,o),
(590,520,cs),
(439,520,o),
(342,414,o),
(342,255,cs),
(342,98,o),
(440,-10,o),
(595,-10,cs)
);
}
);
width = 854;
},
{
layerId = "AF447C8E-6A86-4BB0-AFAA-0E31F633710F";
shapes = (
{
closed = 1;
nodes = (
(412,132,l),
(412,351,ls),
(412,464,o),
(358,520,o),
(248,520,cs),
(136,520,o),
(64,462,o),
(59,363,c),
(118,363,l),
(121,425,o),
(167,464,o),
(243,464,cs),
(316,464,o),
(348,426,o),
(348,349,cs),
(348,132,l)
);
},
{
closed = 1;
nodes = (
(288,-10,o),
(368,29,o),
(405,132,c),
(348,165,l),
(348,95,o),
(293,46,o),
(206,46,cs),
(141,46,o),
(105,75,o),
(105,125,cs),
(105,181,o),
(138,214,o),
(218,228,cs),
(372,255,l),
(372,314,l),
(211,282,ls),
(95,259,o),
(45,207,o),
(45,125,cs),
(45,44,o),
(103,-10,o),
(199,-10,cs)
);
},
{
closed = 1;
nodes = (
(653,-10,o),
(722,50,o),
(749,143,c),
(692,143,l),
(670,81,o),
(626,46,o),
(564,46,cs),
(470,46,o),
(412,131,o),
(412,258,cs),
(412,380,o),
(478,464,o),
(564,464,cs),
(656,464,o),
(701,390,o),
(702,253,c),
(729,295,l),
(398,295,l),
(398,238,l),
(760,238,l),
(762,250,o),
(763,257,o),
(763,269,cs),
(763,426,o),
(690,520,o),
(567,520,cs),
(441,520,o),
(358,415,o),
(358,256,cs),
(358,100,o),
(433,-10,o),
(561,-10,cs)
);
}
);
width = 802;
},
{
layerId = "7706EA0A-ADAC-4E76-A745-8A9A965DB998";
shapes = (
{
closed = 1;
nodes = (
(427,133,l),
(427,348,ls),
(427,462,o),
(369,520,o),
(254,520,cs),
(138,520,o),
(65,460,o),
(59,362,c),
(134,362,l),
(138,419,o),
(181,454,o),
(250,454,cs),
(318,454,o),
(349,419,o),
(349,349,cs),
(349,133,l)
);
},
{
closed = 1;
nodes = (
(293,-10,o),
(371,28,o),
(410,133,c),
(349,167,l),
(349,102,o),
(294,56,o),
(216,56,cs),
(155,56,o),
(122,83,o),
(122,130,cs),
(122,180,o),
(152,211,o),
(227,225,cs),
(370,250,l),
(370,315,l),
(213,285,ls),
(97,262,o),
(45,209,o),
(45,127,cs),
(45,44,o),
(105,-10,o),
(202,-10,cs)
);
},
{
closed = 1;
nodes = (
(664,-10,o),
(735,50,o),
(763,145,c),
(689,145,l),
(669,88,o),
(629,56,o),
(571,56,cs),
(481,56,o),
(427,134,o),
(427,257,cs),
(427,378,o),
(488,454,o),
(571,454,cs),
(657,454,o),
(700,387,o),
(701,260,c),
(727,298,l),
(404,298,l),
(404,233,l),
(773,233,l),
(775,246,o),
(776,255,o),
(776,268,cs),
(776,425,o),
(699,520,o),
(572,520,cs),
(442,520,o),
(357,414,o),
(357,256,cs),
(357,99,o),
(436,-10,o),
(568,-10,cs)
);
}
);
width = 815;
}
);
metricLeft = a;
metricRight = e;
unicode = 230;
}
{
glyphname = eth;
layers = (
{
layerId = "522FD917-7CD6-43A0-922F-6555542696CE";
shapes = (
{
closed = 1;
nodes = (
(489,-10,o),
(576,109,o),
(576,304,cs),
(576,584,o),
(411,730,o),
(128,730,c),
(101,625,l),
(318,625,o),
(408,529,o),
(408,353,cs),
(408,295,l),
(451,350,l),
(438,440,o),
(383,496,o),
(278,496,cs),
(149,496,o),
(29,407,o),
(29,250,cs),
(29,84,o),
(140,-10,o),
(296,-10,cs)
);
},
{
closed = 1;
nodes = (
(250,117,o),
(206,152,o),
(206,247,cs),
(206,337,o),
(251,374,o),
(304,374,cs),
(359,374,o),
(405,338,o),
(405,247,cs),
(405,154,o),
(354,117,o),
(303,117,cs)
);
},
{
closed = 1;
nodes = (
(493,677,l),
(444,756,l),
(154,577,l),
(204,498,l)
);
}
);
width = 600;
},
{
layerId = "AF447C8E-6A86-4BB0-AFAA-0E31F633710F";
shapes = (
{
closed = 1;
nodes = (
(409,-10,o),
(506,116,o),
(506,350,cs),
(506,596,o),
(341,730,o),
(105,730,c),
(97,674,l),
(308,674,o),
(445,565,o),
(445,359,cs),
(445,306,l),
(459,345,l),
(440,435,o),
(356,496,o),
(256,496,cs),
(134,496,o),
(38,401,o),
(38,239,cs),
(38,79,o),
(137,-10,o),
(262,-10,cs)
);
},
{
closed = 1;
nodes = (
(168,49,o),
(99,114,o),
(99,241,cs),
(99,373,o),
(162,439,o),
(259,439,cs),
(351,439,o),
(431,377,o),
(431,252,cs),
(431,122,o),
(361,49,o),
(257,49,cs)
);
},
{
closed = 1;
nodes = (
(436,713,l),
(409,755,l),
(145,578,l),
(172,538,l)
);
}
);
width = 547;
},
{
layerId = "7706EA0A-ADAC-4E76-A745-8A9A965DB998";
shapes = (
{
closed = 1;
nodes = (
(424,-10,o),
(519,115,o),
(519,342,cs),
(519,594,o),
(354,730,o),
(110,730,c),
(99,666,l),
(311,666,o),
(440,559,o),
(440,358,cs),
(440,304,l),
(459,346,l),
(441,436,o),
(362,496,o),
(261,496,cs),
(138,496,o),
(38,402,o),
(38,241,cs),
(38,80,o),
(139,-10,o),
(269,-10,cs)
);
},
{
closed = 1;
nodes = (
(183,60,o),
(118,120,o),
(118,242,cs),
(118,367,o),
(178,428,o),
(268,428,cs),
(354,428,o),
(428,370,o),
(428,251,cs),
(428,127,o),
(361,60,o),
(266,60,cs)
);
},
{
closed = 1;
nodes = (
(447,707,l),
(416,755,l),
(148,578,l),
(179,531,l)
);
}
);
width = 560;
}
);
metricRight = "=|d";
unicode = 240;
}
{
glyphname = divide;
kernLeft = KO_plus;
kernRight = KO_plus;
layers = (
{
layerId = "522FD917-7CD6-43A0-922F-6555542696CE";
shapes = (
{
closed = 1;
nodes = (
(511,313,l),
(511,429,l),
(50,429,l),
(50,313,l)
);
},
{
closed = 1;
nodes = (
(321,478,o),
(358,510,o),
(358,557,cs),
(358,601,o),
(321,634,o),
(281,634,cs),
(237,634,o),
(203,601,o),
(203,557,cs),
(203,510,o),
(237,478,o),
(281,478,cs)
);
},
{
closed = 1;
nodes = (
(321,109,o),
(358,141,o),
(358,187,cs),
(358,232,o),
(321,265,o),
(281,265,cs),
(237,265,o),
(203,232,o),
(203,187,cs),
(203,141,o),
(237,109,o),
(281,109,cs)
);
}
);
width = 561;
},
{
layerId = "AF447C8E-6A86-4BB0-AFAA-0E31F633710F";
shapes = (
{
closed = 1;
nodes = (
(461,343,l),
(461,399,l),
(60,399,l),
(60,343,l)
);
},
{
closed = 1;
nodes = (
(288,482,o),
(313,503,o),
(313,534,cs),
(313,563,o),
(288,586,o),
(261,586,cs),
(232,586,o),
(208,564,o),
(208,534,cs),
(208,503,o),
(231,482,o),
(261,482,cs)
);
},
{
closed = 1;
nodes = (
(288,156,o),
(313,177,o),
(313,209,cs),
(313,239,o),
(288,260,o),
(261,260,cs),
(231,260,o),
(208,239,o),
(208,209,cs),
(208,177,o),
(232,156,o),
(261,156,cs)
);
}
);
width = 521;
},
{
layerId = "7706EA0A-ADAC-4E76-A745-8A9A965DB998";
shapes = (
{
closed = 1;
nodes = (
(471,338,l),
(471,404,l),
(60,404,l),
(60,338,l)
);
},
{
closed = 1;
nodes = (
(295,481,o),
(322,504,o),
(322,538,cs),
(322,570,o),
(295,594,o),
(266,594,cs),
(234,594,o),
(209,570,o),
(209,538,cs),
(209,504,o),
(234,481,o),
(266,481,cs)
);
},
{
closed = 1;
nodes = (
(295,148,o),
(322,171,o),
(322,205,cs),
(322,238,o),
(295,261,o),
(266,261,cs),
(234,261,o),
(209,238,o),
(209,205,cs),
(209,171,o),
(234,148,o),
(266,148,cs)
);
}
);
width = 531;
}
);
unicode = 247;
userData = {
KernOnSpecialSpacing = {
L = math;
R = math;
};
};
}
{
glyphname = oslash;
layers = (
{
layerId = "522FD917-7CD6-43A0-922F-6555542696CE";
shapes = (
{
closed = 1;
nodes = (
(458,-10,o),
(570,95,o),
(570,257,cs),
(570,417,o),
(462,520,o),
(295,520,cs),
(130,520,o),
(20,418,o),
(20,257,cs),
(20,95,o),
(132,-10,o),
(295,-10,cs)
);
},
{
closed = 1;
nodes = (
(231,110,o),
(185,159,o),
(185,258,cs),
(185,353,o),
(231,400,o),
(295,400,cs),
(360,400,o),
(405,354,o),
(405,258,cs),
(405,160,o),
(359,110,o),
(295,110,cs)
);
},
{
closed = 1;
nodes = (
(564,457,l),
(488,530,l),
(25,53,l),
(101,-20,l)
);
}
);
width = 590;
},
{
layerId = "AF447C8E-6A86-4BB0-AFAA-0E31F633710F";
shapes = (
{
closed = 1;
nodes = (
(412,-10,o),
(500,107,o),
(500,257,cs),
(500,408,o),
(410,520,o),
(271,520,cs),
(132,520,o),
(40,408,o),
(40,257,cs),
(40,107,o),
(131,-10,o),
(271,-10,cs)
);
},
{
closed = 1;
nodes = (
(168,45,o),
(103,134,o),
(103,258,cs),
(103,381,o),
(168,465,o),
(271,465,cs),
(374,465,o),
(438,381,o),
(438,258,cs),
(438,134,o),
(374,45,o),
(271,45,cs)
);
},
{
closed = 1;
nodes = (
(504,480,l),
(470,511,l),
(38,30,l),
(72,-1,l)
);
}
);
width = 542;
},
{
layerId = "7706EA0A-ADAC-4E76-A745-8A9A965DB998";
shapes = (
{
closed = 1;
nodes = (
(422,-10,o),
(514,105,o),
(514,257,cs),
(514,410,o),
(421,520,o),
(277,520,cs),
(134,520,o),
(39,410,o),
(39,257,cs),
(39,105,o),
(133,-10,o),
(277,-10,cs)
);
},
{
closed = 1;
nodes = (
(181,56,o),
(119,138,o),
(119,258,cs),
(119,377,o),
(181,454,o),
(277,454,cs),
(374,454,o),
(435,377,o),
(435,258,cs),
(435,138,o),
(374,56,o),
(277,56,cs)
);
},
{
closed = 1;
nodes = (
(516,476,l),
(475,514,l),
(38,34,l),
(79,-4,l)
);
}
);
width = 554;
}
);
unicode = 248;
}
{
glyphname = thorn;
kernLeft = KO_j;
kernRight = KO_p;
layers = (
{
layerId = "522FD917-7CD6-43A0-922F-6555542696CE";
shapes = (
{
closed = 1;
nodes = (
(503,-10,o),
(589,95,o),
(589,258,cs),
(589,418,o),
(508,520,o),
(378,520,cs),
(290,520,o),
(222,476,o),
(210,403,c),
(221,401,l),
(221,720,l),
(57,720,l),
(57,-205,l),
(221,-205,l),
(221,113,l),
(214,112,l),
(223,35,o),
(281,-10,o),
(370,-10,cs)
);
},
{
closed = 1;
nodes = (
(257,120,o),
(220,166,o),
(220,255,cs),
(220,343,o),
(257,389,o),
(318,389,cs),
(379,389,o),
(418,345,o),
(418,256,cs),
(418,167,o),
(379,120,o),
(319,120,cs)
);
}
);
width = 613;
},
{
layerId = "AF447C8E-6A86-4BB0-AFAA-0E31F633710F";
shapes = (
{
closed = 1;
nodes = (
(432,-9,o),
(518,96,o),
(518,258,cs),
(518,416,o),
(435,520,o),
(306,520,cs),
(218,520,o),
(146,473,o),
(121,397,c),
(137,393,l),
(137,720,l),
(77,720,l),
(77,-205,l),
(137,-205,l),
(137,126,l),
(120,123,l),
(143,41,o),
(209,-9,o),
(299,-9,cs)
);
},
{
closed = 1;
nodes = (
(194,47,o),
(132,126,o),
(132,254,cs),
(132,385,o),
(192,465,o),
(295,465,cs),
(398,465,o),
(457,387,o),
(457,257,cs),
(457,126,o),
(398,47,o),
(296,47,cs)
);
}
);
width = 559;
},
{
layerId = "7706EA0A-ADAC-4E76-A745-8A9A965DB998";
shapes = (
{
closed = 1;
nodes = (
(447,-9,o),
(533,96,o),
(533,258,cs),
(533,417,o),
(450,520,o),
(321,520,cs),
(234,520,o),
(162,474,o),
(139,398,c),
(154,394,l),
(154,720,l),
(77,720,l),
(77,-205,l),
(154,-205,l),
(154,124,l),
(139,121,l),
(160,39,o),
(225,-9,o),
(314,-9,cs)
);
},
{
closed = 1;
nodes = (
(208,59,o),
(150,132,o),
(150,254,cs),
(150,378,o),
(206,452,o),
(302,452,cs),
(398,452,o),
(454,380,o),
(454,257,cs),
(454,132,o),
(398,59,o),
(303,59,cs)
);
}
);
width = 574;
}
);
unicode = 254;
}
{
glyphname = dcroat;
kernLeft = KO_d;
kernRight = KO_j;
layers = (
{
layerId = "522FD917-7CD6-43A0-922F-6555542696CE";
shapes = (
{
alignment = -1;
ref = d;
},
{
closed = 1;
nodes = (
(610,574,l),
(610,681,l),
(228,681,l),
(228,574,l)
);
}
);
width = 610;
},
{
layerId = "AF447C8E-6A86-4BB0-AFAA-0E31F633710F";
shapes = (
{
alignment = -1;
ref = d;
},
{
closed = 1;
nodes = (
(562,599,l),
(562,645,l),
(253,645,l),
(253,599,l)
);
}
);
width = 562;
},
{
layerId = "7706EA0A-ADAC-4E76-A745-8A9A965DB998";
shapes = (
{
alignment = -1;
ref = d;
},
{
closed = 1;
nodes = (
(574,595,l),
(574,651,l),
(253,651,l),
(253,595,l)
);
}
);
width = 574;
}
);
unicode = 273;
}
{
glyphname = hbar;
kernRight = KO_n;
layers = (
{
layerId = "522FD917-7CD6-43A0-922F-6555542696CE";
shapes = (
{
alignment = -1;
ref = h;
},
{
closed = 1;
nodes = (
(382,574,l),
(382,681,l),
(0,681,l),
(0,574,l)
);
}
);
width = 600;
},
{
layerId = "AF447C8E-6A86-4BB0-AFAA-0E31F633710F";
shapes = (
{
alignment = -1;
ref = h;
},
{
closed = 1;
nodes = (
(309,599,l),
(309,645,l),
(0,645,l),
(0,599,l)
);
}
);
width = 556;
},
{
layerId = "7706EA0A-ADAC-4E76-A745-8A9A965DB998";
shapes = (
{
alignment = -1;
ref = h;
},
{
closed = 1;
nodes = (
(321,595,l),
(321,651,l),
(0,651,l),
(0,595,l)
);
}
);
width = 568;
}
);
unicode = 295;
}
{
glyphname = idotless;
kernLeft = KO_idotless;
kernRight = KO_u;
layers = (
{
anchors = (
{
name = bottom;
pos = (140,0);
},
{
name = ogonek;
pos = (222,0);
},
{
name = top;
pos = (140,510);
}
);
layerId = "522FD917-7CD6-43A0-922F-6555542696CE";
shapes = (
{
closed = 1;
nodes = (
(221,0,l),
(221,510,l),
(57,510,l),
(57,0,l)
);
}
);
width = 279;
},
{
anchors = (
{
name = bottom;
pos = (107,0);
},
{
name = ogonek;
pos = (136,0);
},
{
name = top;
pos = (107,510);
}
);
layerId = "AF447C8E-6A86-4BB0-AFAA-0E31F633710F";
shapes = (
{
closed = 1;
nodes = (
(137,0,l),
(137,510,l),
(77,510,l),
(77,0,l)
);
}
);
width = 214;
},
{
anchors = (
{
name = bottom;
pos = (116,0);
},
{
name = ogonek;
pos = (154,0);
},
{
name = top;
pos = (116,510);
}
);
layerId = "7706EA0A-ADAC-4E76-A745-8A9A965DB998";
shapes = (
{
closed = 1;
nodes = (
(154,0,l),
(154,510,l),
(77,510,l),
(77,0,l)
);
}
);
width = 231;
}
);
metricRight = "=|";
unicode = 305;
}
{
glyphname = Lslash;
kernRight = KO_Lslash;
layers = (
{
layerId = "522FD917-7CD6-43A0-922F-6555542696CE";
shapes = (
{
alignment = -1;
pos = (10,0);
ref = L;
},
{
closed = 1;
nodes = (
(164,437,l),
(0,367,l),
(0,249,l),
(163,319,l)
);
},
{
closed = 1;
nodes = (
(166,330,l),
(364,417,l),
(364,535,l),
(166,448,l)
);
}
);
width = 570;
},
{
layerId = "AF447C8E-6A86-4BB0-AFAA-0E31F633710F";
shapes = (
{
alignment = -1;
ref = L;
},
{
closed = 1;
nodes = (
(117,401,l),
(0,353,l),
(0,301,l),
(120,350,l)
);
},
{
closed = 1;
nodes = (
(119,353,l),
(290,424,l),
(290,476,l),
(117,404,l)
);
}
);
width = 533;
},
{
layerId = "7706EA0A-ADAC-4E76-A745-8A9A965DB998";
shapes = (
{
alignment = -1;
ref = L;
},
{
closed = 1;
nodes = (
(125,407,l),
(0,355,l),
(0,292,l),
(127,345,l)
);
},
{
closed = 1;
nodes = (
(127,349,l),
(302,423,l),
(302,486,l),
(125,411,l)
);
}
);
width = 545;
}
);
unicode = 321;
}
{
glyphname = lslash;
layers = (
{
layerId = "522FD917-7CD6-43A0-922F-6555542696CE";
shapes = (
{
alignment = -1;
pos = (20,0);
ref = l;
},
{
closed = 1;
nodes = (
(161,432,l),
(10,367,l),
(10,261,l),
(161,326,l)
);
},
{
closed = 1;
nodes = (
(161,337,l),
(299,397,l),
(299,503,l),
(161,443,l)
);
}
);
width = 309;
},
{
layerId = "AF447C8E-6A86-4BB0-AFAA-0E31F633710F";
shapes = (
{
alignment = -1;
pos = (8,0);
ref = l;
},
{
closed = 1;
nodes = (
(120,403,l),
(0,354,l),
(0,301,l),
(121,351,l)
);
},
{
closed = 1;
nodes = (
(121,354,l),
(239,403,l),
(239,456,l),
(120,406,l)
);
}
);
width = 239;
},
{
layerId = "7706EA0A-ADAC-4E76-A745-8A9A965DB998";
shapes = (
{
alignment = -1;
pos = (8,0);
ref = l;
},
{
closed = 1;
nodes = (
(125,408,l),
(0,356,l),
(0,294,l),
(126,347,l)
);
},
{
closed = 1;
nodes = (
(126,351,l),
(247,402,l),
(247,464,l),
(125,412,l)
);
}
);
width = 247;
}
);
unicode = 322;
}
{
glyphname = Eng;
kernLeft = KO_B;
kernRight = KO_Iacute;
layers = (
{
layerId = "522FD917-7CD6-43A0-922F-6555542696CE";
shapes = (
{
closed = 1;
nodes = (
(211,0,l),
(211,633,l),
(159,621,l),
(476,0,l),
(641,0,l),
(641,720,l),
(477,720,l),
(477,137,l),
(579,119,l),
(267,720,l),
(47,720,l),
(47,0,l)
);
},
{
closed = 1;
nodes = (
(582,-215,o),
(641,-152,o),
(641,-36,cs),
(641,51,l),
(473,51,l),
(473,-29,ls),
(473,-70,o),
(453,-85,o),
(415,-85,cs),
(396,-85,o),
(379,-81,o),
(366,-76,c),
(366,-205,l),
(387,-211,o),
(413,-215,o),
(448,-215,cs)
);
}
);
width = 687;
},
{
layerId = "AF447C8E-6A86-4BB0-AFAA-0E31F633710F";
shapes = (
{
closed = 1;
nodes = (
(140,0,l),
(140,603,l),
(137,603,l),
(536,0,l),
(593,0,l),
(593,720,l),
(535,720,l),
(535,107,l),
(541,113,l),
(141,720,l),
(83,720,l),
(83,0,l)
);
},
{
closed = 1;
nodes = (
(553,-215,o),
(593,-164,o),
(593,-90,cs),
(593,19,l),
(533,19,l),
(533,-88,ls),
(533,-133,o),
(517,-157,o),
(455,-157,cs),
(428,-157,o),
(406,-152,o),
(391,-148,c),
(391,-206,l),
(402,-210,o),
(422,-215,o),
(455,-215,cs)
);
}
);
width = 676;
},
{
layerId = "7706EA0A-ADAC-4E76-A745-8A9A965DB998";
shapes = (
{
closed = 1;
nodes = (
(158,0,l),
(158,608,l),
(147,606,l),
(532,0,l),
(607,0,l),
(607,720,l),
(531,720,l),
(531,112,l),
(553,114,l),
(168,720,l),
(83,720,l),
(83,0,l)
);
},
{
closed = 1;
nodes = (
(564,-215,o),
(607,-162,o),
(607,-81,cs),
(607,24,l),
(529,24,l),
(529,-78,ls),
(529,-123,o),
(512,-145,o),
(454,-145,cs),
(428,-145,o),
(407,-140,o),
(393,-136,c),
(393,-206,l),
(405,-210,o),
(426,-215,o),
(460,-215,cs)
);
}
);
width = 690;
}
);
unicode = 330;
}
{
glyphname = eng;
kernLeft = KO_idotless;
kernRight = KO_n;
layers = (
{
layerId = "522FD917-7CD6-43A0-922F-6555542696CE";
shapes = (
{
closed = 1;
nodes = (
(493,-215,o),
(551,-151,o),
(551,-47,cs),
(551,352,ls),
(551,456,o),
(495,520,o),
(390,520,cs),
(299,520,o),
(239,474,o),
(207,399,c),
(221,287,l),
(221,347,o),
(260,389,o),
(318,389,cs),
(363,389,o),
(386,366,o),
(386,321,cs),
(386,-43,ls),
(386,-72,o),
(366,-86,o),
(339,-86,cs),
(329,-86,o),
(318,-84,o),
(307,-79,c),
(307,-205,l),
(330,-212,o),
(349,-215,o),
(371,-215,cs)
);
},
{
closed = 1;
nodes = (
(221,0,l),
(221,395,l),
(219,395,l),
(219,510,l),
(57,510,l),
(57,0,l)
);
}
);
width = 603;
},
{
layerId = "AF447C8E-6A86-4BB0-AFAA-0E31F633710F";
shapes = (
{
closed = 1;
nodes = (
(442,-215,o),
(481,-175,o),
(481,-102,cs),
(481,364,ls),
(481,457,o),
(414,520,o),
(315,520,cs),
(230,520,o),
(157,474,o),
(125,403,c),
(137,287,l),
(137,391,o),
(206,465,o),
(308,465,cs),
(383,465,o),
(422,425,o),
(422,346,cs),
(422,-98,ls),
(422,-144,o),
(406,-165,o),
(352,-165,cs),
(330,-165,o),
(315,-163,o),
(307,-161,c),
(307,-209,l),
(315,-212,o),
(327,-215,o),
(354,-215,cs)
);
},
{
closed = 1;
nodes = (
(137,0,l),
(137,395,l),
(131,395,l),
(131,510,l),
(77,510,l),
(77,0,l)
);
}
);
width = 553;
},
{
layerId = "7706EA0A-ADAC-4E76-A745-8A9A965DB998";
shapes = (
{
closed = 1;
nodes = (
(454,-215,o),
(496,-171,o),
(496,-93,cs),
(496,362,ls),
(496,457,o),
(431,520,o),
(331,520,cs),
(245,520,o),
(174,474,o),
(142,402,c),
(154,287,l),
(154,383,o),
(218,452,o),
(313,452,cs),
(383,452,o),
(419,415,o),
(419,342,cs),
(419,-89,ls),
(419,-132,o),
(402,-152,o),
(353,-152,cs),
(335,-152,o),
(319,-150,o),
(310,-147,c),
(310,-208,l),
(321,-212,o),
(334,-215,o),
(360,-215,cs)
);
},
{
closed = 1;
nodes = (
(154,0,l),
(154,395,l),
(149,395,l),
(149,510,l),
(77,510,l),
(77,0,l)
);
}
);
width = 568;
}
);
metricLeft = n;
metricRight = n;
unicode = 331;
}
{
glyphname = OE;
kernLeft = KO_O;
kernRight = KO_E;
layers = (
{
layerId = "522FD917-7CD6-43A0-922F-6555542696CE";
shapes = (
{
closed = 1;
nodes = (
(465,-10,o),
(514,-3,o),
(556,9,c),
(538,142,l),
(501,129,o),
(465,122,o),
(408,122,cs),
(270,122,o),
(202,208,o),
(202,361,cs),
(202,512,o),
(270,598,o),
(408,598,cs),
(465,598,o),
(501,591,o),
(538,578,c),
(556,710,l),
(516,722,o),
(468,730,o),
(405,730,cs),
(185,730,o),
(30,588,o),
(30,361,cs),
(30,132,o),
(185,-10,o),
(405,-10,cs)
);
},
{
closed = 1;
nodes = (
(991,0,l),
(991,127,l),
(692,127,l),
(692,304,l),
(961,304,l),
(961,430,l),
(692,430,l),
(692,592,l),
(979,592,l),
(979,720,l),
(521,720,l),
(521,0,l)
);
}
);
width = 1031;
},
{
layerId = "AF447C8E-6A86-4BB0-AFAA-0E31F633710F";
shapes = (
{
closed = 1;
nodes = (
(440,-10,o),
(481,-5,o),
(515,7,c),
(519,76,l),
(492,58,o),
(439,50,o),
(384,50,cs),
(208,50,o),
(112,172,o),
(112,361,cs),
(112,548,o),
(208,670,o),
(384,670,cs),
(439,670,o),
(492,662,o),
(519,644,c),
(515,714,l),
(479,726,o),
(436,730,o),
(385,730,cs),
(173,730,o),
(48,578,o),
(48,361,cs),
(48,142,o),
(173,-10,o),
(385,-10,cs)
);
},
{
closed = 1;
nodes = (
(900,0,l),
(900,59,l),
(543,59,l),
(543,347,l),
(866,347,l),
(866,406,l),
(543,406,l),
(543,662,l),
(893,662,l),
(893,720,l),
(483,720,l),
(483,0,l)
);
}
);
width = 966;
},
{
layerId = "7706EA0A-ADAC-4E76-A745-8A9A965DB998";
shapes = (
{
closed = 1;
nodes = (
(446,-10,o),
(489,-5,o),
(525,7,c),
(525,87,l),
(497,70,o),
(446,62,o),
(391,62,cs),
(221,62,o),
(130,178,o),
(130,361,cs),
(130,542,o),
(221,658,o),
(391,658,cs),
(446,658,o),
(497,650,o),
(525,633,c),
(525,713,l),
(489,725,o),
(446,730,o),
(391,730,cs),
(178,730,o),
(48,580,o),
(48,361,cs),
(48,140,o),
(178,-10,o),
(391,-10,cs)
);
},
{
closed = 1;
nodes = (
(918,0,l),
(918,70,l),
(571,70,l),
(571,340,l),
(885,340,l),
(885,410,l),
(571,410,l),
(571,650,l),
(910,650,l),
(910,720,l),
(492,720,l),
(492,0,l)
);
}
);
width = 984;
}
);
metricLeft = O;
metricRight = E;
unicode = 338;
}
{
glyphname = oe;
kernLeft = KO_e;
kernRight = KO_e;
layers = (
{
layerId = "522FD917-7CD6-43A0-922F-6555542696CE";
shapes = (
{
closed = 1;
nodes = (
(438,-10,o),
(539,95,o),
(539,257,cs),
(539,418,o),
(441,520,o),
(285,520,cs),
(130,520,o),
(20,418,o),
(20,257,cs),
(20,95,o),
(132,-10,o),
(285,-10,cs)
);
},
{
closed = 1;
nodes = (
(231,118,o),
(191,164,o),
(191,258,cs),
(191,349,o),
(231,391,o),
(285,391,cs),
(342,391,o),
(378,348,o),
(378,258,cs),
(378,164,o),
(338,118,o),
(285,118,cs)
);
},
{
closed = 1;
nodes = (
(766,-10,o),
(841,52,o),
(873,154,c),
(718,154,l),
(705,117,o),
(678,106,o),
(647,106,cs),
(582,106,o),
(549,150,o),
(549,252,cs),
(549,358,o),
(585,404,o),
(644,404,cs),
(694,404,o),
(728,371,o),
(728,296,c),
(750,312,l),
(480,312,l),
(480,207,l),
(881,207,l),
(883,223,o),
(885,241,o),
(885,265,cs),
(885,419,o),
(788,520,o),
(643,520,cs),
(493,520,o),
(386,414,o),
(386,255,cs),
(386,98,o),
(492,-10,o),
(648,-10,cs)
);
}
);
width = 905;
},
{
layerId = "AF447C8E-6A86-4BB0-AFAA-0E31F633710F";
shapes = (
{
closed = 1;
nodes = (
(391,-10,o),
(469,107,o),
(469,257,cs),
(469,408,o),
(389,520,o),
(260,520,cs),
(131,520,o),
(39,408,o),
(39,257,cs),
(39,107,o),
(130,-10,o),
(260,-10,cs)
);
},
{
closed = 1;
nodes = (
(167,44,o),
(101,134,o),
(101,258,cs),
(101,383,o),
(167,467,o),
(260,467,cs),
(353,467,o),
(419,383,o),
(419,258,cs),
(419,134,o),
(354,44,o),
(260,44,cs)
);
},
{
closed = 1;
nodes = (
(718,-10,o),
(797,50,o),
(824,143,c),
(766,143,l),
(746,85,o),
(694,46,o),
(636,46,cs),
(546,46,o),
(479,131,o),
(479,258,cs),
(479,382,o),
(545,464,o),
(637,464,cs),
(724,464,o),
(778,388,o),
(778,253,c),
(805,295,l),
(467,295,l),
(467,238,l),
(835,238,l),
(836,248,o),
(837,258,o),
(837,269,cs),
(837,426,o),
(757,520,o),
(638,520,cs),
(510,520,o),
(429,415,o),
(429,256,cs),
(429,99,o),
(510,-10,o),
(632,-10,cs)
);
}
);
width = 876;
},
{
layerId = "7706EA0A-ADAC-4E76-A745-8A9A965DB998";
shapes = (
{
closed = 1;
nodes = (
(402,-10,o),
(484,105,o),
(484,257,cs),
(484,410,o),
(401,520,o),
(267,520,cs),
(134,520,o),
(39,410,o),
(39,257,cs),
(39,105,o),
(133,-10,o),
(267,-10,cs)
);
},
{
closed = 1;
nodes = (
(181,56,o),
(119,138,o),
(119,258,cs),
(119,377,o),
(181,454,o),
(267,454,cs),
(354,454,o),
(415,377,o),
(415,258,cs),
(415,138,o),
(354,56,o),
(267,56,cs)
);
},
{
closed = 1;
nodes = (
(729,-10,o),
(807,50,o),
(835,145,c),
(761,145,l),
(742,90,o),
(694,56,o),
(641,56,cs),
(555,56,o),
(494,134,o),
(494,257,cs),
(494,378,o),
(555,454,o),
(641,454,cs),
(722,454,o),
(773,386,o),
(773,260,c),
(799,298,l),
(472,298,l),
(472,233,l),
(846,233,l),
(847,244,o),
(848,255,o),
(848,268,cs),
(848,425,o),
(765,520,o),
(642,520,cs),
(510,520,o),
(425,414,o),
(425,256,cs),
(425,99,o),
(510,-10,o),
(638,-10,cs)
);
}
);
width = 887;
}
);
metricRight = e;
unicode = 339;
}
{
glyphname = jdotless;
layers = (
{
anchors = (
{
name = bottom;
pos = (134,-205);
},
{
name = top;
pos = (134,510);
}
);
layerId = "522FD917-7CD6-43A0-922F-6555542696CE";
shapes = (
{
closed = 1;
nodes = (
(157,-215,o),
(215,-151,o),
(215,-47,cs),
(215,510,l),
(51,510,l),
(51,-43,ls),
(51,-72,o),
(31,-86,o),
(4,-86,cs),
(-7,-86,o),
(-17,-84,o),
(-28,-79,c),
(-28,-205,l),
(-5,-212,o),
(14,-215,o),
(36,-215,cs)
);
}
);
width = 272;
},
{
anchors = (
{
name = bottom;
pos = (113,-205);
},
{
name = top;
pos = (113,510);
}
);
layerId = "AF447C8E-6A86-4BB0-AFAA-0E31F633710F";
shapes = (
{
closed = 1;
nodes = (
(104,-215,o),
(143,-175,o),
(143,-102,cs),
(143,510,l),
(83,510,l),
(83,-98,ls),
(83,-144,o),
(67,-165,o),
(13,-165,cs),
(-8,-165,o),
(-24,-163,o),
(-32,-161,c),
(-32,-209,l),
(-24,-212,o),
(-12,-215,o),
(15,-215,cs)
);
}
);
width = 220;
},
{
anchors = (
{
name = bottom;
pos = (116,-205);
},
{
name = top;
pos = (116,510);
}
);
layerId = "7706EA0A-ADAC-4E76-A745-8A9A965DB998";
shapes = (
{
closed = 1;
nodes = (
(112,-215,o),
(154,-171,o),
(154,-93,cs),
(154,510,l),
(77,510,l),
(77,-89,ls),
(77,-132,o),
(60,-152,o),
(11,-152,cs),
(-7,-152,o),
(-23,-150,o),
(-32,-147,c),
(-32,-208,l),
(-21,-212,o),
(-8,-215,o),
(18,-215,cs)
);
}
);
width = 231;
}
);
metricRight = idotless;
unicode = 567;
}
{
glyphname = gravecomb;
layers = (
{
anchors = (
{
name = _top;
pos = (262,510);
},
{
name = top;
pos = (262,740);
}
);
layerId = "522FD917-7CD6-43A0-922F-6555542696CE";
shapes = (
{
closed = 1;
nodes = (
(359,583,l),
(271,740,l),
(60,740,l),
(217,583,l)
);
}
);
width = 419;
},
{
anchors = (
{
name = _top;
pos = (196,510);
},
{
name = top;
pos = (196,740);
}
);
layerId = "AF447C8E-6A86-4BB0-AFAA-0E31F633710F";
shapes = (
{
closed = 1;
nodes = (
(269,583,l),
(157,740,l),
(60,740,l),
(212,583,l)
);
}
);
width = 329;
},
{
anchors = (
{
name = _top;
pos = (207,510);
},
{
name = top;
pos = (207,740);
}
);
layerId = "7706EA0A-ADAC-4E76-A745-8A9A965DB998";
shapes = (
{
closed = 1;
nodes = (
(284,583,l),
(176,740,l),
(60,740,l),
(213,583,l)
);
}
);
width = 344;
}
);
unicode = 768;
userData = {
KernOnSpecialSpacing = {
L = NoKerning;
R = NoKerning;
};
};
}
{
glyphname = acutecomb;
layers = (
{
anchors = (
{
name = _top;
pos = (157,510);
},
{
name = top;
pos = (157,740);
}
);
layerId = "522FD917-7CD6-43A0-922F-6555542696CE";
shapes = (
{
closed = 1;
nodes = (
(359,740,l),
(148,740,l),
(60,583,l),
(201,583,l)
);
}
);
width = 419;
},
{
anchors = (
{
name = _top;
pos = (133,510);
},
{
name = top;
pos = (133,740);
}
);
layerId = "AF447C8E-6A86-4BB0-AFAA-0E31F633710F";
shapes = (
{
closed = 1;
nodes = (
(269,740,l),
(173,740,l),
(60,583,l),
(118,583,l)
);
}
);
width = 329;
},
{
anchors = (
{
name = _top;
pos = (137,510);
},
{
name = top;
pos = (137,740);
}
);
layerId = "7706EA0A-ADAC-4E76-A745-8A9A965DB998";
shapes = (
{
closed = 1;
nodes = (
(284,740,l),
(169,740,l),
(60,583,l),
(132,583,l)
);
}
);
width = 344;
}
);
unicode = 769;
userData = {
KernOnSpecialSpacing = {
L = NoKerning;
R = NoKerning;
};
};
}
{
glyphname = circumflexcomb;
layers = (
{
anchors = (
{
name = _top;
pos = (239,510);
},
{
name = top;
pos = (281,740);
}
);
layerId = "522FD917-7CD6-43A0-922F-6555542696CE";
shapes = (
{
closed = 1;
nodes = (
(35,583,l),
(164,583,l),
(291,708,l),
(182,708,l),
(308,583,l),
(437,583,l),
(319,740,l),
(153,740,l)
);
}
);
width = 472;
},
{
anchors = (
{
name = _top;
pos = (231,510);
},
{
name = top;
pos = (223,740);
}
);
layerId = "AF447C8E-6A86-4BB0-AFAA-0E31F633710F";
shapes = (
{
closed = 1;
nodes = (
(61,583,l),
(126,583,l),
(259,722,l),
(204,722,l),
(338,583,l),
(403,583,l),
(265,740,l),
(199,740,l)
);
}
);
width = 464;
},
{
anchors = (
{
name = _top;
pos = (237,510);
},
{
name = top;
pos = (237,740);
}
);
layerId = "7706EA0A-ADAC-4E76-A745-8A9A965DB998";
shapes = (
{
closed = 1;
nodes = (
(61,583,l),
(137,583,l),
(269,720,l),
(205,720,l),
(337,583,l),
(413,583,l),
(278,740,l),
(196,740,l)
);
}
);
width = 474;
}
);
unicode = 770;
userData = {
KernOnSpecialSpacing = {
L = NoKerning;
R = NoKerning;
};
};
}
{
glyphname = tildecomb;
layers = (
{
anchors = (
{
name = _top;
pos = (271,510);
},
{
name = top;
pos = (271,747);
}
);
layerId = "522FD917-7CD6-43A0-922F-6555542696CE";
shapes = (
{
closed = 1;
nodes = (
(432,592,o),
(482,665,o),
(482,743,c),
(386,743,l),
(386,721,o),
(372,703,o),
(343,703,cs),
(297,703,o),
(273,747,o),
(201,747,cs),
(108,747,o),
(60,671,o),
(60,596,c),
(156,596,l),
(156,617,o),
(170,636,o),
(199,636,cs),
(241,636,o),
(275,592,o),
(344,592,cs)
);
}
);
width = 542;
},
{
anchors = (
{
name = _top;
pos = (234,510);
},
{
name = top;
pos = (234,717);
}
);
layerId = "AF447C8E-6A86-4BB0-AFAA-0E31F633710F";
shapes = (
{
closed = 1;
nodes = (
(363,596,o),
(408,634,o),
(408,706,c),
(361,706,l),
(361,660,o),
(341,643,o),
(313,643,cs),
(261,643,o),
(243,717,o),
(163,717,cs),
(104,717,o),
(60,682,o),
(60,607,c),
(107,607,l),
(107,652,o),
(128,670,o),
(153,670,cs),
(203,670,o),
(231,596,o),
(308,596,cs)
);
}
);
width = 468;
},
{
anchors = (
{
name = _top;
pos = (240,510);
},
{
name = top;
pos = (240,722);
}
);
layerId = "7706EA0A-ADAC-4E76-A745-8A9A965DB998";
shapes = (
{
closed = 1;
nodes = (
(375,595,o),
(420,639,o),
(420,712,c),
(365,712,l),
(365,670,o),
(346,653,o),
(318,653,cs),
(267,653,o),
(248,722,o),
(169,722,cs),
(105,722,o),
(60,680,o),
(60,605,c),
(115,605,l),
(115,646,o),
(135,664,o),
(161,664,cs),
(209,664,o),
(238,595,o),
(314,595,cs)
);
}
);
width = 480;
}
);
unicode = 771;
userData = {
KernOnSpecialSpacing = {
L = NoKerning;
R = NoKerning;
};
};
}
{
glyphname = macroncomb;
layers = (
{
anchors = (
{
name = _top;
pos = (239,510);
},
{
name = top;
pos = (239,730);
}
);
layerId = "522FD917-7CD6-43A0-922F-6555542696CE";
shapes = (
{
closed = 1;
nodes = (
(416,612,l),
(416,730,l),
(60,730,l),
(60,612,l)
);
}
);
width = 476;
},
{
anchors = (
{
name = _top;
pos = (222,510);
},
{
name = top;
pos = (222,693);
}
);
layerId = "AF447C8E-6A86-4BB0-AFAA-0E31F633710F";
shapes = (
{
closed = 1;
nodes = (
(385,649,l),
(385,693,l),
(60,693,l),
(60,649,l)
);
}
);
width = 445;
},
{
anchors = (
{
name = _top;
pos = (225,510);
},
{
name = top;
pos = (225,699);
}
);
layerId = "7706EA0A-ADAC-4E76-A745-8A9A965DB998";
shapes = (
{
closed = 1;
nodes = (
(390,643,l),
(390,699,l),
(60,699,l),
(60,643,l)
);
}
);
width = 450;
}
);
unicode = 772;
userData = {
KernOnSpecialSpacing = {
L = NoKerning;
R = NoKerning;
};
};
}
{
glyphname = brevecomb;
layers = (
{
anchors = (
{
name = _top;
pos = (233,510);
},
{
name = top;
pos = (233,740);
}
);
layerId = "522FD917-7CD6-43A0-922F-6555542696CE";
shapes = (
{
closed = 1;
nodes = (
(331,573,o),
(406,645,o),
(406,740,c),
(298,740,l),
(298,709,o),
(275,685,o),
(233,685,cs),
(192,685,o),
(168,709,o),
(168,740,c),
(60,740,l),
(60,644,o),
(133,573,o),
(233,573,cs)
);
}
);
width = 466;
},
{
anchors = (
{
name = _top;
pos = (216,510);
},
{
name = top;
pos = (216,740);
}
);
layerId = "AF447C8E-6A86-4BB0-AFAA-0E31F633710F";
shapes = (
{
closed = 1;
nodes = (
(302,580,o),
(371,638,o),
(371,740,c),
(320,740,l),
(320,673,o),
(281,636,o),
(216,636,cs),
(149,636,o),
(110,673,o),
(110,740,c),
(60,740,l),
(60,638,o),
(128,580,o),
(216,580,cs)
);
}
);
width = 431;
},
{
anchors = (
{
name = _top;
pos = (219,510);
},
{
name = top;
pos = (219,740);
}
);
layerId = "7706EA0A-ADAC-4E76-A745-8A9A965DB998";
shapes = (
{
closed = 1;
nodes = (
(307,579,o),
(377,639,o),
(377,740,c),
(316,740,l),
(316,679,o),
(280,644,o),
(219,644,cs),
(156,644,o),
(120,679,o),
(120,740,c),
(60,740,l),
(60,639,o),
(129,579,o),
(219,579,cs)
);
}
);
width = 437;
}
);
unicode = 774;
userData = {
KernOnSpecialSpacing = {
L = NoKerning;
R = NoKerning;
};
};
}
{
glyphname = dieresiscomb;
layers = (
{
anchors = (
{
name = _top;
pos = (260,510);
},
{
name = top;
pos = (260,740);
}
);
layerId = "522FD917-7CD6-43A0-922F-6555542696CE";
shapes = (
{
closed = 1;
nodes = (
(460,564,l),
(460,740,l),
(287,740,l),
(287,564,l)
);
},
{
closed = 1;
nodes = (
(232,564,l),
(232,740,l),
(60,740,l),
(60,564,l)
);
}
);
width = 520;
},
{
anchors = (
{
name = _top;
pos = (207,510);
},
{
name = top;
pos = (207,716);
}
);
layerId = "AF447C8E-6A86-4BB0-AFAA-0E31F633710F";
shapes = (
{
closed = 1;
nodes = (
(353,641,l),
(353,716,l),
(280,716,l),
(280,641,l)
);
},
{
closed = 1;
nodes = (
(134,641,l),
(134,716,l),
(60,716,l),
(60,641,l)
);
}
);
width = 413;
},
{
anchors = (
{
name = _top;
pos = (216,510);
},
{
name = top;
pos = (216,720);
}
);
layerId = "7706EA0A-ADAC-4E76-A745-8A9A965DB998";
shapes = (
{
closed = 1;
nodes = (
(371,628,l),
(371,720,l),
(281,720,l),
(281,628,l)
);
},
{
closed = 1;
nodes = (
(150,628,l),
(150,720,l),
(60,720,l),
(60,628,l)
);
}
);
width = 431;
}
);
unicode = 776;
}
{
glyphname = ringcomb;
layers = (
{
anchors = (
{
name = _top;
pos = (168,510);
},
{
name = top;
pos = (168,776);
}
);
layerId = "522FD917-7CD6-43A0-922F-6555542696CE";
shapes = (
{
closed = 1;
nodes = (
(229,561,o),
(275,609,o),
(275,669,cs),
(275,728,o),
(229,776,o),
(168,776,cs),
(106,776,o),
(60,728,o),
(60,669,cs),
(60,609,o),
(106,561,o),
(168,561,cs)
);
},
{
closed = 1;
nodes = (
(151,640,o),
(140,652,o),
(140,669,cs),
(140,685,o),
(151,697,o),
(168,697,cs),
(184,697,o),
(195,685,o),
(195,669,cs),
(195,652,o),
(184,640,o),
(168,640,cs)
);
}
);
width = 335;
},
{
anchors = (
{
name = _top;
pos = (168,510);
},
{
name = top;
pos = (168,776);
}
);
layerId = "AF447C8E-6A86-4BB0-AFAA-0E31F633710F";
shapes = (
{
closed = 1;
nodes = (
(229,561,o),
(275,609,o),
(275,669,cs),
(275,728,o),
(229,776,o),
(168,776,cs),
(106,776,o),
(60,728,o),
(60,669,cs),
(60,609,o),
(106,561,o),
(168,561,cs)
);
},
{
closed = 1;
nodes = (
(131,603,o),
(104,633,o),
(104,669,cs),
(104,704,o),
(130,734,o),
(168,734,cs),
(204,734,o),
(231,704,o),
(231,669,cs),
(231,633,o),
(205,603,o),
(168,603,cs)
);
}
);
width = 335;
},
{
anchors = (
{
name = _top;
pos = (168,510);
},
{
name = top;
pos = (168,776);
}
);
layerId = "7706EA0A-ADAC-4E76-A745-8A9A965DB998";
shapes = (
{
closed = 1;
nodes = (
(229,561,o),
(275,609,o),
(275,669,cs),
(275,728,o),
(229,776,o),
(168,776,cs),
(106,776,o),
(60,728,o),
(60,669,cs),
(60,609,o),
(106,561,o),
(168,561,cs)
);
},
{
closed = 1;
nodes = (
(134,609,o),
(110,636,o),
(110,669,cs),
(110,701,o),
(134,728,o),
(168,728,cs),
(201,728,o),
(225,701,o),
(225,669,cs),
(225,636,o),
(201,609,o),
(168,609,cs)
);
}
);
width = 335;
}
);
unicode = 778;
userData = {
KernOnSpecialSpacing = {
L = NoKerning;
R = NoKerning;
};
};
}
{
glyphname = hungarumlautcomb;
layers = (
{
anchors = (
{
name = _top;
pos = (243,510);
},
{
name = top;
pos = (243,740);
}
);
layerId = "522FD917-7CD6-43A0-922F-6555542696CE";
shapes = (
{
closed = 1;
nodes = (
(293,740,l),
(114,740,l),
(60,583,l),
(181,583,l)
);
},
{
closed = 1;
nodes = (
(510,740,l),
(331,740,l),
(279,583,l),
(399,583,l)
);
}
);
width = 570;
},
{
anchors = (
{
name = _top;
pos = (195,510);
},
{
name = top;
pos = (195,740);
}
);
layerId = "AF447C8E-6A86-4BB0-AFAA-0E31F633710F";
shapes = (
{
closed = 1;
nodes = (
(191,740,l),
(115,740,l),
(60,583,l),
(111,583,l)
);
},
{
closed = 1;
nodes = (
(376,740,l),
(300,740,l),
(244,583,l),
(296,583,l)
);
}
);
width = 436;
},
{
anchors = (
{
name = _top;
pos = (203,510);
},
{
name = top;
pos = (203,740);
}
);
layerId = "7706EA0A-ADAC-4E76-A745-8A9A965DB998";
shapes = (
{
closed = 1;
nodes = (
(208,740,l),
(115,740,l),
(60,583,l),
(123,583,l)
);
},
{
closed = 1;
nodes = (
(398,740,l),
(305,740,l),
(250,583,l),
(313,583,l)
);
}
);
width = 458;
}
);
unicode = 779;
userData = {
KernOnSpecialSpacing = {
L = NoKerning;
R = NoKerning;
};
};
}
{
glyphname = caroncomb;
layers = (
{
anchors = (
{
name = _top;
pos = (261,510);
},
{
name = top;
pos = (261,740);
}
);
layerId = "522FD917-7CD6-43A0-922F-6555542696CE";
shapes = (
{
closed = 1;
nodes = (
(344,583,l),
(462,740,l),
(333,740,l),
(206,615,l),
(315,615,l),
(189,740,l),
(60,740,l),
(178,583,l)
);
}
);
width = 522;
},
{
anchors = (
{
name = _top;
pos = (232,510);
},
{
name = top;
pos = (232,740);
}
);
layerId = "AF447C8E-6A86-4BB0-AFAA-0E31F633710F";
shapes = (
{
closed = 1;
nodes = (
(265,583,l),
(403,740,l),
(341,740,l),
(205,601,l),
(260,601,l),
(123,740,l),
(61,740,l),
(199,583,l)
);
}
);
width = 464;
},
{
anchors = (
{
name = _top;
pos = (237,510);
},
{
name = top;
pos = (237,740);
}
);
layerId = "7706EA0A-ADAC-4E76-A745-8A9A965DB998";
shapes = (
{
closed = 1;
nodes = (
(278,583,l),
(413,740,l),
(340,740,l),
(205,603,l),
(269,603,l),
(134,740,l),
(61,740,l),
(196,583,l)
);
}
);
width = 474;
}
);
unicode = 780;
userData = {
KernOnSpecialSpacing = {
L = NoKerning;
R = NoKerning;
};
};
}
{
glyphname = commaturnedabovecomb;
layers = (
{
anchors = (
{
name = _top;
pos = (150,510);
},
{
name = top;
pos = (150,871);
}
);
layerId = "522FD917-7CD6-43A0-922F-6555542696CE";
shapes = (
{
closed = 1;
nodes = (
(230,585,l),
(230,733,l),
(95,733,l),
(154,720,l),
(154,773,o),
(178,801,o),
(230,799,c),
(230,871,l),
(134,873,o),
(68,807,o),
(68,707,cs),
(68,585,l)
);
}
);
width = 298;
},
{
anchors = (
{
name = _top;
pos = (111,510);
},
{
name = top;
pos = (111,787);
}
);
layerId = "AF447C8E-6A86-4BB0-AFAA-0E31F633710F";
shapes = (
{
closed = 1;
nodes = (
(156,580,l),
(156,671,l),
(80,671,l),
(102,667,l),
(102,708,o),
(125,735,o),
(156,752,c),
(156,787,l),
(91,761,o),
(65,707,o),
(65,648,cs),
(65,580,l)
);
}
);
width = 221;
},
{
anchors = (
{
name = _top;
pos = (117,510);
},
{
name = top;
pos = (117,801);
}
);
layerId = "7706EA0A-ADAC-4E76-A745-8A9A965DB998";
shapes = (
{
closed = 1;
nodes = (
(168,581,l),
(168,681,l),
(82,681,l),
(110,676,l),
(110,719,o),
(133,746,o),
(168,760,c),
(168,801,l),
(98,780,o),
(65,724,o),
(65,658,cs),
(65,581,l)
);
}
);
width = 233;
}
);
unicode = 786;
}
{
glyphname = commaaccentcomb;
layers = (
{
anchors = (
{
name = _bottom;
pos = (150,0);
},
{
name = bottom;
pos = (150,-362);
}
);
layerId = "522FD917-7CD6-43A0-922F-6555542696CE";
shapes = (
{
closed = 1;
nodes = (
(164,-364,o),
(230,-298,o),
(230,-198,cs),
(230,-76,l),
(68,-76,l),
(68,-223,l),
(203,-223,l),
(145,-211,l),
(145,-264,o),
(119,-292,o),
(68,-290,c),
(68,-362,l)
);
}
);
width = 298;
},
{
anchors = (
{
name = _bottom;
pos = (111,0);
},
{
name = bottom;
pos = (111,-277);
}
);
layerId = "AF447C8E-6A86-4BB0-AFAA-0E31F633710F";
shapes = (
{
closed = 1;
nodes = (
(130,-251,o),
(156,-198,o),
(156,-139,cs),
(156,-71,l),
(65,-71,l),
(65,-162,l),
(141,-162,l),
(119,-158,l),
(119,-199,o),
(97,-226,o),
(65,-243,c),
(65,-277,l)
);
}
);
width = 221;
},
{
anchors = (
{
name = _bottom;
pos = (117,0);
},
{
name = bottom;
pos = (117,-291);
}
);
layerId = "7706EA0A-ADAC-4E76-A745-8A9A965DB998";
shapes = (
{
closed = 1;
nodes = (
(135,-270,o),
(168,-215,o),
(168,-149,cs),
(168,-72,l),
(65,-72,l),
(65,-172,l),
(151,-172,l),
(123,-167,l),
(123,-210,o),
(100,-237,o),
(65,-251,c),
(65,-291,l)
);
}
);
width = 233;
}
);
unicode = 806;
}
{
glyphname = cedillacomb;
layers = (
{
anchors = (
{
name = _bottom;
pos = (202,0);
},
{
name = bottom;
pos = (192,-215);
}
);
layerId = "522FD917-7CD6-43A0-922F-6555542696CE";
shapes = (
{
closed = 1;
nodes = (
(277,-215,o),
(322,-174,o),
(322,-122,cs),
(322,-75,o),
(290,-42,o),
(237,-29,c),
(247,12,l),
(160,12,l),
(135,-92,l),
(197,-96,o),
(216,-106,o),
(216,-123,cs),
(216,-135,o),
(205,-142,o),
(194,-142,cs),
(176,-142,o),
(165,-132,o),
(164,-118,c),
(60,-118,l),
(63,-179,o),
(113,-215,o),
(196,-215,cs)
);
}
);
width = 382;
},
{
anchors = (
{
name = _bottom;
pos = (178,0);
},
{
name = bottom;
pos = (169,-215);
}
);
layerId = "AF447C8E-6A86-4BB0-AFAA-0E31F633710F";
shapes = (
{
closed = 1;
nodes = (
(230,-215,o),
(278,-187,o),
(278,-133,cs),
(278,-95,o),
(258,-61,o),
(193,-48,c),
(210,12,l),
(161,12,l),
(137,-85,l),
(209,-88,o),
(232,-107,o),
(232,-133,cs),
(232,-157,o),
(205,-170,o),
(171,-170,cs),
(137,-170,o),
(106,-157,o),
(104,-130,c),
(60,-130,l),
(63,-183,o),
(106,-215,o),
(168,-215,cs)
);
}
);
width = 338;
},
{
anchors = (
{
name = _bottom;
pos = (182,0);
},
{
name = bottom;
pos = (173,-215);
}
);
layerId = "7706EA0A-ADAC-4E76-A745-8A9A965DB998";
shapes = (
{
closed = 1;
nodes = (
(238,-215,o),
(285,-185,o),
(285,-131,cs),
(285,-92,o),
(263,-58,o),
(200,-45,c),
(216,12,l),
(161,12,l),
(137,-86,l),
(207,-89,o),
(229,-107,o),
(229,-131,cs),
(229,-153,o),
(205,-165,o),
(175,-165,cs),
(144,-165,o),
(116,-153,o),
(114,-128,c),
(60,-128,l),
(63,-182,o),
(107,-215,o),
(173,-215,cs)
);
}
);
width = 345;
}
);
unicode = 807;
userData = {
KernOnSpecialSpacing = {
L = NoKerning;
R = NoKerning;
};
};
}
{
glyphname = ogonekcomb;
layers = (
{
anchors = (
{
name = _ogonek;
pos = (250,0);
}
);
layerId = "522FD917-7CD6-43A0-922F-6555542696CE";
shapes = (
{
closed = 1;
nodes = (
(217,-216,o),
(243,-208,o),
(262,-197,c),
(236,-122,l),
(223,-132,o),
(211,-136,o),
(197,-136,cs),
(180,-136,o),
(166,-126,o),
(166,-105,cs),
(166,-82,o),
(183,-53,o),
(249,0,c),
(185,17,l),
(108,-23,o),
(60,-68,o),
(60,-126,cs),
(60,-181,o),
(104,-216,o),
(179,-216,cs)
);
}
);
width = 322;
},
{
anchors = (
{
name = _ogonek;
pos = (204,0);
}
);
layerId = "AF447C8E-6A86-4BB0-AFAA-0E31F633710F";
shapes = (
{
closed = 1;
nodes = (
(165,-216,o),
(186,-208,o),
(206,-189,c),
(174,-156,l),
(164,-167,o),
(155,-172,o),
(139,-172,cs),
(120,-172,o),
(107,-158,o),
(107,-134,cs),
(107,-83,o),
(147,-41,o),
(205,0,c),
(187,17,l),
(114,-23,o),
(60,-81,o),
(60,-139,cs),
(60,-183,o),
(86,-216,o),
(136,-216,cs)
);
}
);
width = 266;
},
{
anchors = (
{
name = _ogonek;
pos = (212,0);
}
);
layerId = "7706EA0A-ADAC-4E76-A745-8A9A965DB998";
shapes = (
{
closed = 1;
nodes = (
(174,-216,o),
(195,-208,o),
(215,-190,c),
(184,-150,l),
(174,-161,o),
(164,-166,o),
(149,-166,cs),
(130,-166,o),
(117,-153,o),
(117,-129,cs),
(117,-83,o),
(153,-43,o),
(212,0,c),
(187,17,l),
(113,-23,o),
(60,-79,o),
(60,-137,cs),
(60,-183,o),
(89,-216,o),
(143,-216,cs)
);
}
);
width = 275;
}
);
unicode = 808;
userData = {
KernOnSpecialSpacing = {
L = NoKerning;
R = NoKerning;
};
};
}
{
glyphname = Germandbls;
layers = (
{
layerId = "522FD917-7CD6-43A0-922F-6555542696CE";
shapes = (
{
closed = 1;
nodes = (
(564,-9,o),
(669,71,o),
(669,201,cs),
(669,316,o),
(600,387,o),
(427,451,c),
(492,381,l),
(662,621,l),
(585,693,o),
(484,731,o),
(363,731,cs),
(160,731,o),
(50,626,o),
(50,436,cs),
(50,0,l),
(220,0,l),
(220,455,ls),
(220,550,o),
(268,601,o),
(355,601,cs),
(408,601,o),
(447,582,o),
(474,553,c),
(493,629,l),
(311,361,l),
(357,346,ls),
(458,313,o),
(498,274,o),
(498,211,cs),
(498,149,o),
(458,121,o),
(378,121,cs),
(340,121,o),
(313,127,o),
(282,139,c),
(282,6,l),
(319,-4,o),
(357,-9,o),
(399,-9,cs)
);
}
);
width = 691;
},
{
layerId = "AF447C8E-6A86-4BB0-AFAA-0E31F633710F";
shapes = (
{
closed = 1;
nodes = (
(530,-9,o),
(611,59,o),
(611,177,cs),
(611,288,o),
(531,377,o),
(387,425,c),
(404,369,l),
(606,626,l),
(529,703,o),
(461,731,o),
(361,731,cs),
(180,731,o),
(83,634,o),
(83,453,cs),
(83,0,l),
(144,0,l),
(144,449,ls),
(144,598,o),
(217,673,o),
(358,673,cs),
(437,673,o),
(503,647,o),
(549,594,c),
(545,648,l),
(330,378,l),
(353,370,ls),
(491,322,o),
(549,267,o),
(549,185,cs),
(549,95,o),
(496,49,o),
(382,49,cs),
(331,49,o),
(281,57,o),
(250,72,c),
(250,10,l),
(281,-3,o),
(328,-9,o),
(377,-9,cs)
);
}
);
width = 651;
},
{
layerId = "7706EA0A-ADAC-4E76-A745-8A9A965DB998";
shapes = (
{
closed = 1;
nodes = (
(541,-9,o),
(626,61,o),
(626,181,cs),
(626,292,o),
(549,378,o),
(399,429,c),
(424,371,l),
(621,625,l),
(544,701,o),
(471,731,o),
(367,731,cs),
(182,731,o),
(83,633,o),
(83,450,cs),
(83,0,l),
(162,0,l),
(162,450,ls),
(162,590,o),
(231,661,o),
(363,661,cs),
(438,661,o),
(499,636,o),
(542,587,c),
(542,645,l),
(332,375,l),
(358,366,ls),
(492,322,o),
(546,269,o),
(546,189,cs),
(546,104,o),
(495,61,o),
(387,61,cs),
(337,61,o),
(291,69,o),
(261,83,c),
(261,9,l),
(292,-3,o),
(338,-9,o),
(386,-9,cs)
);
}
);
width = 666;
}
);
metricLeft = H;
metricRight = S;
unicode = 7838;
}
{
glyphname = endash;
kernLeft = KO_endash;
kernRight = KO_endash;
layers = (
{
layerId = "522FD917-7CD6-43A0-922F-6555542696CE";
shapes = (
{
closed = 1;
nodes = (
(533,211,l),
(533,332,l),
(57,332,l),
(57,211,l)
);
}
);
width = 590;
},
{
layerId = "AF447C8E-6A86-4BB0-AFAA-0E31F633710F";
shapes = (
{
closed = 1;
nodes = (
(467,245,l),
(467,300,l),
(77,300,l),
(77,245,l)
);
}
);
width = 544;
},
{
layerId = "7706EA0A-ADAC-4E76-A745-8A9A965DB998";
shapes = (
{
closed = 1;
nodes = (
(481,239,l),
(481,305,l),
(77,305,l),
(77,239,l)
);
}
);
width = 558;
}
);
metricRight = "=|";
unicode = 8211;
userData = {
KernOnSpecialSpacing = {
L = dashes;
R = dashes;
};
};
}
{
glyphname = emdash;
kernLeft = KO_endash;
kernRight = KO_endash;
layers = (
{
layerId = "522FD917-7CD6-43A0-922F-6555542696CE";
shapes = (
{
closed = 1;
nodes = (
(813,211,l),
(813,332,l),
(57,332,l),
(57,211,l)
);
}
);
width = 870;
},
{
layerId = "AF447C8E-6A86-4BB0-AFAA-0E31F633710F";
shapes = (
{
closed = 1;
nodes = (
(747,245,l),
(747,300,l),
(77,300,l),
(77,245,l)
);
}
);
width = 824;
},
{
layerId = "7706EA0A-ADAC-4E76-A745-8A9A965DB998";
shapes = (
{
closed = 1;
nodes = (
(761,239,l),
(761,305,l),
(77,305,l),
(77,239,l)
);
}
);
width = 838;
}
);
metricRight = "=|";
unicode = 8212;
userData = {
KernOnSpecialSpacing = {
L = dashes;
R = dashes;
};
};
}
{
glyphname = quoteleft;
kernLeft = KO_quotedblleft.ss01;
kernRight = KO_quotedblleft.ss01;
layers = (
{
layerId = "522FD917-7CD6-43A0-922F-6555542696CE";
shapes = (
{
closed = 1;
nodes = (
(235,411,l),
(235,573,l),
(86,573,l),
(151,559,l),
(151,614,o),
(168,651,o),
(237,660,c),
(237,740,l),
(113,721,o),
(56,633,o),
(56,531,c),
(56,411,l)
);
}
);
width = 292;
},
{
layerId = "AF447C8E-6A86-4BB0-AFAA-0E31F633710F";
shapes = (
{
closed = 1;
nodes = (
(163,530,l),
(163,616,l),
(86,616,l),
(109,613,l),
(109,676,o),
(128,704,o),
(165,708,c),
(165,740,l),
(102,729,o),
(74,676,o),
(74,597,c),
(74,530,l)
);
}
);
width = 233;
},
{
layerId = "7706EA0A-ADAC-4E76-A745-8A9A965DB998";
shapes = (
{
closed = 1;
nodes = (
(178,510,l),
(178,609,l),
(89,609,l),
(119,604,l),
(119,666,o),
(138,695,o),
(180,700,c),
(180,740,l),
(107,728,o),
(74,669,o),
(74,586,c),
(74,510,l)
);
}
);
width = 248;
}
);
metricLeft = "=|quoteright";
metricRight = "=|quoteright";
unicode = 8216;
}
{
glyphname = quoteright;
kernLeft = KO_quotedblright;
kernRight = KO_quoteright.ss01;
layers = (
{
layerId = "522FD917-7CD6-43A0-922F-6555542696CE";
shapes = (
{
closed = 1;
nodes = (
(178,430,o),
(235,517,o),
(235,619,c),
(235,739,l),
(56,739,l),
(56,577,l),
(205,577,l),
(140,591,l),
(140,537,o),
(125,499,o),
(55,490,c),
(55,410,l)
);
}
);
width = 291;
},
{
layerId = "AF447C8E-6A86-4BB0-AFAA-0E31F633710F";
shapes = (
{
closed = 1;
nodes = (
(130,544,o),
(158,598,o),
(158,678,c),
(158,745,l),
(70,745,l),
(70,659,l),
(146,659,l),
(123,662,l),
(123,597,o),
(103,571,o),
(68,567,c),
(68,534,l)
);
}
);
width = 232;
},
{
layerId = "7706EA0A-ADAC-4E76-A745-8A9A965DB998";
shapes = (
{
closed = 1;
nodes = (
(140,525,o),
(173,584,o),
(173,668,c),
(173,744,l),
(70,744,l),
(70,645,l),
(158,645,l),
(128,650,l),
(128,587,o),
(109,559,o),
(68,554,c),
(68,513,l)
);
}
);
width = 247;
}
);
unicode = 8217;
}
{
glyphname = perthousand;
layers = (
{
layerId = "522FD917-7CD6-43A0-922F-6555542696CE";
shapes = (
{
closed = 1;
nodes = (
(241,365,o),
(306,423,o),
(306,548,cs),
(306,672,o),
(244,730,o),
(168,730,cs),
(93,730,o),
(30,672,o),
(30,548,cs),
(30,423,o),
(94,365,o),
(168,365,cs)
);
},
{
closed = 1;
nodes = (
(133,448,o),
(112,484,o),
(112,549,cs),
(112,612,o),
(133,647,o),
(168,647,cs),
(201,647,o),
(224,611,o),
(224,549,cs),
(224,484,o),
(200,448,o),
(168,448,cs)
);
},
{
closed = 1;
nodes = (
(168,0,l),
(594,720,l),
(490,720,l),
(63,0,l)
);
},
{
closed = 1;
nodes = (
(545,-10,o),
(590,43,o),
(590,173,cs),
(590,302,o),
(548,355,o),
(479,355,cs),
(413,355,o),
(350,291,o),
(350,173,cs),
(350,54,o),
(414,-10,o),
(479,-10,cs)
);
},
{
closed = 1;
nodes = (
(451,73,o),
(432,107,o),
(432,174,cs),
(432,239,o),
(451,272,o),
(479,272,cs),
(508,272,o),
(529,237,o),
(529,174,cs),
(529,107,o),
(507,73,o),
(479,73,cs)
);
},
{
closed = 1;
nodes = (
(613,73,o),
(594,108,o),
(594,174,cs),
(594,238,o),
(612,272,o),
(642,272,cs),
(670,272,o),
(690,237,o),
(690,174,cs),
(690,108,o),
(669,73,o),
(642,73,cs)
);
},
{
closed = 1;
nodes = (
(708,-10,o),
(772,53,o),
(772,173,cs),
(772,292,o),
(710,355,o),
(642,355,cs),
(575,355,o),
(532,301,o),
(532,173,cs),
(532,43,o),
(576,-10,o),
(642,-10,cs)
);
}
);
width = 802;
},
{
layerId = "AF447C8E-6A86-4BB0-AFAA-0E31F633710F";
shapes = (
{
closed = 1;
nodes = (
(241,365,o),
(306,423,o),
(306,548,cs),
(306,672,o),
(244,730,o),
(168,730,cs),
(93,730,o),
(30,672,o),
(30,548,cs),
(30,423,o),
(94,365,o),
(168,365,cs)
);
},
{
closed = 1;
nodes = (
(120,412,o),
(89,460,o),
(89,549,cs),
(89,637,o),
(120,683,o),
(168,683,cs),
(214,683,o),
(247,636,o),
(247,549,cs),
(247,460,o),
(213,412,o),
(168,412,cs)
);
},
{
closed = 1;
nodes = (
(132,0,l),
(586,720,l),
(518,720,l),
(63,0,l)
);
},
{
closed = 1;
nodes = (
(537,-10,o),
(594,50,o),
(594,173,cs),
(594,296,o),
(540,355,o),
(472,355,cs),
(405,355,o),
(342,298,o),
(342,173,cs),
(342,47,o),
(406,-10,o),
(472,-10,cs)
);
},
{
closed = 1;
nodes = (
(428,37,o),
(401,86,o),
(401,174,cs),
(401,261,o),
(428,308,o),
(472,308,cs),
(513,308,o),
(542,260,o),
(542,174,cs),
(542,86,o),
(512,37,o),
(472,37,cs)
);
},
{
closed = 1;
nodes = (
(631,37,o),
(600,85,o),
(600,174,cs),
(600,261,o),
(630,308,o),
(671,308,cs),
(715,308,o),
(742,261,o),
(742,174,cs),
(742,86,o),
(715,37,o),
(671,37,cs)
);
},
{
closed = 1;
nodes = (
(737,-10,o),
(801,47,o),
(801,173,cs),
(801,298,o),
(738,355,o),
(671,355,cs),
(603,355,o),
(549,296,o),
(549,173,cs),
(549,49,o),
(606,-10,o),
(671,-10,cs)
);
}
);
width = 831;
},
{
layerId = "7706EA0A-ADAC-4E76-A745-8A9A965DB998";
shapes = (
{
closed = 1;
nodes = (
(241,365,o),
(306,423,o),
(306,548,cs),
(306,672,o),
(244,730,o),
(168,730,cs),
(93,730,o),
(30,672,o),
(30,548,cs),
(30,423,o),
(94,365,o),
(168,365,cs)
);
},
{
closed = 1;
nodes = (
(122,418,o),
(93,464,o),
(93,549,cs),
(93,633,o),
(122,677,o),
(168,677,cs),
(212,677,o),
(243,632,o),
(243,549,cs),
(243,464,o),
(211,418,o),
(168,418,cs)
);
},
{
closed = 1;
nodes = (
(138,0,l),
(587,720,l),
(513,720,l),
(63,0,l)
);
},
{
closed = 1;
nodes = (
(538,-10,o),
(593,48,o),
(593,173,cs),
(593,297,o),
(541,355,o),
(473,355,cs),
(406,355,o),
(343,297,o),
(343,173,cs),
(343,48,o),
(407,-10,o),
(473,-10,cs)
);
},
{
closed = 1;
nodes = (
(432,43,o),
(406,89,o),
(406,174,cs),
(406,258,o),
(432,302,o),
(473,302,cs),
(512,302,o),
(540,257,o),
(540,174,cs),
(540,89,o),
(511,43,o),
(473,43,cs)
);
},
{
closed = 1;
nodes = (
(628,43,o),
(599,89,o),
(599,174,cs),
(599,257,o),
(627,302,o),
(666,302,cs),
(707,302,o),
(733,258,o),
(733,174,cs),
(733,89,o),
(707,43,o),
(666,43,cs)
);
},
{
closed = 1;
nodes = (
(732,-10,o),
(796,48,o),
(796,173,cs),
(796,297,o),
(733,355,o),
(666,355,cs),
(598,355,o),
(546,297,o),
(546,173,cs),
(546,48,o),
(601,-10,o),
(666,-10,cs)
);
}
);
width = 826;
}
);
unicode = 8240;
}
{
glyphname = guilsinglleft;
kernLeft = KO_guillemetleft;
kernRight = KO_guillemetleft;
layers = (
{
layerId = "522FD917-7CD6-43A0-922F-6555542696CE";
shapes = (
{
closed = 1;
nodes = (
(319,68,l),
(197,251,l),
(319,434,l),
(169,434,l),
(43,251,l),
(169,68,l)
);
}
);
width = 372;
},
{
layerId = "AF447C8E-6A86-4BB0-AFAA-0E31F633710F";
shapes = (
{
closed = 1;
nodes = (
(243,68,l),
(121,251,l),
(243,434,l),
(179,434,l),
(53,251,l),
(179,68,l)
);
}
);
width = 306;
},
{
layerId = "7706EA0A-ADAC-4E76-A745-8A9A965DB998";
shapes = (
{
closed = 1;
nodes = (
(257,68,l),
(135,251,l),
(257,434,l),
(179,434,l),
(53,251,l),
(179,68,l)
);
}
);
width = 320;
}
);
unicode = 8249;
userData = {
KernOnSpecialSpacing = {
L = quotes;
R = quotes;
};
};
}
{
glyphname = guilsinglright;
kernLeft = KO_guillemetright;
kernRight = KO_guillemetright;
layers = (
{
layerId = "522FD917-7CD6-43A0-922F-6555542696CE";
shapes = (
{
closed = 1;
nodes = (
(329,251,l),
(204,434,l),
(53,434,l),
(175,251,l),
(53,68,l),
(204,68,l)
);
}
);
width = 372;
},
{
layerId = "AF447C8E-6A86-4BB0-AFAA-0E31F633710F";
shapes = (
{
closed = 1;
nodes = (
(253,251,l),
(126,434,l),
(63,434,l),
(185,251,l),
(63,68,l),
(126,68,l)
);
}
);
width = 306;
},
{
layerId = "7706EA0A-ADAC-4E76-A745-8A9A965DB998";
shapes = (
{
closed = 1;
nodes = (
(267,251,l),
(141,434,l),
(63,434,l),
(185,251,l),
(63,68,l),
(141,68,l)
);
}
);
width = 320;
}
);
metricLeft = "=|guilsinglleft";
metricRight = "=|guilsinglleft";
unicode = 8250;
userData = {
KernOnSpecialSpacing = {
L = quotes;
R = quotes;
};
};
}
